<?xml version="1.0" encoding="UTF-8" standalone="no"?>
<!-- Created with Inkscape (http://www.inkscape.org/) -->

<svg
   xmlns:dc="http://purl.org/dc/elements/1.1/"
   xmlns:cc="http://creativecommons.org/ns#"
   xmlns:rdf="http://www.w3.org/1999/02/22-rdf-syntax-ns#"
   xmlns:svg="http://www.w3.org/2000/svg"
   xmlns="http://www.w3.org/2000/svg"
   xmlns:sodipodi="http://sodipodi.sourceforge.net/DTD/sodipodi-0.dtd"
   xmlns:inkscape="http://www.inkscape.org/namespaces/inkscape"
   width="64"
   height="64"
   viewBox="0 0 16.933333 16.933334"
   version="1.1"
   id="svg8"
   inkscape:version="0.92.4 (fd57863, 2020-04-02)"
   sodipodi:docname="Boredom.svg">
  <defs
     id="defs2">
    <inkscape:path-effect
       effect="simplify"
       id="path-effect60"
       is_visible="true"
       steps="1"
       threshold="0.000408163"
       smooth_angles="360"
       helper_size="0"
       simplify_individual_paths="false"
       simplify_just_coalesce="false"
       simplifyindividualpaths="false"
       simplifyJustCoalesce="false" />
    <inkscape:path-effect
       effect="simplify"
       id="path-effect56"
       is_visible="true"
       steps="1"
       threshold="0.000408163"
       smooth_angles="360"
       helper_size="0"
       simplify_individual_paths="false"
       simplify_just_coalesce="false"
       simplifyindividualpaths="false"
       simplifyJustCoalesce="false" />
    <inkscape:path-effect
       effect="simplify"
       id="path-effect40"
       is_visible="true"
       steps="1"
       threshold="0.000408163"
       smooth_angles="360"
       helper_size="0"
       simplify_individual_paths="false"
       simplify_just_coalesce="false"
       simplifyindividualpaths="false"
       simplifyJustCoalesce="false" />
    <inkscape:path-effect
       effect="simplify"
       id="path-effect36"
       is_visible="true"
       steps="1"
       threshold="0.000408163"
       smooth_angles="360"
       helper_size="0"
       simplify_individual_paths="false"
       simplify_just_coalesce="false"
       simplifyindividualpaths="false"
       simplifyJustCoalesce="false" />
    <inkscape:path-effect
       effect="simplify"
       id="path-effect32"
       is_visible="true"
       steps="1"
       threshold="0.000408163"
       smooth_angles="360"
       helper_size="0"
       simplify_individual_paths="false"
       simplify_just_coalesce="false"
       simplifyindividualpaths="false"
       simplifyJustCoalesce="false" />
    <inkscape:path-effect
       effect="simplify"
       id="path-effect28"
       is_visible="true"
       steps="1"
       threshold="0.000408163"
       smooth_angles="360"
       helper_size="0"
       simplify_individual_paths="false"
       simplify_just_coalesce="false"
       simplifyindividualpaths="false"
       simplifyJustCoalesce="false" />
  </defs>
  <sodipodi:namedview
     id="base"
     pagecolor="#ffffff"
     bordercolor="#666666"
     borderopacity="1.0"
     inkscape:pageopacity="0.0"
     inkscape:pageshadow="2"
     inkscape:zoom="11.313709"
     inkscape:cx="32.672794"
     inkscape:cy="34.802075"
     inkscape:document-units="mm"
     inkscape:current-layer="layer1"
     showgrid="false"
     units="px"
     inkscape:window-width="1853"
     inkscape:window-height="1025"
     inkscape:window-x="67"
     inkscape:window-y="27"
     inkscape:window-maximized="1" />
  <metadata
     id="metadata5">
    <rdf:RDF>
      <cc:Work
         rdf:about="">
        <dc:format>image/svg+xml</dc:format>
        <dc:type
           rdf:resource="http://purl.org/dc/dcmitype/StillImage" />
        <dc:title></dc:title>
      </cc:Work>
    </rdf:RDF>
  </metadata>
  <g
     inkscape:label="Layer 1"
     inkscape:groupmode="layer"
     id="layer1"
     transform="translate(0,-280.06665)">
    <path
       style="fill:none;stroke:#280b0b;stroke-width:0.26458332;stroke-opacity:1"
       inkscape:path-effect="#path-effect28"
       inkscape:original-d="m 14.475986,294.66137 c -0.46647,-0.008 -0.901935,0.19376 -1.379769,0.1404 -0.486603,-0.0515 -0.981305,-0.18741 -1.528846,-0.1872 -0.79204,-0.019 -1.5782149,0.0967 -2.3532167,0.2106 -0.6211321,0.24535 -1.3106672,0.27301 -1.964429,0.3744 -0.8257344,-0.008 -1.6483562,-0.036 -2.4775061,-0.0234 -0.5172082,0.002 -1.0249928,0.076 -1.5448984,0.0702 -0.3979277,0.0435 -0.820522,0.0304 -1.2160752,0 -0.097924,-0.21475 -0.055967,-0.64098 -0.11693,-0.92817 -0.021713,-0.63451 -0.037426,-1.27015 0,-1.90434 0.060206,-0.5866 0.1489954,-1.17033 0.11693,-1.76691 -0.058822,-0.79955 0.012421,-1.62073 -0.046772,-2.41601 0.063988,-0.4296 -0.012051,-0.87551 -0.023189,-1.30957 -0.1013648,-0.34482 -0.1939933,-0.63911 -0.1872847,-1.00585 -0.02778,-0.27677 0.039574,-0.61552 -0.094912,-0.89021 0.5301857,0.1075 1.1922692,0.22856 1.7787096,0.0949 0.8480211,-0.096 1.6599152,-0.3572 2.4786179,-0.58619 0.9172867,-0.16555 1.8925135,-0.18322 2.8343886,-0.0813 0.7412761,0.0935 1.4777932,0.24212 2.2233842,0.32098 0.580241,0.0522 1.124258,0.24664 1.701103,0.25311 0.499745,-0.0478 1.013257,-0.013 1.518993,-0.0227 0.326132,0.11125 0.914577,-0.36416 0.632528,0.27983 -0.0633,0.49338 -0.08846,0.98633 -0.04678,1.48339 0.02208,0.78426 0.09959,1.56378 0.09356,2.35152 -0.05881,0.62156 -0.01261,1.25661 0.02339,1.871 -0.07267,0.40533 -0.03776,0.81588 0,1.2251 0.08239,0.59751 -0.102883,1.16377 -0.07017,1.76583 -0.04409,0.19524 0.09004,0.53236 -0.07017,0.63435 -0.07111,0.062 -0.333346,0.0727 -0.397569,0.0234"
       id="path26"
       d="m 14.475986,294.66137 c -0.350344,-0.006 -0.687459,0.10481 -1.033597,0.14037 -0.137933,0.0142 -0.277062,0.009 -0.414659,-0.008 -0.415818,-0.0514 -0.825686,-0.14938 -1.244889,-0.17282 -0.152025,-0.009 -0.304399,-0.01 -0.456608,-0.008 -0.708964,0.006 -1.453929,-0.0474 -2.1120787,0.21236 -0.4266494,0.16841 -0.8839875,0.23404 -1.3364219,0.29107 -0.2095092,0.0264 -0.4168192,0.0854 -0.6280071,0.0833 -0.8862859,-0.009 -1.7728766,-0.0489 -2.6589835,-0.02 -0.4548329,0.0149 -0.9104606,0.018 -1.363421,0.0668 -0.4039879,0.0435 -1.0560148,0.37265 -1.2160752,0 -0.051602,-0.12014 -0.06021,-0.25294 -0.069045,-0.38175 -0.012506,-0.18232 -0.041668,-0.36309 -0.047885,-0.54642 -0.021594,-0.63672 -0.064825,-1.27701 7.068e-4,-1.91121 0.058984,-0.57083 0.1569926,-1.14337 0.1182806,-1.71811 -0.014884,-0.22098 -0.023539,-0.44235 -0.026081,-0.66383 -0.00686,-0.598 -0.1103091,-1.2018 -0.022748,-1.79411 0.051205,-0.34638 0.012931,-0.69683 -0.010086,-1.04383 -0.00587,-0.0885 0.012072,-0.18069 -0.013103,-0.26574 -0.085054,-0.28735 -0.1713832,-0.57816 -0.1856964,-0.8797 -0.00304,-0.0641 -0.00338,-0.12795 -0.0065,-0.19209 -0.011327,-0.23261 0.020864,-0.47068 -0.042484,-0.69812 -0.012071,-0.0433 -0.091628,-0.1351 -0.047518,-0.12615 0.4437162,0.09 0.8948297,0.1712 1.3494196,0.15069 0.1443034,-0.007 0.2856661,-0.0396 0.42929,-0.0558 0.7371255,-0.0833 1.4501514,-0.29726 2.1622577,-0.49645 0.1090361,-0.0305 0.2156959,-0.0718 0.3271123,-0.0917 0.9087319,-0.16167 1.841056,-0.18831 2.7573571,-0.0863 0.2718143,0.0303 0.5421587,0.0725 0.8122599,0.11513 0.5250705,0.0829 1.0507835,0.16178 1.5790395,0.22339 0.509453,0.0594 1.005065,0.20308 1.518558,0.24043 0.05251,0.004 0.104746,-4.2e-4 0.157146,-0.005 0.48015,-0.0378 0.984452,-0.16187 1.442756,-0.016 0.116815,0.0372 0.240689,0.007 0.356904,-0.0176 0.08731,-0.0188 0.174073,-0.0439 0.264326,-0.0476 0.04639,-0.002 0.08524,0.036 0.08538,0.0831 2.63e-4,0.0867 -0.03617,0.16792 -0.06763,0.24705 -0.01414,0.0356 -0.01407,0.0753 -0.01855,0.11318 -0.05426,0.4592 -0.04773,0.92239 -0.03468,1.3851 0.02211,0.7842 0.167101,1.56993 0.09356,2.35152 -0.05859,0.62271 0.133621,1.2572 0.02339,1.871 -0.07273,0.40496 -0.0566,0.82065 0,1.2251 0.04835,0.34552 0.0042,0.6943 -0.03392,1.03846 -0.02675,0.24132 0.01059,0.48854 -0.03625,0.72737 -0.0225,0.11472 0.002,0.23131 0.0081,0.34644 0.0044,0.0827 0.0135,0.17532 -0.03562,0.2465 -0.04262,0.0618 -0.119808,0.0826 -0.190252,0.0901 -0.0753,0.008 -0.155532,0.015 -0.226978,-0.013 -0.0081,-0.003 -0.01602,-0.007 -0.02296,-0.0123"
       inkscape:connector-curvature="0" />
    <path
       style="fill:none;stroke:#916f6f;stroke-width:0.26458332;stroke-opacity:1"
       inkscape:path-effect="#path-effect32"
       inkscape:original-d="m 10.219718,284.76906 c -0.05948,-0.21802 -0.160006,-0.4187 -0.257273,-0.60833 -0.040249,-0.15606 -0.1990271,-0.30015 -0.280635,-0.4914 -0.1233201,-0.18451 -0.2034822,-0.40501 -0.444338,-0.4913 -0.2328276,-0.11536 -0.4536278,-0.17439 -0.724972,-0.234 -0.4592899,0.0139 -0.9514406,-0.0514 -1.3563939,0.0936 -0.1966713,0.1315 -0.4413631,0.14712 -0.60804,0.351 -0.187325,0.12157 -0.2590299,0.26829 -0.3974656,0.32086 -0.120491,0.17304 -0.2351607,0.25996 -0.2807334,0.47464 -0.011555,0.22027 -0.1970347,0.19482 -0.210476,0.3978 -0.067163,0.0636 0.020876,-0.19716 -0.046772,-0.2339"
       id="path30"
       d="m 10.219718,284.76906 c -0.0581,-0.21332 -0.200484,-0.39556 -0.257273,-0.60833 -0.022967,-0.0861 -0.07473,-0.16029 -0.1248079,-0.2325 -0.057397,-0.0828 -0.099545,-0.17478 -0.1558271,-0.2589 -0.077112,-0.11525 -0.1368494,-0.24284 -0.2304179,-0.34658 -0.058232,-0.0646 -0.1359403,-0.10578 -0.2139201,-0.14472 -0.1628384,-0.0813 -0.3363637,-0.13904 -0.512443,-0.18407 -0.070508,-0.018 -0.1397891,-0.0521 -0.212529,-0.0499 -0.3059509,0.009 -0.6124804,-0.0169 -0.9180314,0.007 -0.1487017,0.0118 -0.3141198,0.003 -0.4383625,0.0863 -0.1443665,0.0968 -0.3193495,0.13246 -0.4657293,0.22564 -0.053535,0.0341 -0.088769,0.0912 -0.1423107,0.12536 -0.082935,0.053 -0.1530098,0.12275 -0.2225472,0.19176 -0.051449,0.0511 -0.1333071,0.0682 -0.1749184,0.1291 -0.062973,0.0922 -0.1407268,0.17361 -0.1994693,0.2688 -0.038959,0.0631 -0.078524,0.13175 -0.081264,0.20584 -0.00213,0.0576 -0.022006,0.11479 -0.059518,0.15931 -0.040087,0.0476 -0.094344,0.0832 -0.1243715,0.1391 -0.016388,0.0305 -0.00637,0.0715 -0.026586,0.0994 -0.00566,0.008 -0.023039,0.016 -0.02505,9.1e-4 -0.00541,-0.0405 0.0051,-0.0813 0.00482,-0.12189 -2.587e-4,-0.0374 0.00741,-0.0877 -0.026538,-0.11292"
       inkscape:connector-curvature="0" />
    <path
       style="fill:none;stroke:#2b1100;stroke-width:0.26458332;stroke-opacity:1"
       inkscape:path-effect="#path-effect36"
       inkscape:original-d="m 9.5649559,283.47897 c -0.3116748,-0.41986 0.038099,-0.70638 0.3039727,-0.97855 0.1568994,-0.1422 0.4035674,-0.3133 0.5379014,-0.5382 0.216187,-0.17266 0.398912,-0.25848 0.58469,-0.4679 0.0885,-0.0959 0.185031,-0.24836 0.30405,-0.2808 -0.0064,-0.0425 0.04271,-0.007 0.02339,-0.0702"
       id="path34"
       d="m 9.5649559,283.47897 c -0.058305,-0.0785 -0.1045813,-0.16844 -0.118652,-0.26622 -0.011763,-0.0817 0.00332,-0.16575 0.036271,-0.24103 0.044354,-0.10133 0.1147151,-0.18848 0.1890041,-0.26934 0.063699,-0.0693 0.1273246,-0.13907 0.1973493,-0.20196 0.089142,-0.0801 0.1838394,-0.15367 0.2728134,-0.23394 0.0985,-0.0889 0.180178,-0.19367 0.261919,-0.299 0.01277,-0.0165 0.03171,-0.0277 0.04829,-0.0405 0.131529,-0.10106 0.273944,-0.18754 0.40024,-0.29551 0.07447,-0.0637 0.140432,-0.13646 0.203068,-0.21166 0.04917,-0.059 0.0974,-0.12068 0.160149,-0.16601 0.02432,-0.0176 0.08881,-0.0114 0.08016,-0.0403 -0.0037,-0.0122 0.0048,-0.0224 0.01654,-0.0273 0.01761,-0.007 0.01062,-0.0291 0.0069,-0.0429"
       inkscape:connector-curvature="0" />
    <path
       style="fill:none;stroke:#2b1100;stroke-width:0.26458332;stroke-opacity:1"
       inkscape:path-effect="#path-effect40"
       inkscape:original-d="m 6.758578,283.10865 c -0.2445076,-0.0657 -0.5376295,-0.14332 -0.7548521,-0.33674 -0.271924,-0.0506 -0.6653387,-0.37991 -0.849854,-0.52674 -0.213697,-0.12718 -0.4053243,-0.38654 -0.4979866,-0.50969 -0.035436,-0.041 -0.2004348,-0.10874 -0.1657524,-0.12426"
       id="path38"
       d="m 6.758578,283.10865 c -0.166865,-0.0446 -0.3346117,-0.0907 -0.4910323,-0.16537 -0.094875,-0.0453 -0.1603985,-0.15144 -0.2638198,-0.17137 -0.080607,-0.0155 -0.156657,-0.0487 -0.2288801,-0.0868 -0.1306731,-0.069 -0.2521226,-0.15392 -0.3700594,-0.24256 -0.085076,-0.0639 -0.1596774,-0.1426 -0.2509145,-0.19737 -0.09466,-0.0568 -0.1770969,-0.13168 -0.2529028,-0.21139 -0.088784,-0.0934 -0.1521714,-0.20923 -0.2450838,-0.2983 -0.037865,-0.0363 -0.088262,-0.0556 -0.1312308,-0.0848 -0.013645,-0.009 -0.029886,-0.0169 -0.03881,-0.0314 0,0 0.00429,-0.008 0.00429,-0.008"
       inkscape:connector-curvature="0" />
    <path
       style="fill:none;stroke:#ac9393;stroke-width:0.26458332;stroke-opacity:1"
       inkscape:path-effect="#path-effect56"
       inkscape:original-d="m 8.0915848,286.40609 c -0.3213014,0.006 -0.6039873,-0.0164 -0.912057,0 -0.2876391,0.0481 -0.6597085,0.005 -0.9588302,0.0936 -0.2996298,0.0306 -0.6033223,0.14651 -0.8886705,0.2106 -0.2060706,0.11054 -0.3541443,0.15393 -0.514494,0.3041 -0.1387919,0.12283 -0.2844614,0.19921 -0.397564,0.3042 -0.1851634,0.0802 -0.3489954,0.21371 -0.514494,0.3977 -0.122401,0.17607 -0.3179584,0.38554 -0.397565,0.5849 -0.095168,0.1995 -0.1808982,0.45458 -0.257248,0.702 -0.1083741,0.38815 -0.1868034,0.77839 -0.163704,1.19312 -0.061941,0.28359 0.05781,0.57675 0.046772,0.86556 0.052349,0.37212 0.041428,0.76068 0.07016,1.13272 0.060441,0.27824 -0.014712,0.6297 0.046772,0.87884 0.064283,0.16743 0.2619704,0.25302 0.3441335,0.32745 0.2349194,0.11702 0.4073926,0.24487 0.6614725,0.32775 0.1773636,0.12629 0.3758113,0.16033 0.584653,0.2574 0.3396987,0.10038 0.755206,0.0817 1.1225296,0.0468 0.3847217,-0.0874 0.8697302,-0.15813 1.1693022,-0.2574 0.432398,-0.0979 0.8763125,-0.12725 1.3096185,-0.234 0.3847331,-0.015 0.736254,-0.11273 1.1225314,-0.117 0.3882134,-0.05 0.8454292,-0.0155 1.2125522,-0.018 0.527091,0.065 1.046104,-0.0412 1.570371,-0.0522 0.383179,-0.0553 0.768361,-0.10693 1.099157,-0.3276 0.239211,-0.16071 0.280401,-0.52213 0.37422,-0.79552 0.05158,-0.31405 0.14598,-0.65749 0.11695,-0.98235 -0.01363,-0.39221 0.04784,-0.77048 0,-1.15591 -0.0043,-0.35936 -0.05744,-0.69752 -0.184326,-1.01934 -0.138068,-0.29718 -0.308173,-0.50958 -0.400354,-0.81886 -0.07227,-0.27958 -0.245164,-0.58741 -0.32741,-0.81884 -0.22019,-0.23304 -0.429408,-0.40486 -0.725,-0.4913 -0.301955,-0.0748 -0.6081,-0.142 -0.912067,-0.2106 -0.458792,-0.0236 -0.856628,-0.22002 -1.332995,-0.1872 -0.2952537,-0.0756 -0.6088626,-0.0456 -0.9028368,-0.0936 -0.2696576,-0.009 -0.5118549,0.009 -0.7575775,0.0234 -0.087534,-0.0841 -0.224986,0.0903 -0.3040019,-0.0704 z"
       id="path54"
       d="m 8.0915848,286.40609 c -0.3040195,0.006 -0.6114741,-0.0476 -0.912057,0 -0.2240396,0.0355 -0.4518961,0.0229 -0.677255,0.0437 -0.094993,0.009 -0.1865302,0.04 -0.2815752,0.0499 -0.304328,0.0318 -0.6213571,0.065 -0.8886705,0.2106 -0.1605127,0.0874 -0.3409806,0.1454 -0.4771033,0.27078 -0.070854,0.0653 -0.1478957,0.12322 -0.2266275,0.17866 -0.071391,0.0503 -0.1279665,0.12417 -0.2083272,0.15886 -0.2017641,0.0871 -0.389732,0.21945 -0.514494,0.3977 -0.1225332,0.17507 -0.2789419,0.3291 -0.3699199,0.52389 -0.042786,0.0916 -0.08413,0.18402 -0.1203635,0.27849 -0.063343,0.16516 -0.1221355,0.33234 -0.1695874,0.50272 -0.1010911,0.36297 -0.2200048,0.74266 -0.1612327,1.11676 0.00771,0.0491 -0.00635,0.0963 -0.010991,0.14485 -0.020907,0.2188 0.037218,0.43351 0.057642,0.65002 0.00431,0.0457 -0.0023,0.0923 0.00392,0.13757 0.051152,0.37257 -0.00768,0.7565 0.068945,1.124 0.040182,0.19273 0.020779,0.39059 0.02076,0.58576 -9.4e-6,0.0981 -0.00961,0.20119 0.026012,0.29308 0.04261,0.10993 0.1409544,0.1832 0.2347342,0.24808 0.037032,0.0256 0.068957,0.0593 0.1093993,0.0794 0.2075847,0.10302 0.3924492,0.2656 0.6204961,0.31376 0.038022,0.008 0.067254,0.033 0.099916,0.0523 0.1645004,0.0973 0.3431329,0.16609 0.5257129,0.21907 0.2545595,0.0739 0.5227782,0.082 0.7858863,0.0709 0.1124212,-0.005 0.2269388,8.6e-4 0.3366433,-0.0241 0.3430299,-0.0781 0.6904773,-0.13475 1.0327136,-0.21709 0.064717,-0.0156 0.1271843,-0.0387 0.1923894,-0.0526 0.415358,-0.0884 0.8290123,-0.20578 1.2538177,-0.22175 0.3766625,-0.0142 0.7479032,-0.0706 1.1225314,-0.117 0.3762881,-0.0466 0.7560562,-0.0108 1.1338312,-0.018 0.04702,-8.9e-4 0.0936,0.002 0.140453,0.007 0.378309,0.0376 0.757497,-0.009 1.134585,-0.0386 0.124491,-0.01 0.250437,-0.003 0.374054,-0.0205 0.296384,-0.0428 0.599428,-0.0813 0.874855,-0.20524 0.08983,-0.0404 0.180012,-0.084 0.256662,-0.14625 0.111595,-0.0906 0.173416,-0.22584 0.218803,-0.35889 0.04638,-0.13596 0.09968,-0.27101 0.123057,-0.41274 0.04831,-0.29291 0.130087,-0.58394 0.12215,-0.88284 -0.0019,-0.0699 -0.007,-0.13949 -0.0072,-0.20947 -0.0012,-0.34858 0.0058,-0.69561 0.002,-1.04595 -0.0038,-0.34911 -0.04033,-0.70822 -0.187568,-1.02629 -0.117334,-0.25348 -0.285346,-0.48233 -0.37655,-0.74804 -0.02537,-0.0739 -0.04419,-0.14976 -0.07057,-0.22342 -0.0785,-0.21927 -0.179136,-0.42925 -0.271476,-0.64289 -0.01772,-0.041 -0.05682,-0.0695 -0.08818,-0.10087 -0.150891,-0.15098 -0.32475,-0.28173 -0.522904,-0.36537 -0.07501,-0.0317 -0.154363,-0.0501 -0.233266,-0.0692 -0.265508,-0.064 -0.525867,-0.16961 -0.79865,-0.18289 -0.337806,-0.0164 -0.659386,-0.13383 -0.993491,-0.17577 -0.112491,-0.0141 -0.229587,0.0167 -0.339504,-0.0114 -0.2953174,-0.0756 -0.6000106,-0.0828 -0.9028368,-0.0936 -0.2527751,-0.009 -0.5809344,0.20402 -0.7575775,0.0234 -0.032713,-0.0335 -0.083201,-0.0248 -0.1241325,-0.0143 -0.043268,0.0111 -0.093687,0.027 -0.1344982,9e-5 -0.020484,-0.0135 -0.03469,-0.0345 -0.045371,-0.0562 z"
       inkscape:connector-curvature="0"
       transform="matrix(1,0,0,1.1046802,0,-30.782162)" />
    <path
       style="fill:none;stroke:#280b0b;stroke-width:0.26458332;stroke-opacity:1"
       inkscape:path-effect="#path-effect60"
       inkscape:original-d="m 12.745415,291.17685 c 0.130366,0.30112 -0.01988,0.55532 -0.11696,0.81872 -0.131615,0.17786 -0.178885,0.45659 -0.44437,0.4914 -0.216501,0.12919 -0.496481,0.1541 -0.748381,0.1872 -0.15232,0.0581 -0.223146,0.0283 -0.04677,-0.0702"
       id="path58"
       d="m 12.745415,291.17685 c 0.03533,0.0807 0.05274,0.1691 0.05065,0.25725 -0.0025,0.10648 -0.03236,0.21004 -0.06892,0.30935 -0.03119,0.0847 -0.04527,0.17936 -0.09868,0.25212 -0.05661,0.0771 -0.09489,0.16531 -0.141587,0.24834 -0.03605,0.0641 -0.07794,0.12678 -0.135775,0.17341 -0.04602,0.0371 -0.102087,0.0632 -0.160826,0.0688 -0.01198,0.001 -0.02149,0.01 -0.03184,0.0155 -0.109721,0.06 -0.231251,0.0945 -0.353365,0.11861 -0.122157,0.0241 -0.252338,0.0117 -0.36936,0.0539 -0.04118,0.0149 -0.08387,0.0295 -0.128241,0.0293 -0.01,-5e-5 -0.02794,-0.006 -0.0214,-0.0187 0.01515,-0.0292 0.04559,-0.0465 0.07266,-0.0632 0.0099,-0.006 0.02003,-0.012 0.03021,-0.0177"
       inkscape:connector-curvature="0" />
  </g>
</svg>
