<?xml version="1.0" encoding="UTF-8" standalone="no"?>
<!-- Created with Inkscape (http://www.inkscape.org/) -->

<svg
   xmlns:dc="http://purl.org/dc/elements/1.1/"
   xmlns:cc="http://creativecommons.org/ns#"
   xmlns:rdf="http://www.w3.org/1999/02/22-rdf-syntax-ns#"
   xmlns:svg="http://www.w3.org/2000/svg"
   xmlns="http://www.w3.org/2000/svg"
   xmlns:sodipodi="http://sodipodi.sourceforge.net/DTD/sodipodi-0.dtd"
   xmlns:inkscape="http://www.inkscape.org/namespaces/inkscape"
   width="64"
   height="64"
   viewBox="0 0 16.933333 16.933334"
   version="1.1"
   id="svg8"
   inkscape:version="0.92.4 (fd57863, 2020-04-02)"
   sodipodi:docname="Garbage.svg">
  <defs
     id="defs2">
    <inkscape:path-effect
       effect="simplify"
       id="path-effect171"
       is_visible="true"
       steps="1"
       threshold="0.000408163"
       smooth_angles="360"
       helper_size="0"
       simplify_individual_paths="false"
       simplify_just_coalesce="false"
       simplifyindividualpaths="false"
       simplifyJustCoalesce="false" />
    <inkscape:path-effect
       effect="simplify"
       id="path-effect167"
       is_visible="true"
       steps="1"
       threshold="0.000408163"
       smooth_angles="360"
       helper_size="0"
       simplify_individual_paths="false"
       simplify_just_coalesce="false"
       simplifyindividualpaths="false"
       simplifyJustCoalesce="false" />
    <inkscape:path-effect
       effect="simplify"
       id="path-effect163"
       is_visible="true"
       steps="1"
       threshold="0.000408163"
       smooth_angles="360"
       helper_size="0"
       simplify_individual_paths="false"
       simplify_just_coalesce="false"
       simplifyindividualpaths="false"
       simplifyJustCoalesce="false" />
    <inkscape:path-effect
       effect="simplify"
       id="path-effect159"
       is_visible="true"
       steps="1"
       threshold="0.000408163"
       smooth_angles="360"
       helper_size="0"
       simplify_individual_paths="false"
       simplify_just_coalesce="false"
       simplifyindividualpaths="false"
       simplifyJustCoalesce="false" />
    <inkscape:path-effect
       effect="simplify"
       id="path-effect151"
       is_visible="true"
       steps="1"
       threshold="0.000408163"
       smooth_angles="360"
       helper_size="0"
       simplify_individual_paths="false"
       simplify_just_coalesce="false"
       simplifyindividualpaths="false"
       simplifyJustCoalesce="false" />
    <inkscape:path-effect
       effect="simplify"
       id="path-effect121"
       is_visible="true"
       steps="1"
       threshold="0.000408163"
       smooth_angles="360"
       helper_size="0"
       simplify_individual_paths="false"
       simplify_just_coalesce="false"
       simplifyindividualpaths="false"
       simplifyJustCoalesce="false" />
    <inkscape:path-effect
       effect="simplify"
       id="path-effect113"
       is_visible="true"
       steps="1"
       threshold="0.000408163"
       smooth_angles="360"
       helper_size="0"
       simplify_individual_paths="false"
       simplify_just_coalesce="false"
       simplifyindividualpaths="false"
       simplifyJustCoalesce="false" />
    <inkscape:path-effect
       effect="simplify"
       id="path-effect105"
       is_visible="true"
       steps="1"
       threshold="0.000408163"
       smooth_angles="360"
       helper_size="0"
       simplify_individual_paths="false"
       simplify_just_coalesce="false"
       simplifyindividualpaths="false"
       simplifyJustCoalesce="false" />
    <inkscape:path-effect
       effect="simplify"
       id="path-effect101"
       is_visible="true"
       steps="1"
       threshold="0.000408163"
       smooth_angles="360"
       helper_size="0"
       simplify_individual_paths="false"
       simplify_just_coalesce="false"
       simplifyindividualpaths="false"
       simplifyJustCoalesce="false" />
    <inkscape:path-effect
       effect="simplify"
       id="path-effect89"
       is_visible="true"
       steps="1"
       threshold="0.000408163"
       smooth_angles="360"
       helper_size="0"
       simplify_individual_paths="false"
       simplify_just_coalesce="false"
       simplifyindividualpaths="false"
       simplifyJustCoalesce="false" />
    <inkscape:path-effect
       effect="simplify"
       id="path-effect85"
       is_visible="true"
       steps="1"
       threshold="0.000408163"
       smooth_angles="360"
       helper_size="0"
       simplify_individual_paths="false"
       simplify_just_coalesce="false"
       simplifyindividualpaths="false"
       simplifyJustCoalesce="false" />
    <inkscape:path-effect
       effect="simplify"
       id="path-effect81"
       is_visible="true"
       steps="1"
       threshold="0.000408163"
       smooth_angles="360"
       helper_size="0"
       simplify_individual_paths="false"
       simplify_just_coalesce="false"
       simplifyindividualpaths="false"
       simplifyJustCoalesce="false" />
    <inkscape:path-effect
       effect="simplify"
       id="path-effect77"
       is_visible="true"
       steps="1"
       threshold="0.000408163"
       smooth_angles="360"
       helper_size="0"
       simplify_individual_paths="false"
       simplify_just_coalesce="false"
       simplifyindividualpaths="false"
       simplifyJustCoalesce="false" />
    <inkscape:path-effect
       effect="simplify"
       id="path-effect73"
       is_visible="true"
       steps="1"
       threshold="0.000408163"
       smooth_angles="360"
       helper_size="0"
       simplify_individual_paths="false"
       simplify_just_coalesce="false"
       simplifyindividualpaths="false"
       simplifyJustCoalesce="false" />
    <inkscape:path-effect
       effect="simplify"
       id="path-effect69"
       is_visible="true"
       steps="1"
       threshold="0.000408163"
       smooth_angles="360"
       helper_size="0"
       simplify_individual_paths="false"
       simplify_just_coalesce="false"
       simplifyindividualpaths="false"
       simplifyJustCoalesce="false" />
    <inkscape:path-effect
       effect="simplify"
       id="path-effect65"
       is_visible="true"
       steps="1"
       threshold="0.000408163"
       smooth_angles="360"
       helper_size="0"
       simplify_individual_paths="false"
       simplify_just_coalesce="false"
       simplifyindividualpaths="false"
       simplifyJustCoalesce="false" />
    <inkscape:path-effect
       effect="simplify"
       id="path-effect61"
       is_visible="true"
       steps="1"
       threshold="0.000408163"
       smooth_angles="360"
       helper_size="0"
       simplify_individual_paths="false"
       simplify_just_coalesce="false"
       simplifyindividualpaths="false"
       simplifyJustCoalesce="false" />
    <inkscape:path-effect
       effect="simplify"
       id="path-effect57"
       is_visible="true"
       steps="1"
       threshold="0.000408163"
       smooth_angles="360"
       helper_size="0"
       simplify_individual_paths="false"
       simplify_just_coalesce="false"
       simplifyindividualpaths="false"
       simplifyJustCoalesce="false" />
    <inkscape:path-effect
       effect="simplify"
       id="path-effect53"
       is_visible="true"
       steps="1"
       threshold="0.000408163"
       smooth_angles="360"
       helper_size="0"
       simplify_individual_paths="false"
       simplify_just_coalesce="false"
       simplifyindividualpaths="false"
       simplifyJustCoalesce="false" />
    <inkscape:path-effect
       effect="simplify"
       id="path-effect45"
       is_visible="true"
       steps="1"
       threshold="0.000408163"
       smooth_angles="360"
       helper_size="0"
       simplify_individual_paths="false"
       simplify_just_coalesce="false"
       simplifyindividualpaths="false"
       simplifyJustCoalesce="false" />
    <inkscape:path-effect
       effect="simplify"
       id="path-effect41"
       is_visible="true"
       steps="1"
       threshold="0.000408163"
       smooth_angles="360"
       helper_size="0"
       simplify_individual_paths="false"
       simplify_just_coalesce="false"
       simplifyindividualpaths="false"
       simplifyJustCoalesce="false" />
    <inkscape:path-effect
       effect="simplify"
       id="path-effect37"
       is_visible="true"
       steps="1"
       threshold="0.000408163"
       smooth_angles="360"
       helper_size="0"
       simplify_individual_paths="false"
       simplify_just_coalesce="false"
       simplifyindividualpaths="false"
       simplifyJustCoalesce="false" />
    <inkscape:path-effect
       effect="simplify"
       id="path-effect33"
       is_visible="true"
       steps="1"
       threshold="0.000408163"
       smooth_angles="360"
       helper_size="0"
       simplify_individual_paths="false"
       simplify_just_coalesce="false"
       simplifyindividualpaths="false"
       simplifyJustCoalesce="false" />
    <inkscape:path-effect
       effect="simplify"
       id="path-effect29"
       is_visible="true"
       steps="1"
       threshold="0.000408163"
       smooth_angles="360"
       helper_size="0"
       simplify_individual_paths="false"
       simplify_just_coalesce="false"
       simplifyindividualpaths="false"
       simplifyJustCoalesce="false" />
  </defs>
  <sodipodi:namedview
     id="base"
     pagecolor="#ffffff"
     bordercolor="#666666"
     borderopacity="1.0"
     inkscape:pageopacity="0.0"
     inkscape:pageshadow="2"
     inkscape:zoom="11.313709"
     inkscape:cx="26.189859"
     inkscape:cy="35.324849"
     inkscape:document-units="mm"
     inkscape:current-layer="layer1"
     showgrid="false"
     units="px"
     inkscape:window-width="1853"
     inkscape:window-height="1025"
     inkscape:window-x="67"
     inkscape:window-y="27"
     inkscape:window-maximized="1" />
  <metadata
     id="metadata5">
    <rdf:RDF>
      <cc:Work
         rdf:about="">
        <dc:format>image/svg+xml</dc:format>
        <dc:type
           rdf:resource="http://purl.org/dc/dcmitype/StillImage" />
        <dc:title></dc:title>
      </cc:Work>
    </rdf:RDF>
  </metadata>
  <g
     inkscape:label="Layer 1"
     inkscape:groupmode="layer"
     id="layer1"
     transform="translate(0,-280.06665)">
    <path
       style="fill:none;stroke:#71c837;stroke-width:0.26458332;stroke-opacity:1"
       inkscape:path-effect="#path-effect167"
       inkscape:original-d="m 12.347852,287.27137 c 0.07311,0.0953 -0.04566,-0.0315 0.0071,-0.0805 -0.01408,-0.26123 -0.0041,-0.52326 -0.0071,-0.78489 0.0306,-0.11704 -0.0099,-0.24038 0.02941,-0.35578 -0.0097,-0.17567 0.205103,-0.17151 0.2603,-0.30367 0.02968,-0.10868 0.07626,-0.22974 0.132964,-0.31264 l -0.01382,-6e-4 -0.02305,0.002"
       id="path165"
       d="m 12.347852,287.27137 c 0.0084,0.0113 0.03274,0.046 0.02453,0.0345 -0.01903,-0.0267 -0.03776,-0.0603 -0.02989,-0.0936 0.0019,-0.008 0.01291,-0.0131 0.01245,-0.0214 -0.01408,-0.26142 -0.07342,-0.5318 -0.0071,-0.78489 0.0167,-0.0637 0.0123,-0.13019 0.01109,-0.19534 -0.001,-0.0539 0.02257,-0.1062 0.01832,-0.16044 -0.0033,-0.0425 0.01121,-0.0859 0.04067,-0.11718 0.03595,-0.0381 0.08376,-0.0613 0.127313,-0.0893 0.03601,-0.0231 0.07546,-0.0497 0.08961,-0.0911 0.01124,-0.0329 0.0201,-0.0667 0.0316,-0.0996 0.02463,-0.0704 0.05383,-0.13978 0.09355,-0.20315 0,0 0.0052,-0.008 0.0052,-0.008 0,0 0.0053,-0.008 0.0053,-0.008 -0.0051,-1e-4 -0.01022,-9.1e-4 -0.01529,-4.7e-4 -0.0072,6.2e-4 -0.01438,0.001 -0.02158,0.002"
       inkscape:connector-curvature="0" />
    <path
       style="fill:none;stroke:#71c837;stroke-width:0.26458332;stroke-opacity:1"
       inkscape:path-effect="#path-effect163"
       inkscape:original-d="m 11.61077,284.52418 c -0.08692,0.0349 -0.208259,0.026 -0.25644,0.12162 -0.04023,0.20859 0.02325,0.42688 -0.03611,0.63385 -0.06655,0.1228 -0.111383,0.25997 -0.1023,0.40109 -0.0018,0.15306 -0.013,0.309 -0.07114,0.45208 -0.04674,0.20507 -0.06162,0.43009 -0.189587,0.60491 -0.01085,0.0112 -0.02313,-0.003 -0.02225,-0.0149"
       id="path161"
       d="m 11.61077,284.52418 c -0.0627,0.0249 -0.132812,0.0265 -0.19312,0.0581 -0.02691,0.0141 -0.05755,0.0336 -0.06332,0.0636 -0.02205,0.11456 -0.01308,0.23172 -0.01,0.34748 0.0026,0.0959 0.01993,0.20143 -0.0261,0.28637 -0.05392,0.0995 -0.09222,0.20875 -0.101935,0.3222 -0.0037,0.043 -1.37e-4,0.0861 -0.0013,0.1292 -0.0035,0.12429 -0.0085,0.2529 -0.05738,0.36801 -0.02034,0.0479 -0.027,0.0999 -0.03667,0.15075 -0.02242,0.11775 -0.04288,0.23704 -0.08867,0.34849 -0.02022,0.0492 -0.04555,0.0965 -0.07704,0.13943 0,0 -0.0082,0.004 -0.0082,0.004 -0.0093,-5.3e-4 -0.01445,-0.0107 -0.01407,-0.019"
       inkscape:connector-curvature="0"
       transform="translate(0.012056,-0.12968)" />
    <path
       style="fill:none;stroke:#71c837;stroke-width:0.26458332;stroke-opacity:1"
       d="m 12.125684,281.12083 c -0.005,0.0303 0.0018,0.0655 -0.01615,0.0912 -0.0081,0.0116 -0.01747,0.0222 -0.02298,0.0358 -0.0066,0.0163 -0.0025,0.0434 -0.01908,0.0491 -0.0067,0.002 -0.0091,0.0103 -0.01279,0.0158 -0.01882,0.0277 -0.03042,0.059 -0.0493,0.0869 -0.0106,0.0157 -0.01876,0.0332 -0.0248,0.0511 0,0 0.0059,-0.004 0.0059,-0.004 0,0 0.0024,-0.003 0.0024,-0.003 -0.01634,0.0253 -0.03694,0.048 -0.05034,0.0749 -0.01397,0.028 -0.01869,0.0591 -0.03236,0.0876 -0.01442,0.0302 -0.02192,0.0625 -0.03571,0.0934 -0.0044,0.01 -0.0011,0.0211 -0.0019,0.0315 0,0 1.79e-4,0.007 1.79e-4,0.007 0,0 1.8e-4,0.005 1.8e-4,0.005 0,0 -6e-5,1.1e-4 -6e-5,1.1e-4 0,0 -0.0032,-0.004 -0.0032,-0.004 -0.0094,0.0164 -0.01205,0.0359 -0.0083,0.0544 0.0026,0.0127 -0.005,0.0234 -0.0099,0.0348 -0.0062,0.0143 -0.0038,0.0305 -0.0032,0.0456 0.001,0.024 7.43e-4,0.0481 7.43e-4,0.0721 0,0.0135 0.0018,0.0271 0,0.0405 -0.0048,0.0363 0.01963,0.0672 0.03309,0.0991 0.0072,0.0171 -0.0025,0.0359 0.0065,0.0534 0.0076,0.0147 0.02254,0.0284 0.01905,0.0465 -0.0038,0.0197 0.01316,0.0357 0.01202,0.0554 -7.38e-4,0.0128 -0.0041,0.0277 0.0054,0.0382 0.0151,0.0167 -0.0016,0.0402 0.01169,0.0585 0.01277,0.0176 0.0055,0.0403 0.0058,0.0602 9.3e-5,0.005 -3.33e-4,0.0106 6.38e-4,0.0158 0,0 -6.38e-4,0.006 -6.38e-4,0.006 0,0 -0.0058,0.006 -0.0058,0.006 0,0 -0.0058,0.006 -0.0058,0.006 -0.0036,0.009 0.005,0.0191 -0.0027,0.0275 -0.01443,0.0157 -0.0313,0.0281 -0.0419,0.0481 -0.01157,0.0218 -0.01887,0.0464 -0.03769,0.0645 -0.0047,0.004 -0.0139,0.01 -0.01126,0.0176 0,0 0,0.006 0,0.006 -0.0053,0.0103 -0.02147,0.012 -0.02339,0.0234 -0.0011,0.006 0.0035,0.0148 -0.0058,0.0177 0,0 -0.0058,0.006 -0.0058,0.006 -0.0038,0.01 0.0073,0.0231 -0.0058,0.0294 0,0 -0.0058,0.006 -0.0058,0.006 -0.0018,0.0272 0.0014,0.0546 0,0.0819 0,0 -0.0058,0 -0.0058,0 0,0 -0.0058,0 -0.0058,0 -0.0015,0.0126 0.0037,0.0262 -0.0019,0.0382 0,0 -0.0037,0.001 -0.0037,0.001 0,0 -0.006,-0.004 -0.006,-0.004 0,0 -0.0023,-0.008 -0.0023,-0.008 0.0034,-0.0128 0.01452,-0.0219 0.01513,-0.0361 3.85e-4,-0.009 -0.0012,-0.0176 -0.0012,-0.0265"
       id="path157"
       inkscape:connector-curvature="0"
       inkscape:path-effect="#path-effect159"
       inkscape:original-d="m 12.125684,281.12083 c -0.0039,0.0273 -0.0038,0.0555 -0.01169,0.0818 -0.004,0.0135 -0.0171,0.0225 -0.02339,0.0351 -0.04604,0.11512 -6.7e-5,0.0118 -0.04677,0.0935 -0.0087,0.0151 -0.01474,0.0316 -0.02339,0.0468 -0.007,0.0122 -0.0171,0.0225 -0.02339,0.0351 -0.04841,0.0968 0.03194,-0.0304 -0.03508,0.0702 -0.0078,0.0117 -0.0171,0.0225 -0.02339,0.0351 -0.01103,0.022 -0.01423,0.0473 -0.02339,0.0702 -0.0032,0.008 -0.0085,0.0153 -0.01169,0.0234 -0.0092,0.0229 -0.01423,0.0473 -0.02339,0.0702 -0.0032,0.008 -0.01,0.0148 -0.01169,0.0234 0,0.0892 0.0052,-0.009 -0.01169,0.0585 -0.0038,0.0151 0.0038,0.0316 0,0.0468 -0.0021,0.008 -0.0096,0.0149 -0.01169,0.0234 -0.0023,0.009 0,0.058 0,0.0702 0,0.0273 0,0.0546 0,0.0819 0,0.008 -0.0015,0.0157 0,0.0234 0.0048,0.0241 0.01299,0.0377 0.02339,0.0585 0.0039,0.008 0.01,0.0148 0.01169,0.0234 0.0023,0.0115 -0.0023,0.0236 0,0.0351 0.0034,0.0171 0.01916,0.0299 0.02339,0.0468 0.0019,0.008 -0.0015,0.0157 0,0.0234 0.0024,0.0121 0.0097,0.0229 0.01169,0.0351 0.0019,0.0115 -0.0023,0.0236 0,0.0351 0.0017,0.009 0.01,0.0148 0.01169,0.0234 0.0023,0.0115 -0.0023,0.0236 0,0.0351 0.0017,0.009 0.01,0.0148 0.01169,0.0234 0.0031,0.0153 0,0.0312 0,0.0468 0,0.004 0,0.008 0,0.0117 0,0.004 0.0017,0.008 0,0.0117 -0.0025,0.005 -0.0092,0.007 -0.01169,0.0117 -0.0035,0.007 0.0035,0.0164 0,0.0234 -0.0052,0.0104 -0.02798,0.0244 -0.03508,0.0351 -0.01439,0.0216 -0.02069,0.0486 -0.03508,0.0702 -0.0061,0.009 -0.01846,0.0135 -0.02339,0.0234 -0.0017,0.003 0.0017,0.008 0,0.0117 -0.0049,0.01 -0.01846,0.0135 -0.02339,0.0234 -0.0017,0.003 0.0017,0.008 0,0.0117 -0.0025,0.005 -0.0092,0.007 -0.01169,0.0117 -0.0035,0.007 0.0035,0.0164 0,0.0234 -0.0025,0.005 -0.0092,0.007 -0.01169,0.0117 -0.0018,0.004 0,0.0298 0,0.0351 0,0.004 4.76e-4,0.0463 0,0.0468 -0.0028,0.003 -0.0089,-0.003 -0.01169,0 -0.0023,0.002 0.0079,0.0547 -0.01169,0.0351 -0.0087,-0.009 0.0087,-0.0231 0.01169,-0.0351 0.0028,-0.0113 0,-0.0234 0,-0.0351" />
    <path
       style="fill:none;stroke:#71c837;stroke-width:0.26458332;stroke-opacity:1"
       inkscape:path-effect="#path-effect171"
       inkscape:original-d="m 12.944106,284.2657 c 0.09284,-0.0376 0.191496,-0.0649 0.292411,-0.0579 0.03135,-0.0667 0.02331,-0.15004 0.04747,-0.22238 -0.0097,-0.0836 0.02618,-0.16254 0.02267,-0.24562 0.02201,-0.0851 0.0075,-0.17488 0.01169,-0.26227 -0.0092,-0.0756 -0.02493,-0.15165 -0.04062,-0.22332 -0.05229,-0.0727 0.01828,-0.13655 0.0309,-0.20652 0.04832,-0.0726 0.103042,-0.12243 0.163831,-0.18428 0.02809,-0.0593 0.05156,-0.12731 0.04468,-0.19944 -6.93e-4,-0.0612 0.0046,-0.12323 -0.01154,-0.18185 -0.03389,-0.0957 -0.03204,-0.20004 -0.0586,-0.29835 -0.01245,-0.0416 4.12e-4,-0.0587 -0.0025,-0.0326 -0.02418,-0.0651 -0.04635,-0.13344 -0.02088,-0.20138 0.0062,-0.0695 0.05672,-0.17019 0.03402,-0.21619 l 0.001,-0.006"
       id="path169"
       d="m 12.944106,284.2657 c 0.08956,-0.0363 0.185465,-0.0632 0.282957,-0.0585 0,0 0.0095,5.6e-4 0.0095,5.6e-4 0.02414,-0.0522 0.02508,-0.11069 0.03427,-0.16649 0.0031,-0.0189 0.01544,-0.0368 0.0132,-0.0559 -0.0079,-0.0673 0.0126,-0.13306 0.02105,-0.19927 0.003,-0.0236 0.0026,-0.0467 0.0069,-0.0704 0.01422,-0.0787 0.01604,-0.15936 0.0064,-0.23822 -0.0092,-0.0752 0.0067,-0.16427 -0.04062,-0.22332 -0.02528,-0.0315 -0.02076,-0.0749 -0.0064,-0.11062 0.01276,-0.0318 0.01832,-0.0669 0.03732,-0.0959 0.04533,-0.0691 0.128487,-0.11011 0.163831,-0.18428 0.02852,-0.0598 0.04844,-0.1255 0.04524,-0.19269 -0.0017,-0.0366 -3.62e-4,-0.0734 -9.24e-4,-0.11006 -6.02e-4,-0.0393 -0.01231,-0.077 -0.02233,-0.1148 -0.02345,-0.0885 -0.03673,-0.17879 -0.04949,-0.2696 -0.0016,-0.0117 -0.0074,-0.0263 -5.84e-4,-0.0369 0,0 5.65e-4,0.004 5.65e-4,0.004 0,0 -4.33e-4,0.008 -4.33e-4,0.008 -0.0185,-0.05 -0.03437,-0.10249 -0.03123,-0.15678 0.0013,-0.0223 0.0092,-0.043 0.01317,-0.0649 0.0093,-0.0515 0.02897,-0.10052 0.03634,-0.15248 0.0021,-0.0152 -0.0073,-0.0302 -0.0049,-0.0449 2.5e-4,-0.002 5e-4,-0.003 7.5e-4,-0.005"
       inkscape:connector-curvature="0" />
    <path
       style="fill:none;stroke:#000000;stroke-width:0.26458332;stroke-opacity:1"
       inkscape:path-effect="#path-effect29"
       inkscape:original-d="m 9.845541,281.77564 c -0.2769127,0.64235 -0.6172136,1.25718 -1.0289849,1.82406 -0.4971785,0.42297 -0.8492118,1.07225 -1.0953879,1.54054 -0.4042969,0.60154 -1.0744699,0.92194 -1.5706199,1.42978 -0.1674853,0.20742 -0.2924598,0.33018 -0.397563,0.5146 -0.1496421,0.20955 -0.2304245,0.41612 -0.3558012,0.64348 -0.1226516,0.17914 -0.3507025,0.58064 -0.4860988,0.76033 -0.294977,0.72817 -0.6176301,1.452 -0.958832,2.15204 -0.2169601,0.36939 -0.5368857,0.70712 -0.678198,1.14632 -0.243321,0.54193 -0.5134692,1.08418 -0.561268,1.68406 -0.042785,0.38742 -0.1167696,0.75613 -0.11693,1.14618 0.1013742,0.14184 0.053968,0.39973 0.210476,0.4679 0.1024922,0.17012 0.3227788,0.2181 0.491109,0.3042 0.1512477,0.0832 0.3519073,0.19526 0.537881,0.2574 0.324796,0.1549 0.707841,0.21712 1.0523719,0.3276 0.5685811,0.01 1.1370146,0.0188 1.6837968,-0.1638 0.445384,0.001 0.9422014,-0.26511 1.4265499,-0.1638 0.6278203,-0.0281 1.2651635,-0.0416 1.870886,-0.234 0.4614971,-0.0379 0.8759131,-0.20361 1.2862321,-0.3042 0.608614,-0.28622 1.270119,-0.41848 1.777357,-0.8658 0.326778,-0.32636 0.601983,-0.78737 0.76709,-1.19273 0.241969,-0.68554 0.119536,-1.43235 0.05426,-2.14093 -0.111159,-0.79353 -0.639972,-1.42162 -0.844715,-2.18622 -0.210452,-0.4385 -0.524327,-0.83992 -0.9822,-1.02943 -0.369682,-0.20347 -0.774148,-0.35116 -1.169286,-0.4914 -0.17842,-0.0501 -0.385502,-0.19039 -0.44437,-0.2808 -0.167434,-0.10648 -0.334093,-0.21149 -0.5379041,-0.3276 -0.1825949,-0.16497 -0.4538891,-0.18961 -0.6782,-0.3042 -0.2062772,-0.055 -0.2772941,-0.14882 -0.491111,-0.2106 -0.1755667,-0.12291 -0.4725611,-0.25413 -0.561269,-0.3977 -0.1942303,-0.19881 -0.3219577,-0.46489 -0.420949,-0.6551 -0.1274559,-0.3345 -0.069078,-0.70651 -0.327406,-1.00576 -0.1311378,-0.33964 -0.5505987,-0.61993 -0.444335,-1.02361 -0.026081,-0.33937 -0.063894,-0.6717 -0.163703,-0.98788 0.06223,-0.24329 -0.1747861,-0.59185 -0.046773,-0.65498 0.2471377,0.0777 0.5250915,0.0912 0.701581,0.3276 0.1725473,0.53155 0.2686273,-0.11041 0.350792,-0.42081 0.010638,-0.39589 0.1655711,-0.62109 0.210475,-0.0469 0.087668,0.43785 0.1967795,0.91939 0.514497,0.32738 0.1526318,-0.20951 0.2539443,-0.34514 0.37418,-0.5381 0.1348388,0.10228 0.067342,0.84603 0.210478,0.65512 0.235389,-0.27871 0.2042681,-0.65475 0.397567,-0.8655 0.1609302,0.27157 0.1805864,0.63729 0.280638,0.88882 -0.063856,0.14713 0.1293626,0.0164 0.1636821,0.0945 z"
       id="path27"
       d="m 9.845541,281.77564 c -0.2767951,0.64222 -0.4974704,1.36897 -1.0289849,1.82406 -0.3138481,0.26872 -0.5587186,0.60741 -0.7717095,0.95884 -0.1150438,0.18982 -0.2002288,0.39729 -0.3236784,0.5817 -0.2079229,0.31059 -0.4976307,0.55333 -0.790324,0.78072 -0.2686735,0.20873 -0.5710718,0.38735 -0.7842136,0.65391 -0.1352928,0.1692 -0.2699739,0.33764 -0.39714,0.51466 -0.143462,0.19971 -0.2193799,0.43924 -0.3552004,0.64281 -0.1630333,0.24436 -0.3178318,0.49377 -0.4735347,0.7431 -0.028676,0.0459 -0.044684,0.0993 -0.065301,0.14947 -0.2803572,0.68267 -0.5288992,1.38537 -0.9057489,2.01989 -0.189191,0.31855 -0.4333351,0.60277 -0.5951671,0.93823 -0.033799,0.0701 -0.054391,0.1457 -0.086191,0.21646 -0.1909337,0.42487 -0.3943829,0.84916 -0.499493,1.30568 -0.030442,0.13222 -0.044595,0.26729 -0.060167,0.40195 -0.042703,0.3693 -0.3247033,0.80293 -0.1128307,1.10991 0.082013,0.11883 0.072618,0.27032 0.1333486,0.39913 0.0228,0.0484 0.070484,0.0656 0.1032249,0.10648 0.093929,0.11726 0.2406272,0.16859 0.3744736,0.22466 0.1140867,0.0478 0.2192764,0.11339 0.3291994,0.16974 0.099291,0.0509 0.2057979,0.0859 0.3068425,0.1331 0.332216,0.15521 0.6802707,0.31757 1.0447489,0.32399 0.4652819,0.008 0.9363234,0.0158 1.3935644,-0.0842 0.09804,-0.0214 0.1898653,-0.0791 0.2902324,-0.0796 0.2457258,-0.001 0.4832226,-0.072 0.7212167,-0.12452 0.2303345,-0.0508 0.4664023,-0.0286 0.7053332,-0.0393 0.5423533,-0.0243 1.0891895,-0.0423 1.6207771,-0.16462 0.086067,-0.0198 0.1677408,-0.0626 0.2555149,-0.0698 0.3630601,-0.0298 0.7117871,-0.14142 1.0589921,-0.24434 0.07587,-0.0225 0.157547,-0.0292 0.228969,-0.0628 0.458821,-0.21555 0.957411,-0.34195 1.397468,-0.59763 0.136518,-0.0793 0.273583,-0.1634 0.384221,-0.27635 0.249252,-0.25447 0.451748,-0.55263 0.612064,-0.86972 0.0554,-0.10957 0.112234,-0.21935 0.151916,-0.33561 0.130229,-0.38155 0.148868,-0.79057 0.128263,-1.19011 -0.01614,-0.31294 -0.03953,-0.62591 -0.08368,-0.93598 -0.05504,-0.3865 -0.216003,-0.74676 -0.385941,-1.09467 -0.171836,-0.3518 -0.286981,-0.72751 -0.457452,-1.08226 -0.151164,-0.31457 -0.35503,-0.61174 -0.633599,-0.82658 -0.10675,-0.0823 -0.230355,-0.13798 -0.348601,-0.20285 -0.374118,-0.20524 -0.771685,-0.36586 -1.17767,-0.49381 -0.141076,-0.0445 -0.273816,-0.11877 -0.38325,-0.2183 -0.03374,-0.0307 -0.05972,-0.0645 -0.09984,-0.09 -0.161484,-0.10265 -0.3485652,-0.16965 -0.4908021,-0.29768 -0.1282568,-0.11545 -0.2984789,-0.16235 -0.4582846,-0.2161 -0.074862,-0.0252 -0.1429781,-0.0697 -0.2199154,-0.0881 -0.1217023,-0.0292 -0.2268923,-0.099 -0.338404,-0.15245 -0.049172,-0.0236 -0.1078903,-0.0271 -0.152707,-0.0582 -0.1577996,-0.10942 -0.3305832,-0.19506 -0.4841944,-0.31171 -0.041759,-0.0317 -0.069075,-0.0763 -0.1039538,-0.11438 -0.1680776,-0.18339 -0.3058453,-0.39626 -0.3940698,-0.62671 -0.1027761,-0.26846 -0.085412,-0.56957 -0.2121864,-0.83048 -0.030645,-0.0631 -0.089179,-0.11016 -0.1152196,-0.17528 -0.1002753,-0.25075 -0.3147196,-0.43449 -0.4180763,-0.68382 -0.044236,-0.10671 -0.017327,-0.22383 -0.026259,-0.33979 -0.025647,-0.33296 -0.2407003,-0.66157 -0.163703,-0.98788 0.028879,-0.12239 -0.00898,-0.24694 -0.03963,-0.36526 -0.019273,-0.0744 -0.043208,-0.1487 -0.04503,-0.22668 -0.00103,-0.0439 0.032148,-0.0642 0.078688,-0.0508 0.1766939,0.0506 0.3663625,0.0768 0.5216682,0.1822 0.053379,0.0362 0.1177408,0.0723 0.1391119,0.13318 0.022632,0.0644 0.044898,0.13165 0.089405,0.18515 0.03624,0.0436 0.08272,-0.003 0.1011397,-0.0403 0.05567,-0.11216 0.081444,-0.23606 0.1100451,-0.35709 0.016449,-0.0696 0.047195,-0.13714 0.050202,-0.20861 0.00483,-0.11492 0.036223,-0.22635 0.059431,-0.34021 0.00878,-0.0431 0.063061,-0.0755 0.088614,-0.0232 0.0392,0.0803 0.052186,0.17082 0.057297,0.25886 0.00457,0.0786 0.023464,0.15541 0.041636,0.23177 0.028429,0.11946 0.054812,0.24239 0.1167221,0.34975 0.025627,0.0444 0.072832,0.0936 0.1285636,0.0761 0.068008,-0.0213 0.111776,-0.0831 0.1519889,-0.13826 0.042526,-0.0583 0.072926,-0.12385 0.1155859,-0.18219 0.1173203,-0.16044 0.1928943,-0.62489 0.3393131,-0.49029 0.045556,0.0419 0.057049,0.10688 0.068231,0.1648 0.029006,0.15023 0.051111,0.30169 0.059653,0.45446 0.0019,0.034 0.032891,0.0922 0.069779,0.0511 0.1209834,-0.13476 0.1782424,-0.31034 0.2295253,-0.48071 0.042096,-0.13985 0.1052104,-0.52931 0.1808562,-0.4 0.1244899,0.2128 0.1606803,0.46039 0.2206841,0.69583 0.01664,0.0653 0.099341,0.13824 0.059954,0.19299 -0.023365,0.0325 -0.016142,0.0748 0.036817,0.0739 0.040188,-7.1e-4 0.1025629,-0.0246 0.1268702,0.0206 z"
       inkscape:connector-curvature="0" />
    <path
       style="fill:none;stroke:#000000;stroke-width:0.26458332;stroke-opacity:1"
       inkscape:path-effect="#path-effect33"
       inkscape:original-d="m 7.88111,285.09647 c -0.119247,-0.18013 -0.4817033,0.0527 -4e-7,0 -0.3852979,-0.0124 -0.3620088,-0.10667 1.5e-6,0 -0.3369515,-0.26773 -0.8400679,0.27428 -0.2104742,0.117 0.3653137,-0.0977 0.1129933,-0.14392 -0.046772,-0.1638 v -0.0234"
       id="path31"
       d="m 7.88111,285.09647 c -0.025615,-0.04 -0.071169,-0.0645 -0.1180469,-0.0686 -0.036569,-0.003 -0.076213,3.7e-4 -0.1073095,0.0208 -0.00675,0.004 -0.013478,0.01 -0.016667,0.0175 0,0 -0.00111,0.006 -0.00111,0.006 0,0 0.00145,0.006 0.00145,0.006 0.00736,0.0123 0.022339,0.0166 0.035359,0.0194 0.044206,0.009 0.089866,0.008 0.1346833,0.005 0.023927,-0.001 0.095588,-0.005 0.071633,-0.006 -0.063515,-0.002 -0.1272836,-0.005 -0.1899369,-0.0161 -0.027736,-0.005 -0.056072,-0.009 -0.082031,-0.0206 0,0 -0.00497,-0.003 -0.00497,-0.003 0,0 -0.0033,-0.005 -0.0033,-0.005 0.00199,-0.004 0.00769,-0.005 0.011432,-0.005 0.033986,-0.003 0.068011,0.003 0.1013632,0.009 0.056577,0.0101 0.2123255,0.0765 0.1674457,0.0407 -0.043033,-0.0344 -0.094263,-0.0586 -0.1483983,-0.0691 -0.075665,-0.0148 -0.1553957,-0.004 -0.225683,0.027 -0.037259,0.0164 -0.073345,0.0374 -0.1016142,0.0669 -0.01767,0.0185 -0.035423,0.041 -0.03527,0.0678 8.14e-5,0.0142 0.00856,0.0274 0.020384,0.0348 0.027969,0.0176 0.062527,0.0194 0.094568,0.0187 0.04825,-0.001 0.096036,-0.009 0.1431204,-0.0192 0.04586,-0.01 0.091365,-0.0219 0.1353563,-0.0381 0.028041,-0.0104 0.057575,-0.0199 0.080747,-0.0392 0.0053,-0.004 0.010368,-0.01 0.012945,-0.0161 0,0 0.00123,-0.006 0.00123,-0.006 0,0 -8.239e-4,-0.006 -8.239e-4,-0.006 -0.00424,-0.0113 -0.015329,-0.0181 -0.025695,-0.0229 -0.040655,-0.0189 -0.085337,-0.0266 -0.1291584,-0.0342 -0.026133,-0.005 -0.07896,0.0145 -0.07896,-0.0116 0,-0.008 0,-0.0154 0,-0.0231"
       inkscape:connector-curvature="0" />
    <path
       style="fill:none;stroke:#000000;stroke-width:0.26458332;stroke-opacity:1"
       inkscape:path-effect="#path-effect37"
       inkscape:original-d="m 7.7641928,285.09783 c 0.039617,0.39962 0.1703528,0.19343 0.304008,0.0921 0.2248537,-0.14661 0.3550829,-0.33628 0.514497,-0.5615 0.083139,-0.007 -0.075093,0.0505 -0.070158,0.0702"
       id="path35"
       d="m 7.7641928,285.09783 c 0.00527,0.0508 0.010616,0.10222 0.026467,0.15091 0.00941,0.0289 0.020316,0.0616 0.047455,0.0782 0.023858,0.0146 0.052864,0.004 0.074552,-0.009 0.041241,-0.0254 0.076105,-0.0594 0.1118979,-0.0917 0.021772,-0.0196 0.045383,-0.0369 0.06956,-0.0535 0.086043,-0.0591 0.1635416,-0.12996 0.2329695,-0.20774 0.092481,-0.10361 0.1716551,-0.21801 0.2518722,-0.33111 0,0 0.00373,-0.005 0.00373,-0.005 0.00686,-4.8e-4 0.013822,-0.001 0.020653,2e-4 0,0 0.00277,0.005 0.00277,0.005 -0.016394,0.0155 -0.038172,0.0237 -0.057256,0.0354 -0.012338,0.008 -0.02626,0.0139 -0.035432,0.0255 0,0 -8.88e-4,0.004 -8.88e-4,0.004"
       inkscape:connector-curvature="0" />
    <path
       style="fill:none;stroke:#000000;stroke-width:0.26458332;stroke-opacity:1"
       inkscape:path-effect="#path-effect41"
       inkscape:original-d="m 7.8935939,285.32101 c 0.1982345,-7.6e-4 0.2517016,0.33274 0.4552436,0.3131 0.00905,0.0188 0.3355994,0.20974 0.187087,0.1404"
       id="path39"
       d="m 7.8935939,285.32101 c 0.05011,-9.7e-4 0.096612,0.0242 0.132851,0.0573 0.044406,0.0405 0.078724,0.0902 0.1167294,0.1364 0.035563,0.0432 0.074715,0.0874 0.1278774,0.10869 0.024555,0.01 0.060112,-0.009 0.077786,0.0108 0.010739,0.0119 0.024919,0.0203 0.038172,0.0291 0.053434,0.0358 0.1102227,0.0667 0.1617519,0.10524 0.00876,0.007 0.036476,0.0174 0.025821,0.0204 -0.00581,0.002 -0.011189,-0.002 -0.016186,-0.004 -0.00757,-0.003 -0.015033,-0.007 -0.022472,-0.0101"
       inkscape:connector-curvature="0" />
    <path
       style="fill:none;stroke:#000000;stroke-width:0.26458332;stroke-opacity:1"
       inkscape:path-effect="#path-effect45"
       inkscape:original-d="m 12.324466,291.4341 c 0.05941,0.34173 -0.02185,0.87396 -0.18709,1.26301 -0.0417,0.48 -0.484487,0.9263 -0.780784,1.19255 -0.376141,0.41071 -0.937228,0.61535 -1.4876607,0.58526 -0.2662449,-0.15471 -0.6054571,-0.12375 -0.8657955,0.13976 -0.2687862,0.24384 -0.5759843,0.33805 -0.9239294,0.25783 -0.1391806,-0.0135 -0.3096458,0.0277 -0.4319548,-0.0234"
       id="path43"
       d="m 12.324466,291.4341 c 0.02648,0.1579 0.02375,0.31931 0.0076,0.47809 -0.0224,0.22032 -0.0689,0.43853 -0.141854,0.64768 -0.01615,0.0463 -0.04857,0.0884 -0.05284,0.13724 -0.01516,0.17336 -0.08139,0.33845 -0.168906,0.4874 -0.116145,0.19768 -0.267232,0.37247 -0.429478,0.5335 -0.05926,0.0588 -0.126079,0.11001 -0.1824,0.17165 -0.214933,0.23522 -0.496387,0.4059 -0.800017,0.50016 -0.221751,0.0688 -0.487448,0.20271 -0.6876437,0.0851 -0.1340697,-0.0788 -0.2954029,-0.10947 -0.4492311,-0.0848 -0.1561675,0.025 -0.2954961,0.11132 -0.4104483,0.21843 -0.104675,0.0975 -0.2262442,0.17824 -0.3599216,0.2303 -0.1497416,0.0583 -0.3138201,0.0687 -0.4733368,0.0516 -0.048171,-0.005 -0.094654,-0.0195 -0.1434746,-0.0206 -0.1060681,-0.003 -0.2130151,0.0165 -0.3183373,-0.002 -0.022876,-0.004 -0.045479,-0.01 -0.06693,-0.0189"
       inkscape:connector-curvature="0" />
    <path
       style="fill:none;stroke:#000000;stroke-width:0.26458332;stroke-opacity:1"
       inkscape:path-effect="#path-effect53"
       inkscape:original-d="m 5.4957297,288.46406 c 0.1637039,0.10598 0.6732591,-0.23341 0.4560268,-0.0352 -0.4221462,0.31981 -0.4694985,0.83151 -0.5729586,1.29811 -0.2158232,0.35293 0.3104659,0.48298 0.257247,0.81893 0.095834,0.3487 -0.143695,0.89315 0.322676,1.04304 0.064381,0.007 0.5743476,0.16176 0.4256776,-0.0374"
       id="path51"
       d="m 5.4957297,288.46406 c 0.036049,0.0226 0.080574,0.0238 0.1214893,0.0191 0.08023,-0.009 0.1568245,-0.0367 0.232102,-0.0647 0.044018,-0.0164 0.086116,-0.0388 0.1318079,-0.0498 0.00757,-0.002 0.024714,-0.01 0.023238,-0.001 -0.00321,0.0188 -0.021197,0.0316 -0.034341,0.0442 -0.027938,0.0269 -0.059747,0.0493 -0.088701,0.0752 -0.1090909,0.0975 -0.1955034,0.21871 -0.2594799,0.34999 -0.081531,0.1673 -0.1287736,0.34856 -0.1680375,0.52971 -0.025984,0.11988 -0.01037,0.25601 -0.075009,0.36026 -0.035118,0.0566 -0.058111,0.12363 -0.050736,0.19107 0.00735,0.0672 0.043057,0.12705 0.08293,0.18007 0.063334,0.0842 0.1410335,0.15837 0.1906208,0.25239 0.030125,0.0571 0.045368,0.1233 0.035574,0.18756 -0.00255,0.0167 0.00548,0.0331 0.00862,0.0496 0.021561,0.1133 0.01601,0.22928 0.013043,0.3439 -0.00298,0.11502 -0.00746,0.23159 0.016202,0.34493 0.016168,0.0775 0.050199,0.15271 0.1065339,0.20946 0.048792,0.0491 0.1093336,0.0915 0.1771391,0.10303 0.04382,0.007 0.086775,0.0192 0.1301841,0.0286 0.070885,0.0155 0.1421723,0.0351 0.2148947,0.0347 0.034091,-1.7e-4 0.082736,0.009 0.1020389,-0.0228 0.015968,-0.0266 -0.00656,-0.0564 -0.02144,-0.078"
       inkscape:connector-curvature="0" />
    <path
       style="fill:none;stroke:#000000;stroke-width:0.26458332;stroke-opacity:1"
       inkscape:path-effect="#path-effect57"
       inkscape:original-d="m 8.41899,282.59416 c 0.2337386,0.21742 -0.00751,0.63654 -0.163705,0.86555 -0.1204671,0.16255 -0.1842583,0.36943 -0.304021,0.4914"
       id="path55"
       d="m 8.41899,282.59416 c 0.040998,0.0377 0.070633,0.0872 0.085073,0.14099 0.01796,0.0669 0.014415,0.13773 7.247e-4,0.20501 -0.018554,0.0912 -0.053721,0.17816 -0.095243,0.26111 -0.044954,0.0898 -0.094518,0.17778 -0.1542598,0.25844 -0.072904,0.0984 -0.1233174,0.21069 -0.1825815,0.3173 -0.034393,0.0619 -0.071704,0.12319 -0.1214395,0.1741"
       inkscape:connector-curvature="0" />
    <path
       style="fill:none;stroke:#000000;stroke-width:0.26458332;stroke-opacity:1"
       inkscape:path-effect="#path-effect61"
       inkscape:original-d="m 7.5537048,282.73447 c -0.1849457,-0.008 -0.2692778,0.2813 -0.233861,0.51055 0.00423,0.2271 -0.014218,0.50636 0.093544,0.68245"
       id="path59"
       d="m 7.5537048,282.73447 c -0.052686,-0.003 -0.1030602,0.0234 -0.1376139,0.0621 -0.036309,0.0407 -0.059809,0.0912 -0.075572,0.14297 -0.022469,0.0738 -0.029735,0.15153 -0.028024,0.22854 6.123e-4,0.0276 0.00699,0.0548 0.00744,0.0822 0.00219,0.13327 -0.00268,0.26704 0.012015,0.39977 0.00815,0.0736 0.021836,0.14742 0.050409,0.21607 0.00881,0.0212 0.019059,0.0417 0.031025,0.0613"
       inkscape:connector-curvature="0" />
    <path
       style="fill:none;stroke:#000000;stroke-width:0.26458332;stroke-opacity:1"
       inkscape:path-effect="#path-effect65"
       inkscape:original-d="m 7.6706353,285.89159 c -0.1085481,0.29467 -0.3166799,0.75822 -0.7249685,0.81878 -0.041299,0.0347 -0.093631,0.0314 -0.140316,0.0702"
       id="path63"
       d="m 7.6706353,285.89159 c -0.053579,0.14542 -0.1154728,0.28869 -0.198104,0.42017 -0.060484,0.0962 -0.1323328,0.18656 -0.2205461,0.25889 -0.070612,0.0579 -0.1526195,0.10271 -0.2411129,0.12626 -0.021458,0.006 -0.048167,-7.8e-4 -0.065206,0.0135 -0.039606,0.0331 -0.095865,0.0342 -0.1359232,0.0667 0,0 -0.00439,0.004 -0.00439,0.004"
       inkscape:connector-curvature="0" />
    <path
       style="fill:none;stroke:#000000;stroke-width:0.26458332;stroke-opacity:1"
       inkscape:path-effect="#path-effect69"
       inkscape:original-d="m 7.5803103,286.10299 c 0.1760794,0.26874 0.3592268,0.46719 0.6538958,0.56489 0.1750345,0.0811 0.422352,0.0325 0.5589621,0.18289"
       id="path67"
       d="m 7.5803103,286.10299 c 0.077009,0.11737 0.1613446,0.23108 0.2630291,0.32844 0.078633,0.0753 0.168482,0.13912 0.266677,0.18638 0.040249,0.0194 0.083612,0.0314 0.1241897,0.0501 0.06554,0.0301 0.1374544,0.0417 0.208222,0.0524 0.074685,0.0113 0.1505567,0.0204 0.221875,0.0466 0.048494,0.0178 0.094121,0.0453 0.1288651,0.0839"
       inkscape:connector-curvature="0" />
    <path
       style="fill:none;stroke:#71c837;stroke-width:0.26458332;stroke-opacity:1"
       inkscape:path-effect="#path-effect81"
       inkscape:original-d="m 3.133735,289.32935 c -0.040026,-0.56198 -0.5233837,-1.25918 -0.7015794,-1.5902 -0.3376964,-0.43827 -0.3049667,-0.99693 -0.046772,-1.45006 0.4061156,-0.57399 0.5229767,-1.2869 0.1403166,-1.91782 -0.3722414,-0.60045 -0.6972912,-1.23037 -1.0289847,-1.84755 0.011461,-0.20807 0.063132,-0.94631 0.327404,-0.79533"
       id="path79"
       d="m 3.133735,289.32935 c -0.014609,-0.19319 -0.073991,-0.38 -0.1474336,-0.55817 -0.1286255,-0.31204 -0.3045455,-0.60107 -0.4744798,-0.89171 -0.027147,-0.0464 -0.046674,-0.0978 -0.079666,-0.14032 -0.1295107,-0.16678 -0.2122535,-0.36891 -0.2378824,-0.5786 -0.031859,-0.26066 0.020197,-0.52861 0.1347935,-0.76343 0.018993,-0.0389 0.036147,-0.0793 0.061063,-0.11476 0.1857499,-0.26419 0.3170002,-0.57043 0.3569863,-0.89233 0.032281,-0.25987 -0.00224,-0.52717 -0.097885,-0.77116 -0.041796,-0.10662 -0.098491,-0.20647 -0.1582919,-0.30398 -0.357169,-0.58241 -1.0340153,-1.1095 -0.9942237,-1.79117 0.01043,-0.17867 0.023762,-0.35875 0.068898,-0.53231 0.020569,-0.0791 0.044065,-0.16038 0.093547,-0.2268 0.024682,-0.0331 0.063563,-0.0599 0.1068309,-0.056 0.020614,0.002 0.040278,0.01 0.058128,0.0198"
       inkscape:connector-curvature="0" />
    <path
       style="fill:none;stroke:#71c837;stroke-width:0.26458332;stroke-opacity:1"
       inkscape:path-effect="#path-effect85"
       inkscape:original-d="m 4.5602863,287.15444 c 0.3651497,-0.2831 0.1726081,-0.79885 -0.023386,-1.1464 -0.2775269,-0.43593 -0.7379906,-0.7751 -0.7015815,-1.33326 -0.1951579,-0.40841 0.2677888,-0.71728 0.350793,-1.0761 0.2446987,-0.51183 -0.2365014,-0.92319 -0.374176,-1.38017 -0.1034461,-0.42016 0.058435,-0.84807 0.023386,-1.28657 h 0.023387 l -0.070158,0.0702"
       id="path83"
       d="m 4.5602863,287.15444 c 0.087385,-0.0667 0.1533032,-0.1612 0.1833195,-0.26733 0.038253,-0.13526 0.024419,-0.27943 -0.010377,-0.41379 -0.042373,-0.16362 -0.1058425,-0.3231 -0.196329,-0.46528 -0.158607,-0.24922 -0.3709161,-0.45919 -0.5272321,-0.71 -0.083756,-0.13439 -0.1477456,-0.28357 -0.1685825,-0.44154 -0.00794,-0.0602 0.020893,-0.12719 -0.00577,-0.18172 -0.042327,-0.0866 -0.057302,-0.18615 -0.040737,-0.28134 0.022116,-0.12709 0.088682,-0.24033 0.1564371,-0.34803 0.077453,-0.12311 0.1750859,-0.23901 0.215331,-0.38 0.012923,-0.0453 0.030889,-0.0881 0.04737,-0.13216 0.041714,-0.11159 0.050372,-0.23422 0.029444,-0.3513 -0.027365,-0.15309 -0.097213,-0.29412 -0.1707012,-0.42969 -0.087244,-0.16094 -0.1831935,-0.31838 -0.2466457,-0.49104 -0.021358,-0.0581 -0.031547,-0.11964 -0.038907,-0.18086 -0.025221,-0.20979 0.00219,-0.42058 0.025756,-0.62914 0.019459,-0.17219 -0.1512225,-0.51928 0.022656,-0.51928 0.0078,0 0.028898,-0.006 0.023387,0 -0.023386,0.0234 -0.046772,0.0468 -0.070158,0.0702"
       inkscape:connector-curvature="0" />
    <path
       style="fill:none;stroke:#71c837;stroke-width:0.26458332;stroke-opacity:1"
       inkscape:path-effect="#path-effect89"
       inkscape:original-d="m 5.9400651,285.3771 c 0.2604398,-0.0804 -0.046473,-0.30936 -0.116931,-0.468 -0.2876469,-0.51491 -0.371372,-1.12082 -0.374178,-1.70748 -0.1452166,-0.32239 -0.00505,-0.64749 -0.163703,-0.95921 -0.147086,-0.3833 -0.2097007,-0.78042 -0.233862,-1.19313 0.00939,-0.0461 -0.00393,-0.16579 -0.023386,-0.1637"
       id="path87"
       d="m 5.9400651,285.3771 c 0.040691,-0.0127 0.089314,-0.0333 0.099974,-0.0782 0.012264,-0.0517 -0.017622,-0.10144 -0.044746,-0.1429 -0.050387,-0.077 -0.1191315,-0.14182 -0.1607742,-0.22415 -0.02146,-0.0424 -0.044876,-0.0839 -0.066027,-0.1265 -0.1410524,-0.28425 -0.2249729,-0.594 -0.2708739,-0.90714 -0.033794,-0.23055 0.048029,-0.48472 -0.048661,-0.69659 -0.049711,-0.10893 -0.067378,-0.22914 -0.073104,-0.34788 -0.00723,-0.14994 0.0017,-0.30209 -0.032309,-0.4495 -0.012918,-0.056 -0.037627,-0.10817 -0.058289,-0.16183 -0.1186605,-0.30817 -0.183519,-0.63467 -0.2159123,-0.96261 -0.00758,-0.0767 -0.029597,-0.15433 -0.01795,-0.23052 0.00634,-0.0414 0.00709,-0.0851 -0.00496,-0.12498 -0.00399,-0.0132 -0.00415,-0.0322 -0.018425,-0.0387"
       inkscape:connector-curvature="0" />
    <path
       style="fill:none;stroke:#71c837;stroke-width:0.26458332;stroke-opacity:1"
       inkscape:path-effect="#path-effect101"
       inkscape:original-d="m 14.850163,281.93935 c -0.02052,0.35809 -0.154803,0.66641 -0.11695,1.05247 0.104433,0.41873 0.08615,0.80388 0.14033,1.21624 0.08906,0.5583 0.0028,1.24543 -0.51451,1.5672 -0.405013,0.36989 -0.137033,0.88881 -0.1871,1.35667 -0.106731,0.18941 -0.205122,0.46721 -0.46774,0.4679"
       id="path99"
       d="m 14.850163,281.93935 c -0.0154,0.27871 -0.105273,0.54706 -0.121106,0.82577 -0.0043,0.0755 -0.01434,0.15333 0.0042,0.2267 0.06039,0.23958 0.0808,0.48666 0.09773,0.73245 0.0125,0.18141 0.02733,0.36272 0.05133,0.54313 0.03234,0.24314 0.03161,0.49245 -0.01945,0.73298 -0.04238,0.19966 -0.122756,0.39415 -0.252326,0.55342 -0.07082,0.087 -0.168153,0.14628 -0.251466,0.22146 -0.0859,0.0775 -0.152211,0.17686 -0.188295,0.28709 -0.04372,0.13355 -0.0447,0.27639 -0.03485,0.41521 0.01417,0.19965 0.05296,0.3986 0.04051,0.59932 -0.0018,0.0286 -0.0051,0.0557 -0.01944,0.0822 -0.05844,0.10807 -0.109642,0.2222 -0.191511,0.31534 -0.05141,0.0585 -0.119661,0.10427 -0.19708,0.11929 -0.02113,0.004 -0.04266,0.006 -0.06418,0.006"
       inkscape:connector-curvature="0" />
    <path
       style="fill:none;stroke:#22280b;stroke-width:0.26458332;stroke-opacity:1"
       inkscape:path-effect="#path-effect113"
       inkscape:original-d="m 12.142705,283.87348 c -0.189203,-0.17936 -0.04687,0.31534 -0.0096,0.0447 -0.0077,-0.2116 -0.18682,-0.38683 -0.31277,-0.54926 -0.115696,-0.18336 -0.06156,-0.47963 -0.296877,-0.57372 -0.154237,-0.093 -0.310062,-0.20477 -0.482358,-0.277 -0.205464,-0.0767 -0.363032,-0.28427 -0.595078,-0.27523 -0.210771,0.0993 -0.132291,0.40317 -0.125547,0.59401 0.03389,0.23765 0.101819,0.47345 0.08629,0.71564 0.07678,0.23605 0.288136,0.39117 0.39759,0.6083 0.156428,0.14421 0.3672,0.13427 0.557052,0.17303 0.187472,0.008 0.371351,0.0587 0.435574,0.24717 0.04925,0.0373 0.0979,0.0754 0.146605,0.11348"
       id="path111"
       d="m 12.142705,283.87348 c -0.02094,-0.0181 -0.04644,-0.0511 -0.07434,-0.0393 -0.02433,0.0103 -0.02388,0.0423 -0.02088,0.0641 0.0048,0.0349 0.01165,0.0745 0.03896,0.0986 0.01263,0.0112 0.02623,-0.004 0.03124,-0.0155 0.01485,-0.0354 0.01672,-0.0742 0.01059,-0.11216 -0.0152,-0.0942 -0.06199,-0.1795 -0.115946,-0.25682 -0.05921,-0.0849 -0.137144,-0.15589 -0.191988,-0.2435 -0.04207,-0.0672 -0.06069,-0.14534 -0.07901,-0.22156 -0.01827,-0.076 -0.03519,-0.15377 -0.07281,-0.22315 -0.02779,-0.0513 -0.07036,-0.0959 -0.123837,-0.11961 -0.04615,-0.0205 -0.08755,-0.0502 -0.130128,-0.0771 -0.120571,-0.0763 -0.239462,-0.15892 -0.373457,-0.20927 -0.09508,-0.0357 -0.177165,-0.097 -0.261186,-0.15255 -0.07124,-0.0471 -0.146136,-0.0924 -0.230109,-0.11238 -0.03392,-0.008 -0.07208,-0.0248 -0.103783,-0.0103 -0.04758,0.0218 -0.08682,0.0606 -0.109484,0.10787 -0.03097,0.0646 -0.03659,0.13752 -0.0358,0.2081 0.0011,0.093 0.0066,0.18603 0.01973,0.27804 0.0276,0.19353 0.07749,0.38415 0.087,0.58003 0.0022,0.0452 -0.01461,0.0926 -7.07e-4,0.13561 0.03285,0.1017 0.09332,0.19148 0.158247,0.27531 0.08021,0.10356 0.183323,0.19518 0.231482,0.31782 0.0094,0.024 0.03316,0.0376 0.05323,0.0518 0.0756,0.0538 0.16648,0.0802 0.256795,0.0965 0.08465,0.0153 0.168919,0.036 0.254891,0.0399 0.09268,0.004 0.187215,0.0179 0.271219,0.0595 0.06041,0.0299 0.111794,0.0783 0.143233,0.13825 0.0083,0.0159 0.0068,0.0386 0.02112,0.0494 0.04927,0.0373 0.09792,0.0754 0.146605,0.11348"
       inkscape:connector-curvature="0" />
    <path
       style="fill:none;stroke:#22280b;stroke-width:0.26458332;stroke-opacity:1"
       inkscape:path-effect="#path-effect121"
       inkscape:original-d="m 12.862206,284.10448 c 0.02114,0.19156 0.338146,0.0919 0.484275,0.12662 0.193901,0.0342 0.388725,0.006 0.585113,0.006 0.229742,-0.007 0.466339,0.004 0.688221,-0.0548 0.155874,0.14978 0.0093,0.41222 0.0045,0.60469 7.24e-4,0.18475 -0.06284,0.36798 -0.185919,0.50854 -0.14661,0.18222 -0.390363,0.2125 -0.598774,0.28202 -0.198466,0.0489 -0.426614,0.0593 -0.603175,-0.0602 -0.188319,-0.0398 -0.328411,-0.19509 -0.467931,-0.31372 -0.154146,-0.12854 -0.119878,-0.3566 -0.24667,-0.49334 -0.07018,-0.003 -0.03378,0.13504 -0.03383,0.17556"
       id="path119"
       d="m 12.862206,284.10448 c 0.0028,0.0487 0.03926,0.089 0.08484,0.10474 0.05385,0.0186 0.11176,0.0183 0.168026,0.0176 0.06733,-9.4e-4 0.135613,-0.0127 0.202117,-7.2e-4 0.05479,0.01 0.110096,0.0171 0.165785,0.02 0.149624,0.008 0.299089,-0.004 0.448616,-0.009 0.183866,-0.006 0.368896,5.1e-4 0.551371,-0.0269 0.04606,-0.007 0.102813,-0.0597 0.13685,-0.0279 0.04123,0.0385 0.0642,0.0934 0.06963,0.14905 0.0072,0.0739 -0.0077,0.14739 -0.02334,0.21922 -0.01639,0.0752 -0.0413,0.14999 -0.04146,0.22735 -1.15e-4,0.0548 -0.0045,0.10975 -0.01487,0.16368 -0.02511,0.13014 -0.0886,0.25015 -0.17138,0.35393 -0.05254,0.0659 -0.123146,0.11524 -0.198932,0.15098 -0.118018,0.0557 -0.247507,0.0793 -0.370315,0.1215 -0.04965,0.0171 -0.101608,0.0265 -0.15346,0.0338 -0.115507,0.0164 -0.235784,0.0155 -0.347643,-0.0207 -0.04653,-0.0151 -0.08371,-0.0538 -0.131599,-0.0638 -0.09352,-0.0196 -0.177389,-0.0695 -0.252265,-0.1273 -0.07777,-0.06 -0.148888,-0.12789 -0.222755,-0.19252 -0.05123,-0.0448 -0.08288,-0.10709 -0.105267,-0.17043 -0.02992,-0.0847 -0.04537,-0.17509 -0.08941,-0.25424 -0.01251,-0.0225 -0.01935,-0.0594 -0.04491,-0.0626 -0.02475,-0.003 -0.0386,0.0219 -0.04153,0.0436 -0.006,0.0442 0.0054,0.0881 0.0077,0.13201"
       inkscape:connector-curvature="0" />
    <path
       style="fill:none;stroke:#22280b;stroke-width:0.26458332;stroke-opacity:1"
       d="m 11.943586,284.6946 c -0.02114,0.001 -0.04282,-0.002 -0.06346,0.004 0,0 0.002,0.006 0.002,0.006 0.0049,0.002 0.0093,0.009 0.01578,0.006 0,0 0.0056,3.8e-4 0.0056,3.8e-4 0,0 -3e-4,0.007 -3e-4,0.007 0,0 3e-4,0.004 3e-4,0.004 0.01327,-0.006 0.01887,-0.0214 0.03109,-0.0291 0,0 0.009,0.001 0.009,0.001 0.0118,0.0137 7.7e-5,0.0316 -0.0031,0.0462 0,0 -0.0017,0.008 -0.0017,0.008 0,0 -1.92e-4,0.008 -1.92e-4,0.008 0,0 0.005,3.8e-4 0.005,3.8e-4 0,0 0.0067,-3.8e-4 0.0067,-3.8e-4 0,0 0,0.006 0,0.006 0,0 0,0.006 0,0.006 0.0056,0.002 0.01072,-0.002 0.01665,0.003 0.01144,0.009 0.01524,0.0291 0.03012,0.0319 0.0061,0.001 0.01458,-0.003 0.01754,0.006 0,0 0.0058,0.006 0.0058,0.006 0,0 0.0086,0.002 0.0086,0.002 0.0029,-0.004 0.01,-0.002 0.01069,0.003 0,0 0.0041,0.008 0.0041,0.008 8.13e-4,0.004 -0.0043,0.0161 0.0056,0.0121 0,0 0.0061,-3.8e-4 0.0061,-3.8e-4 0,0 0.0058,0.006 0.0058,0.006 0,0 0.0058,0.006 0.0058,0.006 0.0061,0.001 0.01458,-0.003 0.01754,0.006 0,0 0.0058,0.006 0.0058,0.006 0.0079,0.003 0.0161,-0.006 0.02339,0 0,0 0,0.006 0,0.006 0,0 0,0.006 0,0.006 0.0062,0.002 0.01454,-0.004 0.01754,0.006 0,0 0.0058,0.006 0.0058,0.006 0.0038,9.1e-4 0.01671,-0.004 0.01169,0.006 0,0 0,0.006 0,0.006 0.0062,0.002 0.01454,-0.004 0.01754,0.006 0,0 0.0059,0.006 0.0059,0.006 0.0038,9.1e-4 0.01671,-0.004 0.01169,0.006 0,0 0,0.006 0,0.006 0.0062,0.002 0.01454,-0.004 0.01754,0.006 0,0 0.0058,0.006 0.0058,0.006 0.0061,0.001 0.01458,-0.003 0.01754,0.006 0,0 0.0058,0.006 0.0058,0.006 0.0079,0.003 0.01923,-0.008 0.02339,0 0.002,0.004 -0.0056,0.0123 0.0058,0.0123 0.0097,-7e-5 0.02036,-0.005 0.02924,-5.6e-4 0.0065,0.003 0.0083,0.0133 0.01732,0.0125 0.0079,-7.1e-4 0.01891,-0.005 0.02361,0.005 0,0 0.0058,0.006 0.0058,0.006 0.01926,0.004 0.0392,-0.004 0.05846,0 0,0 0.0058,0.006 0.0058,0.006 0,0 0.0058,0.006 0.0058,0.006 0.03764,0.002 0.07544,0.002 0.11321,8.3e-4 0.009,-1.8e-4 0.01893,0.003 0.02711,-8.3e-4 0.0065,-0.003 0.0083,-0.0133 0.01732,-0.0125 0.0079,7.1e-4 0.0189,0.005 0.02361,-0.005 0,0 0.0058,-0.006 0.0058,-0.006 0.0061,-0.001 0.01458,0.003 0.01754,-0.006 0,0 0.0058,-0.006 0.0058,-0.006 0.01392,-0.002 0.02797,-2.3e-4 0.04198,0 0.0037,6e-5 0.0075,-3.3e-4 0.01105,0.001 0,0 0.0054,-0.001 0.0054,-0.001 0.0019,-0.004 -0.0044,-0.015 0.005,-0.0138 0.0088,0.001 0.01865,0.006 0.02628,-0.002 0,0 0.0056,-0.003 0.0056,-0.003 0,0 0.0055,-0.004 0.0055,-0.004 0,0 -0.0039,-0.001 -0.0039,-0.001 0,0 -0.0085,-0.001 -0.0085,-0.001 0,0 -2.63e-4,-0.003 -2.63e-4,-0.003 0,0 0.0055,-0.007 0.0055,-0.007 0.0063,-0.002 0.01147,0.002 0.01813,-0.005 0.0057,-0.006 0.0085,-0.0163 0.01695,-0.0183 0.0038,-9.1e-4 0.01671,0.004 0.01169,-0.006 0,0 0,-0.006 0,-0.006 0,0 0.0058,0 0.0058,0 0,0 0.0058,0 0.0058,0 0,0 0,-0.006 0,-0.006 0,0 0,-0.006 0,-0.006 0.0062,-0.001 0.01563,0.004 0.01714,-0.007 0,0 -2.63e-4,-0.003 -2.63e-4,-0.003 0,0 -0.0085,-0.001 -0.0085,-0.001 0,0 -0.0039,-0.001 -0.0039,-0.001 0.0059,-0.004 0.01196,-0.009 0.01895,-0.0105 0.0038,-9.8e-4 0.01607,0.004 0.0121,-0.006 0,0 -4.12e-4,-0.006 -4.12e-4,-0.006 0.01266,-0.0183 0.04242,-0.0249 0.04677,-0.0468 7.65e-4,-0.004 -0.0043,-0.0166 0.0058,-0.0117 0,0 0.0058,0 0.0058,0 0.0024,-0.006 -0.0044,-0.0148 0.0058,-0.0177 0,0 0.0058,-0.006 0.0058,-0.006 0.0011,-0.006 -0.0035,-0.0148 0.0058,-0.0177 0,0 0.0058,-0.006 0.0058,-0.006 9.06e-4,-0.006 -0.0014,-0.0121 0.0049,-0.0183 0.0059,-0.006 0.01009,-0.0154 0.01853,-0.0168 0.0071,-0.001 0.01545,-0.006 0.01345,-0.0157 -0.0018,-0.008 -0.0059,-0.0197 0.0035,-0.0258 0.0096,-0.006 0.02063,-0.0144 0.01816,-0.0285 -0.0011,-0.006 -0.002,-0.0146 0.0055,-0.0178 0,0 0.0061,-0.006 0.0061,-0.006 0.0013,-0.006 -0.0011,-0.0116 0.0026,-0.0176 0.0055,-0.009 0.0061,-0.0185 0.0091,-0.0292 0.0028,-0.0102 0.01396,-0.0182 0.0115,-0.0294 -0.0016,-0.007 0.0046,-0.0131 0.0077,-0.0191 0,0 0.0034,-0.003 0.0034,-0.003 0.0021,0.005 -0.001,0.0196 6.26e-4,0.0147 0.0044,-0.013 0.0144,-0.0257 0.01235,-0.0393 -0.0012,-0.008 -0.0047,-0.0191 0.0053,-0.0237 0,0 0.0058,-0.006 0.0058,-0.006 0.0016,-0.0351 0.0322,-0.0913 0,-0.1053 -0.0046,-0.002 -0.0106,0.004 -0.01408,-0.005 -0.002,-0.005 -0.0029,-0.0113 0.0013,-0.0169 0.0054,-0.007 -0.007,-0.0104 -0.01059,-0.0129 -0.0079,-0.006 -0.02637,-0.004 -0.0246,-0.017 9.9e-4,-0.007 0.0059,-0.0173 -0.0036,-0.0221 -0.006,-0.003 -0.01326,-0.003 -0.01858,-0.008 0,0 -0.0096,-0.001 -0.0096,-0.001 0,0 -0.0049,-0.003 -0.0049,-0.003 -0.0054,-0.0104 0.01223,-0.023 0.0028,-0.0305 -0.01094,-0.009 -0.03096,-0.008 -0.03508,-0.0234 -0.0025,-0.009 0.0075,-0.023 -0.0047,-0.0275 -0.01139,-0.004 -0.02262,-0.009 -0.03095,-0.0186 -0.01053,-0.0124 -0.02237,-0.0236 -0.03387,-0.0351 -0.008,-0.008 -0.01806,-0.0145 -0.02407,-0.0241 -0.008,-0.0128 -0.0243,-0.0143 -0.03508,-0.0234 -0.02744,-0.0231 -0.05041,-0.0509 -0.076,-0.0761 -0.02539,-0.0249 -0.04122,-0.0691 -0.07597,-0.0754 -0.01135,-0.002 -0.02235,-0.009 -0.02986,-0.0174 -0.0092,-0.0104 -0.02589,-0.0165 -0.02864,-0.03 -8.07e-4,-0.004 0.0044,-0.0152 -0.0055,-0.0125 -0.01329,0.004 -0.02217,-0.0141 -0.03531,-0.0115 -0.0102,0.002 -0.02086,0.001 -0.02936,-0.005 -0.01101,-0.009 -0.02532,-0.007 -0.03816,-0.005 0,0 -0.0086,-0.001 -0.0086,-0.001 -0.0065,-0.004 -0.0097,-0.0147 -0.02013,-0.0128 -0.01295,0.002 -0.02648,0.003 -0.03835,-0.005 -0.01788,-0.012 -0.04028,-0.005 -0.06036,-0.006 -0.0053,-1.1e-4 -0.01057,3.2e-4 -0.01579,-7.5e-4 -0.0087,-0.002 -0.0106,0.0112 -0.01738,0.0125 -0.0061,0.001 -0.01458,-0.003 -0.01754,0.006 0,0 -0.0058,0.006 -0.0058,0.006 -0.01159,0.002 -0.02346,-0.003 -0.03508,0 0,0 -0.006,0.006 -0.006,0.006 0,0 -0.0057,0.006 -0.0057,0.006 -0.0063,0.001 -0.0116,-0.001 -0.01814,0.005 -0.0068,0.006 -0.01111,0.0198 -0.02278,0.0187 -0.0057,-5e-4 -0.01229,-0.005 -0.01756,-4.2e-4 0,0 0,0.006 0,0.006 0,0 0,0.006 0,0.006 -0.0062,0.002 -0.01454,-0.004 -0.01754,0.006 0,0 -0.0058,0.006 -0.0058,0.006 -0.0062,0.001 -0.01216,-0.002 -0.01765,0.006 -0.0092,0.013 -0.02601,0.0141 -0.03757,0.025 -0.01343,0.0126 -0.02076,0.0342 -0.03832,0.0397 -0.0041,0.001 -0.0081,0.005 -0.01272,0.004 0,0 0.0027,-0.006 0.0027,-0.006 0,0 0.0018,-0.002 0.0018,-0.002 -0.01701,0.0167 -0.02752,0.0436 -0.05026,0.0509 -0.0059,0.002 -0.01087,-1.7e-4 -0.01768,0.003 -0.0075,0.003 -0.0141,0.01 -0.02332,0.009 -0.01089,-0.001 -0.01776,0.01 -0.0232,0.0171 -0.0089,0.0123 -0.02139,0.0204 -0.03535,0.0269 -0.01412,0.007 -0.02255,0.02 -0.03328,0.0307 -0.01549,0.0155 -0.03091,0.031 -0.04645,0.0464 -0.01436,0.0143 -0.03979,0.023 -0.04289,0.043 -9.74e-4,0.006 0.0016,0.0119 -0.0053,0.018 -0.01851,0.0165 -0.04071,0.0307 -0.05314,0.0522 -0.0071,0.0122 -0.01759,0.0211 -0.02338,0.0351 -0.0055,0.0132 -0.02052,0.0207 -0.02338,0.0351 -7.65e-4,0.004 0.0043,0.0166 -0.0058,0.0117 0,0 -0.0058,0 -0.0058,0 -0.0024,0.006 0.0044,0.0148 -0.0058,0.0177 0,0 -0.0058,0.006 -0.0058,0.006 -0.0032,0.006 0.0052,0.0151 -0.0064,0.0173 0,0 -0.0053,0.006 -0.0053,0.006 -0.0035,0.008 0.0083,0.0195 0,0.0234 -0.0042,0.002 -0.01549,-0.005 -0.01274,0.006 0.0017,0.006 0.001,0.0129 0.001,0.0194 0,0.0228 0,0.0456 0,0.0685 0,0 -1.37e-4,0.009 -1.37e-4,0.009 0,0 -2.29e-4,0.004 -2.29e-4,0.004 7.96e-4,-0.003 0.0034,-0.007 0.0071,-0.005 0,0 0.005,0.004 0.005,0.004 0.002,0.007 0.0027,0.0104 0.0041,0.0193 7.51e-4,0.005 0.0054,0.003 0.01071,0.003 0.01654,-0.001 0.01854,0.0216 0.03201,0.0248 0.0038,9.1e-4 0.01671,-0.004 0.01169,0.006 0,0 0,0.006 0,0.006 0.009,0.007 0.02288,-0.008 0.02924,0.006 0,0 0.0058,0.006 0.0058,0.006 0.01164,0.005 0.02344,-0.005 0.03508,0 0,0 0.0059,0.006 0.0059,0.006 0,0 0.0059,0.006 0.0059,0.006 0.0061,0.001 0.01458,-0.003 0.01754,0.006 0,0 0.0058,0.006 0.0058,0.006 0.0097,0.004 0.0229,-0.007 0.02924,0.006 0,0 0.0058,0.006 0.0058,0.006 0.01164,0.005 0.02368,-0.005 0.03508,0 0.0065,0.003 0.0083,0.0133 0.01732,0.0125 0.0079,-7.1e-4 0.01891,-0.005 0.02361,0.005 0,0 0.0058,0.006 0.0058,0.006 0.0079,0.003 0.01827,-0.008 0.02339,0 0.0085,0.013 0.01123,0.0285 0.01673,0.0428 z"
       id="path149"
       inkscape:connector-curvature="0"
       inkscape:path-effect="#path-effect151"
       inkscape:original-d="m 11.943586,284.6946 c -0.02115,0.001 -0.0432,-0.002 -0.06346,0.004 -0.0053,0.002 0.0068,0.009 0.01169,0.0117 0.0035,0.002 0.0089,-0.003 0.0117,0 0.0028,0.003 -0.0036,0.0131 0,0.0117 0.01508,-0.006 0.02859,-0.0392 0.04007,-0.0277 0.01484,0.0148 -0.0072,0.0419 -0.005,0.0628 4.23e-4,0.004 0.0089,-0.003 0.01169,0 0.0028,0.003 -0.0028,0.009 0,0.0117 0.0028,0.003 0.0082,-0.002 0.01169,0 0.01403,0.007 0.02105,0.0281 0.03508,0.0351 0.0035,0.002 0.0082,-0.002 0.01169,0 0.0049,0.002 0.0068,0.009 0.01169,0.0117 0.01613,0.008 0.01046,-0.0142 0.02339,0.0117 0.0017,0.003 -0.0028,0.009 0,0.0117 0.0028,0.003 0.0082,-0.002 0.01169,0 0.0049,0.002 0.0068,0.009 0.01169,0.0117 0.0035,0.002 0.0082,-0.002 0.01169,0 0.0049,0.002 0.0068,0.009 0.01169,0.0117 0.007,0.003 0.01787,-0.006 0.02339,0 0.0028,0.003 -0.0028,0.009 0,0.0117 0.0028,0.003 0.0082,-0.002 0.01169,0 0.0049,0.002 0.0068,0.009 0.01169,0.0117 0.0035,0.002 0.0089,-0.003 0.01169,0 0.0028,0.003 -0.0028,0.009 0,0.0117 0.0028,0.003 0.0082,-0.002 0.01169,0 0.0049,0.002 0.0068,0.009 0.0117,0.0117 0.0035,0.002 0.0089,-0.003 0.01169,0 0.0028,0.003 -0.0028,0.009 0,0.0117 0.0028,0.003 0.0082,-0.002 0.01169,0 0.0049,0.002 0.0068,0.009 0.01169,0.0117 0.0035,0.002 0.0082,-0.002 0.01169,0 0.0049,0.002 0.0068,0.009 0.01169,0.0117 0.007,0.003 0.01787,-0.006 0.02339,0 0.0028,0.003 -0.0028,0.009 0,0.0117 0.0024,0.002 0.03044,-0.002 0.03508,0 0.0049,0.002 0.0068,0.009 0.01169,0.0117 0.007,0.003 0.01642,-0.003 0.02339,0 0.0049,0.002 0.0068,0.009 0.01169,0.0117 0.0074,0.004 0.05109,-0.004 0.05846,0 0.0049,0.002 0.0068,0.009 0.01169,0.0117 0.003,0.002 0.06187,0 0.07016,0 0.0083,0 0.06714,0.002 0.07016,0 0.0049,-0.002 0.0068,-0.009 0.01169,-0.0117 0.007,-0.003 0.01642,0.003 0.02339,0 0.0049,-0.002 0.0068,-0.009 0.01169,-0.0117 0.0035,-0.002 0.0082,0.002 0.01169,0 0.0049,-0.002 0.0068,-0.009 0.01169,-0.0117 0.0036,-0.002 0.02981,0 0.03508,0 0.0039,0 0.0078,0 0.01169,0 0.0039,0 0.0089,0.003 0.01169,0 0.0028,-0.003 -0.0028,-0.009 0,-0.0117 0.0055,-0.006 0.01641,0.003 0.02339,0 0.04866,-0.0243 -0.0125,8.2e-4 0.01169,-0.0234 0.0028,-0.003 0.0082,0.002 0.01169,0 0.0099,-0.005 0.01352,-0.0185 0.02339,-0.0234 0.0035,-0.002 0.0089,0.003 0.01169,0 0.0028,-0.003 -0.0028,-0.009 0,-0.0117 0.0028,-0.003 0.0089,0.003 0.01169,0 0.0028,-0.003 -0.0028,-0.009 0,-0.0117 0.0028,-0.003 0.0089,0.003 0.01169,0 0.02419,-0.0242 -0.03697,9.5e-4 0.01169,-0.0234 0.0035,-0.002 0.0089,0.003 0.01169,0 0.0028,-0.003 -0.0017,-0.008 0,-0.0117 0.0058,-0.0115 0.04102,-0.0353 0.04677,-0.0468 0.0017,-0.003 -0.0028,-0.009 0,-0.0117 0.0028,-0.003 0.0089,0.003 0.01169,0 0.0028,-0.003 -0.0017,-0.008 0,-0.0117 0.0025,-0.005 0.0092,-0.007 0.01169,-0.0117 0.0017,-0.003 -0.0017,-0.008 0,-0.0117 0.0025,-0.005 0.0092,-0.007 0.01169,-0.0117 0.0017,-0.003 -0.0017,-0.008 0,-0.0117 0.0049,-0.01 0.01727,-0.0142 0.02339,-0.0234 0.02576,-0.006 0.0062,-0.0241 0.01169,-0.0351 0.0049,-0.01 0.0199,-0.0129 0.02339,-0.0234 0.0025,-0.007 -0.0025,-0.016 0,-0.0234 0.0017,-0.005 0.0092,-0.007 0.01169,-0.0117 0.0017,-0.003 -0.0012,-0.008 0,-0.0117 0.0028,-0.008 0.0089,-0.0151 0.01169,-0.0234 0.0012,-0.004 -0.0012,-0.008 0,-0.0117 0.0028,-0.008 0.0089,-0.0151 0.01169,-0.0234 0.0012,-0.004 -0.0017,-0.008 0,-0.0117 0.02676,-0.0535 -0.0048,0.0496 0.02339,-0.0351 0.0025,-0.007 -0.0035,-0.0164 0,-0.0234 0.0025,-0.005 0.0092,-0.007 0.01169,-0.0117 0.0015,-0.003 0,-0.0619 0,-0.0702 0,-0.003 3.7e-4,-0.0347 0,-0.0351 -0.0028,-0.003 -0.01,0.003 -0.01169,0 -0.01559,-0.0312 0.01654,-0.0163 -0.01169,-0.0351 -0.0073,-0.005 -0.01855,-0.004 -0.02339,-0.0117 -0.0043,-0.006 0.0043,-0.0169 0,-0.0234 -0.0048,-0.007 -0.01722,-0.006 -0.02339,-0.0117 -0.03292,-7.2e-4 -0.003,-0.0264 -0.01169,-0.0351 -0.0072,-0.007 -0.0306,-0.01 -0.03508,-0.0234 -0.0025,-0.007 0.0043,-0.0169 0,-0.0234 -0.0048,-0.007 -0.01613,-0.007 -0.02339,-0.0117 -0.0092,-0.006 -0.01559,-0.0156 -0.02339,-0.0234 -0.01559,-0.0156 -0.03118,-0.0312 -0.04677,-0.0468 -0.0039,-0.004 -0.0071,-0.009 -0.01169,-0.0117 -0.0073,-0.005 -0.01614,-0.007 -0.02339,-0.0117 -0.01094,-0.007 -0.03928,-0.0393 -0.04677,-0.0468 -0.03118,-0.0312 -0.06236,-0.0624 -0.09354,-0.0935 -0.02681,-0.0268 0.0074,0.005 -0.03508,-0.0234 -0.0092,-0.006 -0.01559,-0.0156 -0.02339,-0.0234 -0.0039,-0.004 -0.0092,-0.007 -0.01169,-0.0117 -0.0017,-0.003 0.0028,-0.009 0,-0.0117 -0.0028,-0.003 -0.008,0.001 -0.01169,0 -0.0083,-0.003 -0.01512,-0.009 -0.02339,-0.0117 -0.0074,-0.002 -0.01599,0.002 -0.02339,0 -0.0083,-0.003 -0.01512,-0.009 -0.02339,-0.0117 -0.01109,-0.004 -0.02399,0.004 -0.03508,0 -0.0052,-0.002 -0.0065,-0.01 -0.01169,-0.0117 -0.01052,-0.004 -0.02456,0.004 -0.03508,0 -0.0083,-0.003 -0.01512,-0.009 -0.02339,-0.0117 -0.0073,-0.002 -0.03736,0 -0.04677,0 -0.0039,0 -0.0078,0 -0.01169,0 -0.0039,0 -0.0082,-0.002 -0.01169,0 -0.0049,0.002 -0.0068,0.009 -0.01169,0.0117 -0.0035,0.002 -0.0082,-0.002 -0.01169,0 -0.0049,0.002 -0.0068,0.009 -0.01169,0.0117 -0.0035,0.002 -0.0078,0 -0.01169,0 -0.0078,0 -0.01599,-0.002 -0.02339,0 -0.0052,0.002 -0.0068,0.009 -0.01169,0.0117 -0.0035,0.002 -0.0082,-0.002 -0.01169,0 -0.0099,0.005 -0.01353,0.0185 -0.02339,0.0234 -0.007,0.003 -0.01787,-0.006 -0.02339,0 -0.0028,0.003 0.0028,0.009 0,0.0117 -0.0028,0.003 -0.0082,-0.002 -0.01169,0 -0.0049,0.002 -0.0068,0.009 -0.01169,0.0117 -0.0035,0.002 -0.0082,-0.002 -0.01169,0 -0.0049,0.002 -0.0071,0.009 -0.01169,0.0117 -0.0073,0.005 -0.01613,0.007 -0.02339,0.0117 -0.01009,0.007 -0.02595,0.0259 -0.03508,0.0351 -0.0039,0.004 -0.0068,0.009 -0.01169,0.0117 -0.03441,0.0172 0.0154,-0.0271 -0.02339,0.0117 -0.0062,0.006 -0.02883,0.032 -0.03508,0.0351 -0.0035,0.002 -0.008,-0.001 -0.01169,0 -0.0083,0.003 -0.01512,0.009 -0.02339,0.0117 -0.0037,0.001 -0.0082,-0.002 -0.01169,0 -0.01036,0.005 -0.02444,0.028 -0.03508,0.0351 -0.0073,0.005 -0.01614,0.007 -0.02339,0.0117 -0.0092,0.006 -0.01559,0.0156 -0.02339,0.0234 -0.01559,0.0156 -0.03118,0.0312 -0.04677,0.0468 -0.0069,0.007 -0.04406,0.0414 -0.04677,0.0468 -0.0017,0.003 0.0017,0.008 0,0.0117 -0.0025,0.005 -0.0078,0.008 -0.01169,0.0117 -0.01169,0.0117 -0.02339,0.0234 -0.03508,0.0351 -0.0039,0.004 -0.0086,0.007 -0.01169,0.0117 -0.0048,0.007 -0.0069,0.0161 -0.01169,0.0234 -0.0031,0.005 -0.0078,0.008 -0.01169,0.0117 -0.0039,0.008 -0.0069,0.0161 -0.01169,0.0234 -0.0031,0.005 -0.0092,0.007 -0.01169,0.0117 -0.0017,0.003 0.0028,0.009 0,0.0117 -0.0028,0.003 -0.0089,-0.003 -0.01169,0 -0.0028,0.003 0.0017,0.008 0,0.0117 -0.0025,0.005 -0.0092,0.007 -0.01169,0.0117 -0.0017,0.003 0,0.008 0,0.0117 -0.0039,0.004 -0.0092,0.007 -0.01169,0.0117 -0.0035,0.007 0.0055,0.0179 0,0.0234 -0.0028,0.003 -0.0089,-0.003 -0.01169,0 -0.0028,0.003 0,0.008 0,0.0117 0,0.0273 0,0.0546 0,0.0818 0,0.0312 -0.0039,-0.004 0.01169,0.0117 0.0028,0.003 -0.0017,0.008 0,0.0117 0.01293,0.0259 0.0073,0.004 0.02339,0.0117 0.0099,0.005 0.01353,0.0185 0.02339,0.0234 0.0035,0.002 0.0089,-0.003 0.01169,0 0.0028,0.003 -0.0028,0.009 0,0.0117 0.0055,0.006 0.01641,-0.003 0.02339,0 0.0049,0.002 0.0068,0.009 0.01169,0.0117 0.0094,0.005 0.02572,-0.005 0.03508,0 0.0049,0.002 0.0068,0.009 0.0117,0.0117 0.0035,0.002 0.0082,-0.002 0.01169,0 0.0049,0.002 0.0068,0.009 0.01169,0.0117 0.007,0.003 0.01642,-0.003 0.02339,0 0.0049,0.002 0.0068,0.009 0.01169,0.0117 0.0094,0.005 0.02573,-0.005 0.03508,0 0.0049,0.002 0.0068,0.009 0.01169,0.0117 0.007,0.003 0.01641,-0.003 0.02339,0 0.0049,0.002 0.0068,0.009 0.01169,0.0117 0.007,0.003 0.01905,-0.006 0.02339,0 0.0084,0.0126 0.01112,0.0283 0.01668,0.0425 z" />
  </g>
</svg>
