<?xml version="1.0" encoding="UTF-8"?>
<svg width="64" height="64" version="1.1" viewBox="0 0 16.933 16.933" xmlns="http://www.w3.org/2000/svg" xmlns:cc="http://creativecommons.org/ns#" xmlns:dc="http://purl.org/dc/elements/1.1/" xmlns:rdf="http://www.w3.org/1999/02/22-rdf-syntax-ns#">
<metadata>
<rdf:RDF>
<cc:Work rdf:about="">
<dc:format>image/svg+xml</dc:format>
<dc:type rdf:resource="http://purl.org/dc/dcmitype/StillImage"/>
<dc:title/>
</cc:Work>
</rdf:RDF>
</metadata>
<g transform="translate(0 -280.07)">
<path transform="matrix(.88708 0 0 .88708 1.3282 33.653)" d="m4.6082 282.89c-0.33541-0.47555-0.80572-0.83169-1.186-1.2686-0.22677-0.26054-0.45956-0.60223-0.86285-0.57894-0.54883 0.0317-1.1509 0.11054-1.5728 0.45372-0.33839 0.27528-0.83801 0.45081-0.93847 0.93652-0.089805 0.43421 0.25757 0.95211 0.72154 0.88183 0.31378-0.0475 0.57596-0.21676 0.90763-0.25171 0.3029-0.0319 0.55642 0.14679 0.7832 0.37603 0.42385 0.42846 0.79787 0.8945 1.2067 1.3429 0.30968 0.33962 0.44613 0.80294 0.51182 1.2188 0.088717 0.56163 0.51927 1.3912 0.044603 1.7-0.36941 0.24033-0.76018-0.0467-1.0416-0.26316-0.26825-0.20633-0.59325-0.21162-0.89758-0.32864-0.33145-0.12745-0.73214-0.26272-1.0616-0.0155-0.34726 0.2606-0.33754 0.731-0.20146 1.1495 0.17885 0.55002 0.78049 0.72141 1.2448 0.9476 0.65465 0.31889 1.3779 0.45721 2.0264 0.79282 0.54068 0.27979 1.1386 0.40288 1.7369 0.48548 0.51803 0.0715 1.0078 0.27401 1.5416 0.26054 0.43836-0.0111 0.86492 0.0969 1.3019 0.14362 0.54942 0.0587 0.77265 0.6228 1.0697 1.004 0.20881 0.268 0.11999 0.68373 0.30662 1.0268 0.318 0.58452 0.73268 1.0982 1.1748 1.5941 0.19213 0.21551 0.51398 0.90738 0.67236 0.6301 0.19222-0.33653 0.0353-0.81415 0.33242-1.1034 0.28699-0.27941 0.44435-0.68704 0.73485-0.96049 0.53732-0.50579 1.0613-1.0246 1.6381-1.4886 0.33988-0.27339 0.68854-0.53511 1.0485-0.77802 0.30074-0.20297 1.1079-0.22836 0.93739-0.55453-0.15391-0.2945-0.49944-0.54794-0.78495-0.75948-0.32076-0.23767-0.56076-0.57454-0.93663-0.73684-0.3549-0.15324-0.64631-0.41647-0.99292-0.58949-0.56883-0.28395-1.0602-0.70865-1.415-1.2374-0.23235-0.34623-0.50437-0.6623-0.74201-1.0046-0.32039-0.46151-0.74831-0.82923-1.1211-1.2479-0.30989-0.34803-0.63046-0.68086-1.0065-0.96671-0.48606-0.36947-0.88564-0.83823-1.2182-1.3475-0.22922-0.35102-0.6601-0.25147-0.96416-0.47057-0.358-0.25797-0.68675-0.58717-1.124-0.69413-0.61136-0.14957-1.3217 0.13693-1.8686-0.1653-0.48059-0.26558-1.0724-0.0109-1.5046 0.23481" fill="#fff" stroke="#000" stroke-width=".265"/>
</g>
</svg>
