<?xml version="1.0" encoding="UTF-8" standalone="no"?>
<!-- Created with Inkscape (http://www.inkscape.org/) -->

<svg
   xmlns:dc="http://purl.org/dc/elements/1.1/"
   xmlns:cc="http://creativecommons.org/ns#"
   xmlns:rdf="http://www.w3.org/1999/02/22-rdf-syntax-ns#"
   xmlns:svg="http://www.w3.org/2000/svg"
   xmlns="http://www.w3.org/2000/svg"
   xmlns:sodipodi="http://sodipodi.sourceforge.net/DTD/sodipodi-0.dtd"
   xmlns:inkscape="http://www.inkscape.org/namespaces/inkscape"
   width="64"
   height="64"
   viewBox="0 0 16.933333 16.933334"
   version="1.1"
   id="svg8"
   inkscape:version="0.92.4 (fd57863, 2020-04-02)"
   sodipodi:docname="Hunger.svg">
  <defs
     id="defs2">
    <inkscape:path-effect
       effect="simplify"
       id="path-effect94"
       is_visible="true"
       steps="1"
       threshold="0.000408163"
       smooth_angles="360"
       helper_size="0"
       simplify_individual_paths="false"
       simplify_just_coalesce="false"
       simplifyindividualpaths="false"
       simplifyJustCoalesce="false" />
    <inkscape:path-effect
       effect="simplify"
       id="path-effect90"
       is_visible="true"
       steps="1"
       threshold="0.000408163"
       smooth_angles="360"
       helper_size="0"
       simplify_individual_paths="false"
       simplify_just_coalesce="false"
       simplifyindividualpaths="false"
       simplifyJustCoalesce="false" />
    <inkscape:path-effect
       effect="simplify"
       id="path-effect74"
       is_visible="true"
       steps="1"
       threshold="0.000408163"
       smooth_angles="360"
       helper_size="0"
       simplify_individual_paths="false"
       simplify_just_coalesce="false"
       simplifyindividualpaths="false"
       simplifyJustCoalesce="false" />
    <inkscape:path-effect
       effect="simplify"
       id="path-effect60"
       is_visible="true"
       steps="1"
       threshold="0.000408163"
       smooth_angles="360"
       helper_size="0"
       simplify_individual_paths="false"
       simplify_just_coalesce="false"
       simplifyindividualpaths="false"
       simplifyJustCoalesce="false" />
  </defs>
  <sodipodi:namedview
     id="base"
     pagecolor="#ffffff"
     bordercolor="#666666"
     borderopacity="1.0"
     inkscape:pageopacity="0.0"
     inkscape:pageshadow="2"
     inkscape:zoom="11.313709"
     inkscape:cx="16.523145"
     inkscape:cy="33.096464"
     inkscape:document-units="mm"
     inkscape:current-layer="layer1"
     showgrid="false"
     units="px"
     inkscape:window-width="1853"
     inkscape:window-height="1025"
     inkscape:window-x="67"
     inkscape:window-y="27"
     inkscape:window-maximized="1"
     showguides="true"
     inkscape:guide-bbox="true">
    <sodipodi:guide
       position="-15.364657,8.1149713"
       orientation="1,0"
       id="guide70"
       inkscape:locked="false" />
  </sodipodi:namedview>
  <metadata
     id="metadata5">
    <rdf:RDF>
      <cc:Work
         rdf:about="">
        <dc:format>image/svg+xml</dc:format>
        <dc:type
           rdf:resource="http://purl.org/dc/dcmitype/StillImage" />
        <dc:title></dc:title>
      </cc:Work>
    </rdf:RDF>
  </metadata>
  <g
     inkscape:label="Layer 1"
     inkscape:groupmode="layer"
     id="layer1"
     transform="translate(0,-280.06665)">
    <path
       style="fill:none;stroke:#c87137;stroke-width:0.26458332;stroke-opacity:1"
       d="m 2.1515196,285.51742 c 0.060911,-0.0263 0.1307843,-0.006 0.193053,-0.0238 0.028015,-0.008 0.040108,0.002 0.064194,0.0238 0.035464,0.0319 0.071138,0.0591 0.1114885,0.09 0.03244,0.0248 0.058595,0.0568 0.087491,0.0857 0.060203,0.0602 0.1885558,0.10281 0.1735644,0.18747 -0.00762,0.043 0.031251,0.083 0.057052,0.11671 0.021174,0.0277 0.048728,0.11204 0.065824,0.0815 0.00758,-0.0136 -0.019165,-0.0619 -0.010141,-0.0482 0.050278,0.0763 0.1299756,0.14265 0.1445894,0.23283 0.00259,0.016 -0.025334,-0.0246 -0.032457,-0.0349 -0.00872,-0.0126 -0.040983,-0.0535 -0.019047,-0.0202 0.059896,0.0911 0.1175954,0.18412 0.1881508,0.26758 0.046589,0.0551 0.076839,0.12123 0.1174898,0.18039 0.035227,0.0513 0.073107,0.10031 0.1083291,0.15189 0.030823,0.0451 0.05216,0.0951 0.080221,0.14214 0.039944,0.067 0.092963,0.12438 0.132513,0.192 0.098981,0.16922 0.1933858,0.34141 0.300876,0.50535 0.046796,0.0714 0.1055965,0.13357 0.1557972,0.20261 0.051465,0.0708 0.1119275,0.13453 0.1548165,0.21194 0.0686,0.12381 0.1808602,0.21614 0.2534397,0.33729 0.042175,0.0704 0.094697,0.13348 0.1458125,0.19753 0.091471,0.11461 0.1857676,0.227 0.275541,0.34291 0.041714,0.0539 0.061205,0.12352 0.1149558,0.16826 0.043874,0.0365 0.078452,0.0817 0.1124155,0.12751 0.077264,0.10413 0.1628644,0.20191 0.229302,0.31436 0.05173,0.0876 0.1136061,0.16857 0.1646883,0.25663 0.052754,0.0909 0.1145627,0.17684 0.1613368,0.27096 0.026852,0.054 0.054881,0.10786 0.078271,0.16335 0.037196,0.0882 0.1288052,0.14343 0.1531079,0.23838 0.012629,0.0493 0.04133,0.0916 0.073203,0.1309 0.040001,0.0494 0.1546643,0.20165 0.1154979,0.15162 -0.00798,-0.0102 -0.035426,-0.0449 -0.03038,-0.0371 0.037306,0.0573 0.08459,0.10746 0.1208493,0.16525 0.027577,0.0439 0.042812,0.0944 0.075826,0.13559 0.047347,0.0591 0.1843638,0.24022 0.1377227,0.18059 -0.00798,-0.0102 -0.03543,-0.0449 -0.03038,-0.0371 0.053072,0.0815 0.1354678,0.14599 0.1695138,0.23706 0.022103,0.0591 0.062351,0.1088 0.092925,0.16361 0.026061,0.0467 0.043522,0.0984 0.079885,0.13916 0.093691,0.10502 0.1074117,0.2597 0.2016451,0.36251 0.032335,0.0353 0.058542,0.0758 0.073182,0.12185 0.031715,0.0998 0.082242,0.1913 0.1319992,0.28295 0.021336,0.0393 0.021735,0.0794 0.033036,0.12112 0.019665,0.0725 0.04561,0.14296 0.078517,0.21168 0.029099,0.0608 0.039911,0.12772 0.054152,0.19331 0.016789,0.0773 0.057073,0.1483 0.063867,0.22815 0.00376,0.0442 0.026368,0.0825 0.047204,0.12065 0.039634,0.0726 0.012179,0.17404 0.070917,0.23344 0.03202,0.0324 0.036032,0.079 0.056935,0.11776 0.019084,0.0354 0.04933,0.0639 0.058465,0.1053 0.018547,0.0841 0.098564,0.13479 0.1192858,0.2195 0.012268,0.0501 0.050201,0.0859 0.07332,0.13157 0.02014,0.0398 0.055088,0.0712 0.065135,0.11659 0.013688,0.0618 0.058663,0.11071 0.071674,0.17312 0.00996,0.0478 0.057779,0.0755 0.06494,0.12496 0.00515,0.0356 0.00957,0.0754 0.037727,0.10001 0.037623,0.0329 0.021315,0.0989 0.06363,0.12352 0.044026,0.0257 0.059243,0.0677 0.089607,0.10965 0.026478,0.0366 0.047657,0.0739 0.082494,0.10721 0.031451,0.0301 0.050575,0.08 0.092237,0.0923 0.045013,0.0133 0.067708,0.0568 0.106318,0.0795 0.033944,0.0199 0.06782,0.0412 0.092463,0.0726 0.024682,0.0315 0.06065,0.0494 0.092594,0.0724 0.042098,0.0303 0.071028,0.0748 0.1147516,0.10397 0.055981,0.0374 0.1175908,0.0628 0.1747924,0.1 0.032361,0.021 0.070849,0.0502 0.1085048,0.0412 0.074148,-0.0177 0.1447571,0.0213 0.2168745,0.0317 0.046527,0.007 0.087565,0.0381 0.1343,0.0378 0.041119,-2.6e-4 0.084507,-0.01 0.1229465,0.009 0.042794,0.0203 0.090583,0.005 0.1345363,0.016 0.041258,0.0101 0.081464,0.0235 0.1256213,0.0202 0.047958,-0.004 0.087669,0.0279 0.1371876,0.0265 0.055609,-0.002 0.1114704,-0.008 0.1665494,0.0134 0.04665,0.0181 0.0972,0.009 0.145931,0.008 0.06358,-0.001 0.127139,7e-5 0.190618,0.003 0.04455,0.002 0.08516,-0.0192 0.128333,-0.0255 0.04472,-0.007 0.09116,0.008 0.134694,-0.009 0.03948,-0.0158 0.08225,-0.0203 0.124146,-0.0148 0.04167,0.005 0.08117,-0.009 0.121082,-0.0192 0.05969,-0.0151 0.121517,0.004 0.181899,-0.0124 0.0646,-0.0172 0.128331,-0.0479 0.196845,-0.0394 0.05204,0.006 0.10355,-0.004 0.153361,-0.0181 0.05192,-0.0146 0.106925,0.007 0.158119,-0.0131 0.03727,-0.0143 0.0769,-0.0172 0.116843,-0.0146 0.06073,0.004 0.11713,-0.0229 0.17545,-0.0355 0.08567,-0.0186 0.164553,-0.0613 0.251358,-0.0747 0.04566,-0.007 0.08655,-0.0223 0.134486,-0.0301 0.04338,-0.007 0.08526,-0.008 0.128538,-0.0242 0.0571,-0.0211 0.113645,-0.0489 0.15856,-0.0896 0.03087,-0.0279 0.05848,-0.0592 0.09617,-0.0794 0.05061,-0.0272 0.07307,-0.0914 0.130476,-0.10691 0.04668,-0.0126 0.07529,-0.0511 0.111945,-0.0797 0.08039,-0.0629 0.183884,-0.0976 0.247258,-0.18066 0.03655,-0.0479 0.105309,-0.0473 0.144351,-0.092 0.03413,-0.0391 0.07076,-0.0757 0.108701,-0.11097 0.0298,-0.0277 0.03281,-0.0881 0.07999,-0.0904 0.05632,-0.003 0.118816,-0.0443 0.121248,-0.0945 0.0025,-0.0521 0.05928,-0.0431 0.07996,-0.0869 0.02952,-0.0625 0.05305,-0.12759 0.07377,-0.19353 0.01332,-0.0424 0.02469,-0.0861 0.05457,-0.12118 0.03822,-0.0448 0.03641,-0.10634 0.05376,-0.1601 0.01538,-0.0476 0.03651,-0.0872 0.03616,-0.143 -8.23e-4,-0.12963 -0.0056,-0.25935 -0.0013,-0.38889 0.0019,-0.0568 0.02542,-0.11157 0.02449,-0.16803 -0.0013,-0.0776 -0.0081,-0.15669 0.01345,-0.23237 0.01876,-0.066 0.0023,-0.13481 0.01,-0.20172 0.0077,-0.0673 0.02662,-0.13288 0.02501,-0.20162 -0.0026,-0.11158 -0.007,-0.22338 -0.0012,-0.33483 0.0028,-0.0528 0.0096,-0.11036 -0.01935,-0.15666 -0.02972,-0.0476 0.0076,-0.11747 -0.02964,-0.15506 -0.03449,-0.0348 -0.01656,-0.0806 -0.03215,-0.12276 -0.02888,-0.0781 -0.04654,-0.16037 -0.07914,-0.23691 -0.01613,-0.0379 -0.05354,-0.0642 -0.05911,-0.10742 -0.0048,-0.0375 -0.01455,-0.0753 -0.04022,-0.10465 -0.02922,-0.0334 -0.04403,-0.075 -0.06823,-0.11213 -0.02075,-0.0319 -0.03339,-0.0669 -0.04624,-0.1003 -0.01446,-0.0376 -0.03617,-0.0713 -0.05984,-0.10386 -0.02618,-0.036 -0.02222,-0.0863 -0.05442,-0.11911 -0.03265,-0.0333 -0.03447,-0.0821 -0.05543,-0.12143 -0.02276,-0.0427 -0.04942,-0.0851 -0.05359,-0.13457 -0.0031,-0.0363 -0.02685,-0.0641 -0.04747,-0.0925 -0.02993,-0.0412 -0.01299,-0.10184 -0.05016,-0.13868 -0.03275,-0.0325 -0.03715,-0.0796 -0.05645,-0.11946 -0.02229,-0.046 -0.04483,-0.0911 -0.06058,-0.14062 -0.01429,-0.0449 -0.06016,-0.0736 -0.06541,-0.12237 -0.0055,-0.051 -0.05807,-0.0786 -0.06568,-0.12825 -0.006,-0.0393 -0.01543,-0.0786 -0.04009,-0.11138 -0.0335,-0.0445 -0.07703,-0.0873 -0.08132,-0.14628 -0.0028,-0.038 -0.02449,-0.0695 -0.04661,-0.0994 -0.02299,-0.0311 -0.03307,-0.0699 -0.05933,-0.099 -0.03136,-0.0347 -0.03263,-0.084 -0.05427,-0.12352 -0.02143,-0.0392 -0.04353,-0.0742 -0.07432,-0.11029 -0.02444,-0.0286 -0.03833,-0.0514 -0.07552,-0.0792 -0.04133,-0.0309 -0.07092,-0.0757 -0.110899,-0.10857 -0.03776,-0.0311 -0.06665,-0.0713 -0.111369,-0.096 -0.04027,-0.0222 -0.08238,-0.0397 -0.110789,-0.0795 -0.02737,-0.0383 -0.08414,-0.042 -0.105809,-0.0812 -0.02501,-0.0453 -0.07779,-0.05 -0.110142,-0.0888 -0.0262,-0.0314 -0.06399,-0.0462 -0.100289,-0.0632 -0.03973,-0.0187 -0.05891,-0.0626 -0.09812,-0.0809 -0.04936,-0.023 -0.118291,-0.0294 -0.143762,-0.0778 -0.01794,-0.0341 -0.05257,-0.0564 -0.08416,-0.077 -0.04889,-0.032 -0.09138,-0.0706 -0.140491,-0.10484 -0.03672,-0.0256 -0.06768,-0.0534 -0.105868,-0.0812 -0.03599,-0.0262 -0.07264,-0.0498 -0.105467,-0.0817 -0.05705,-0.0554 -0.108957,-0.11645 -0.177062,-0.16047 -0.06735,-0.0435 -0.102898,-0.12646 -0.17802,-0.15828 -0.04398,-0.0186 -0.06089,-0.0748 -0.112412,-0.0792 -0.06025,-0.005 -0.07381,-0.0846 -0.12902,-0.0958 -0.0531,-0.0108 -0.07469,-0.0802 -0.124747,-0.0838 -0.05104,-0.004 -0.07748,-0.0459 -0.117129,-0.0724 -0.0318,-0.0212 -0.06556,-0.0398 -0.09069,-0.07 -0.02975,-0.0358 -0.08153,-0.0445 -0.106495,-0.0855 -0.02522,-0.0414 -0.04653,-0.10147 -0.100951,-0.10509 -0.05871,-0.004 -0.08819,-0.0591 -0.125431,-0.0963 -0.033407,-0.0333 -0.076425,-0.051 -0.1169105,-0.0739 -0.041883,-0.0237 -0.081778,-0.0494 -0.1236156,-0.0742 -0.039017,-0.0232 -0.072523,-0.0584 -0.1195609,-0.0649 -0.050932,-0.007 -0.082966,-0.0452 -0.1249256,-0.0693 -0.03417,-0.0196 -0.07584,-0.0246 -0.1065106,-0.0394 -0.049149,-0.0238 -0.087969,-0.0635 -0.1428418,-0.0783 -0.057861,-0.0156 -0.1047352,-0.0572 -0.1641311,-0.0694 -0.047803,-0.01 -0.075458,-0.0577 -0.1249073,-0.0649 -0.035583,-0.005 -0.07106,-0.0141 -0.099787,-0.0383 -0.037073,-0.0312 -0.086995,-0.0405 -0.1346461,-0.0471 -0.048055,-0.007 -0.08434,-0.0414 -0.1250923,-0.0648 -0.058108,-0.0333 -0.1336462,-0.0282 -0.1845972,-0.0753 -0.046178,-0.0427 -0.120459,-0.0282 -0.1673364,-0.0657 -0.036457,-0.0292 -0.080991,-0.0437 -0.1131103,-0.0811 -0.024177,-0.0282 -0.080628,0.008 -0.08661,-0.0214 -0.00555,-0.0272 -0.017584,-0.0332 -0.053861,-0.0415 -0.039625,-0.009 -0.058295,-0.0569 -0.089974,-0.0809 -0.037026,-0.0281 -0.06421,-0.0652 -0.1088382,-0.0836 -0.037528,-0.0155 -0.068918,-0.0396 -0.094477,-0.0722 -0.028189,-0.0359 -0.068013,-0.048 -0.1037282,-0.0805 -0.0324,-0.0295 -0.076084,-0.0418 -0.1144548,-0.0622 -0.062301,-0.0331 -0.1291915,-0.0549 -0.1931855,-0.0859 -0.04174,-0.0202 -0.084716,-0.0366 -0.129084,-0.0513 -0.09435,-0.0312 -0.1863043,-0.0709 -0.2829447,-0.094 -0.042363,-0.0101 -0.089547,-0.0132 -0.1228052,-0.0452 -0.042326,-0.0407 -0.1036862,-0.0393 -0.1568171,-0.0549 -0.04109,-0.0121 -0.073967,-0.028 -0.1179162,-0.0404 -0.042863,-0.0121 -0.086305,-0.025 -0.1320653,-0.0194 -0.047308,0.006 -0.071541,-0.0437 -0.1129769,-0.0563 -0.1238417,-0.0378 -0.2471119,-0.0775 -0.3693155,-0.12036 -0.047554,-0.0167 -0.089916,-0.0175 -0.1429306,-0.035 -0.03971,-0.0131 -0.082854,-0.032 -0.1134121,-0.0607 -0.026578,-0.0249 -0.069932,-1.7e-4 -0.1001171,-0.0304 -0.031179,-0.0312 -0.074891,-0.0171 -0.1115461,-0.0305 -0.037013,-0.0136 -0.062584,-0.0419 -0.1104604,-0.0428 -0.041017,-7.1e-4 -0.087374,-0.0153 -0.1110014,-0.0475 -0.026995,-0.0368 -0.083664,-0.0333 -0.1114189,-0.0667 -0.028723,-0.0345 -0.079555,-0.037 -0.1112852,-0.0669 -0.031719,-0.0299 -0.069678,-0.0511 -0.1103637,-0.0685 -0.038121,-0.0163 -0.070664,-0.0627 -0.1112702,-0.0553 -0.043008,0.008 -0.079505,-0.0159 -0.1173162,-0.0336 -0.041349,-0.0194 -0.072217,-0.0506 -0.1101938,-0.0781 -0.033892,-0.0246 -0.073913,-0.0395 -0.1119424,-0.0569 -0.064385,-0.0294 -0.1208203,-0.0733 -0.185068,-0.10364 -0.040982,-0.0193 -0.062321,-0.0668 -0.1069029,-0.0787 -0.047096,-0.0125 -0.068314,-0.0614 -0.1103598,-0.0802 -0.040793,-0.0182 -0.074608,-0.043 -0.1112312,-0.0726 -0.033145,-0.0268 -0.04922,-0.0723 -0.095257,-0.0817 -0.028561,-0.006 -0.050778,0.002 -0.082038,-0.0213 -0.037595,-0.0278 -0.048697,-0.0745 -0.078499,-0.10771 -0.032831,-0.0366 -0.079629,-0.0616 -0.098165,-0.11046 -0.017787,-0.0469 -0.070927,-0.0639 -0.090951,-0.11096 -0.00341,-0.008 -0.00684,-0.0161 -0.011692,-0.0234"
       id="path58"
       inkscape:connector-curvature="0"
       inkscape:path-effect="#path-effect60"
       inkscape:original-d="m 2.1515196,285.51742 c 0.066906,-0.0267 0.1194421,-0.0234 0.1870887,-0.0234 0.0078,0 0.016414,-0.003 0.023386,0 0.00986,0.005 0.013526,0.0185 0.023386,0.0234 0.00697,0.003 0.016414,-0.003 0.023386,0 0.00986,0.005 0.015591,0.0156 0.023386,0.0234 0.015591,0.0156 0.029133,0.0335 0.046772,0.0468 0.013945,0.0104 0.032827,0.0129 0.046772,0.0234 0.017639,0.0132 0.031182,0.0312 0.046772,0.0468 l 0.046772,0.0468 c 0.038977,0.039 0.081643,0.0746 0.1169306,0.11693 0.1104736,0.13256 -0.020823,0.004 0.093544,0.1637 0.1913313,0.26786 -0.060009,-0.15682 0.1403165,0.1637 0.2228908,0.35663 -0.1742906,-0.22636 0.1169305,0.21048 0.043241,0.0649 0.097076,0.12222 0.1403164,0.18709 0.025215,0.0378 0.044945,0.0791 0.070158,0.11693 0.021622,0.0324 0.048538,0.0611 0.070158,0.0935 0.1116484,0.16747 0.028668,0.0664 0.1403165,0.23386 0.021619,0.0324 0.048538,0.0611 0.070158,0.0935 0.025215,0.0378 0.046772,0.078 0.070158,0.11694 l 0.2104747,0.35079 c 0.023386,0.039 0.044092,0.0797 0.070158,0.11693 0.028624,0.0409 0.0629,0.0775 0.093545,0.11693 0.023929,0.0308 0.046229,0.0628 0.070158,0.0935 0.030645,0.0394 0.06492,0.076 0.093544,0.11693 0.026067,0.0372 0.044092,0.0797 0.070158,0.11693 0.057249,0.0818 0.1283719,0.15313 0.1870888,0.23386 0.033063,0.0455 0.060481,0.0949 0.093544,0.14032 0.029358,0.0404 0.062363,0.0779 0.093545,0.11693 0.1548781,0.1936 0.032211,0.0403 0.1870884,0.23386 0.031182,0.039 0.06492,0.076 0.093545,0.11693 0.026067,0.0372 0.042252,0.0811 0.070158,0.11693 0.027073,0.0348 0.064506,0.0604 0.093544,0.0936 0.025667,0.0293 0.046229,0.0628 0.070158,0.0935 0.037831,0.0486 0.1261134,0.15409 0.1637028,0.21048 0.025215,0.0378 0.045755,0.0786 0.070158,0.11693 0.03018,0.0474 0.063365,0.0929 0.093544,0.14031 0.048807,0.0767 0.093545,0.15591 0.1403165,0.23386 0.023386,0.039 0.048392,0.077 0.070158,0.11693 0.02504,0.0459 0.045118,0.0944 0.070158,0.14032 0.024344,0.0848 0.099367,0.13677 0.1403165,0.21047 0.020386,0.0367 0.026384,0.0802 0.046772,0.11694 0.018928,0.0341 0.046772,0.0624 0.070158,0.0935 0.2292874,0.30572 -0.054051,-0.0757 0.1169305,0.1637 0.022654,0.0317 0.049501,0.0605 0.070158,0.0936 0.018476,0.0296 0.028295,0.064 0.046772,0.0935 0.020659,0.0331 0.046772,0.0624 0.070158,0.0935 0.2292874,0.30571 -0.054051,-0.0757 0.1169302,0.1637 0.022656,0.0317 0.047504,0.0618 0.070158,0.0935 0.081395,0.11395 0.015243,0.0267 0.093545,0.1637 0.013944,0.0244 0.032827,0.0458 0.046772,0.0702 0.017296,0.0303 0.028295,0.064 0.046772,0.0935 0.020659,0.0331 0.049501,0.0605 0.070158,0.0935 0.055181,0.0883 0.085136,0.19235 0.1403165,0.28063 0.020659,0.0331 0.051229,0.0595 0.070158,0.0935 0.020386,0.0367 0.029723,0.0786 0.046772,0.11693 0.028317,0.0637 0.065227,0.12337 0.093544,0.18709 0.098709,0.22209 0.00334,0.0111 0.070158,0.23386 0.048547,0.16182 0.044997,0.072 0.093544,0.23386 0.011422,0.0381 0.012928,0.0786 0.023386,0.11693 0.012973,0.0476 0.0338,0.0927 0.046772,0.14032 0.010459,0.0383 0.010816,0.0792 0.023386,0.11693 0.011025,0.0331 0.034531,0.0609 0.046772,0.0935 0.022572,0.0602 0.02145,0.12801 0.046772,0.18709 0.011073,0.0258 0.034202,0.045 0.046772,0.0702 0.011025,0.0221 0.012361,0.0481 0.023386,0.0702 0.01257,0.0251 0.034202,0.045 0.046772,0.0702 0.011025,0.0221 0.012361,0.0481 0.023386,0.0702 0.025138,0.0503 0.068405,0.09 0.093544,0.14032 0.011025,0.022 0.012361,0.0481 0.023387,0.0702 0.01257,0.0251 0.032312,0.0461 0.046772,0.0702 0.00897,0.0149 0.014417,0.0318 0.023386,0.0468 0.01446,0.0241 0.034203,0.045 0.046772,0.0702 0.011025,0.022 0.013676,0.0475 0.023386,0.0702 0.013732,0.032 0.033039,0.0615 0.046772,0.0935 0.00971,0.0227 0.012361,0.0481 0.023386,0.0702 0.01257,0.0251 0.0357,0.0443 0.046772,0.0702 0.01266,0.0295 0.010726,0.064 0.023386,0.0935 0.011073,0.0258 0.034202,0.045 0.046772,0.0702 0.011025,0.0221 0.010702,0.049 0.023387,0.0702 0.011343,0.0189 0.033543,0.0291 0.046772,0.0468 0.010459,0.0139 0.012928,0.0328 0.023387,0.0468 0.013229,0.0176 0.033543,0.0291 0.046772,0.0468 0.010459,0.014 0.012928,0.0328 0.023387,0.0468 0.013229,0.0176 0.031181,0.0312 0.046772,0.0468 l 0.046772,0.0468 c 0.015592,0.0156 0.029133,0.0335 0.046772,0.0468 0.013944,0.0105 0.032827,0.0129 0.046772,0.0234 0.01764,0.0132 0.029555,0.033 0.046772,0.0468 0.021947,0.0176 0.048566,0.0288 0.070158,0.0468 0.025408,0.0212 0.044751,0.049 0.070158,0.0702 0.021593,0.018 0.048566,0.0288 0.070158,0.0468 0.025408,0.0212 0.044751,0.049 0.070158,0.0702 0.062156,0.0518 0.090923,0.052 0.1637028,0.0935 0.024403,0.0139 0.044324,0.0357 0.070158,0.0468 0.1138854,0.0488 0.063111,0.009 0.1637025,0.0234 0.031818,0.005 0.062363,0.0156 0.093545,0.0234 0.031181,0.008 0.06264,0.0146 0.093544,0.0234 0.023701,0.007 0.045755,0.0199 0.070158,0.0234 0.030868,0.004 0.062604,-0.004 0.093544,0 0.031893,0.004 0.061726,0.0188 0.093544,0.0234 0.023151,0.003 0.047007,-0.003 0.070158,0 0.031818,0.005 0.061726,0.0188 0.093544,0.0234 0.023151,0.003 0.047091,-0.004 0.070158,0 0.024315,0.004 0.045755,0.0199 0.070158,0.0234 0.054019,0.008 0.1098775,-0.009 0.163702,0 0.02432,0.004 0.04575,0.0199 0.07016,0.0234 0.03087,0.004 0.06236,0 0.09354,0 h 0.09354 c 0.05457,0 0.109557,0.007 0.163703,0 0.03189,-0.004 0.06165,-0.0194 0.09354,-0.0234 0.03094,-0.004 0.0626,0.004 0.09355,0 0.03189,-0.004 0.0616,-0.0198 0.09354,-0.0234 0.03874,-0.004 0.07819,0.004 0.11693,0 0.03195,-0.004 0.0616,-0.0198 0.09355,-0.0234 0.03874,-0.004 0.07819,0.004 0.11693,0 0.06389,-0.007 0.1232,-0.0397 0.187089,-0.0468 0.03874,-0.004 0.07815,0.004 0.11693,0 0.03955,-0.004 0.07742,-0.019 0.11693,-0.0234 0.03099,-0.003 0.0626,0.004 0.09354,0 0.03189,-0.004 0.06165,-0.0194 0.09354,-0.0234 0.03094,-0.004 0.0626,0.004 0.09354,0 0.03189,-0.004 0.06236,-0.0156 0.09354,-0.0234 0.03118,-0.008 0.06264,-0.0146 0.09354,-0.0234 0.04741,-0.0135 0.09291,-0.0332 0.140317,-0.0468 0.0309,-0.009 0.06264,-0.0146 0.09354,-0.0234 0.0237,-0.007 0.04599,-0.0186 0.07016,-0.0234 0.01529,-0.003 0.03148,0.003 0.04677,0 0.02417,-0.005 0.04599,-0.0186 0.07016,-0.0234 0.01529,-0.003 0.03165,0.004 0.04677,0 0.03377,-0.008 0.141398,-0.0757 0.163703,-0.0935 0.01722,-0.0138 0.02956,-0.033 0.04677,-0.0468 0.02195,-0.0175 0.04857,-0.0288 0.07016,-0.0468 0.02541,-0.0212 0.04325,-0.0509 0.07016,-0.0702 0.02837,-0.0203 0.06454,-0.0274 0.09354,-0.0468 0.01835,-0.0122 0.02956,-0.033 0.04677,-0.0468 0.06394,-0.0512 0.147914,-0.0882 0.210475,-0.14032 0.02541,-0.0212 0.04325,-0.0509 0.07016,-0.0702 0.02837,-0.0203 0.06518,-0.0265 0.09354,-0.0468 0.02691,-0.0192 0.04677,-0.0468 0.07016,-0.0702 0.02339,-0.0234 0.04899,-0.0448 0.07016,-0.0702 0.018,-0.0216 0.02483,-0.0526 0.04677,-0.0702 0.01925,-0.0154 0.04902,-0.0107 0.07016,-0.0234 0.01891,-0.0113 0.03118,-0.0312 0.04677,-0.0468 0.0078,-0.008 0.01727,-0.0142 0.02339,-0.0234 0.0097,-0.0145 0.01106,-0.0344 0.02339,-0.0468 0.01233,-0.0123 0.03445,-0.0111 0.04677,-0.0234 0.01233,-0.0123 0.01559,-0.0312 0.02339,-0.0468 0.03016,-0.0603 0.04885,-0.12315 0.07016,-0.18709 0.0078,-0.0234 0.01236,-0.0481 0.02339,-0.0702 0.01257,-0.0251 0.0357,-0.0443 0.04677,-0.0702 0.01266,-0.0295 0.01456,-0.0626 0.02339,-0.0935 0.0068,-0.0237 0.01423,-0.0473 0.02339,-0.0702 0.0065,-0.0162 0.01997,-0.0297 0.02339,-0.0468 0.0046,-0.0229 0,-0.0468 0,-0.0702 v -0.0702 -0.23386 c 0,-0.0312 -0.0031,-0.0625 0,-0.0935 0.0047,-0.0472 0.01559,-0.0935 0.02339,-0.14032 0,-0.0546 -0.0042,-0.10929 0,-0.1637 0.0036,-0.0473 0.01945,-0.0931 0.02339,-0.14032 0.0039,-0.0466 -0.0039,-0.0937 0,-0.14031 0.0039,-0.0473 0.01945,-0.0931 0.02339,-0.14032 0.0039,-0.0466 0,-0.0935 0,-0.14032 v -0.11693 -0.11693 c 0,-0.039 0.0048,-0.0782 0,-0.11693 -0.0061,-0.0489 -0.03867,-0.0917 -0.04677,-0.14031 -0.0038,-0.0231 0.0046,-0.0472 0,-0.0702 -0.0034,-0.0171 -0.01916,-0.0299 -0.02339,-0.0468 -0.0038,-0.0151 0.0031,-0.0315 0,-0.0468 -0.0048,-0.0242 -0.01559,-0.0468 -0.02339,-0.0701 -0.0078,-0.0234 -0.01559,-0.0468 -0.02339,-0.0702 -0.0078,-0.0234 -0.01559,-0.0468 -0.02339,-0.0702 -0.0078,-0.0234 -0.01236,-0.0481 -0.02339,-0.0702 -0.01257,-0.0251 -0.0357,-0.0443 -0.04677,-0.0702 -0.01266,-0.0295 -0.01072,-0.064 -0.02339,-0.0935 -0.01107,-0.0258 -0.03231,-0.0461 -0.04677,-0.0702 -0.009,-0.0149 -0.01442,-0.0318 -0.02339,-0.0468 -0.01446,-0.0241 -0.03231,-0.0461 -0.04677,-0.0702 -0.0613,-0.10217 0.02016,0.0169 -0.04677,-0.11693 -0.01257,-0.0251 -0.0342,-0.045 -0.04677,-0.0702 -0.01103,-0.0221 -0.01236,-0.0481 -0.02339,-0.0702 -0.01257,-0.0251 -0.0342,-0.045 -0.04677,-0.0702 -0.01103,-0.022 -0.01368,-0.0475 -0.02339,-0.0702 -0.01373,-0.032 -0.03453,-0.0609 -0.04677,-0.0935 -0.01129,-0.0301 -0.01073,-0.064 -0.02339,-0.0935 -0.01107,-0.0258 -0.0357,-0.0443 -0.04677,-0.0702 -0.01266,-0.0295 -0.01073,-0.064 -0.02339,-0.0935 -0.01107,-0.0258 -0.0342,-0.045 -0.04677,-0.0702 -0.01102,-0.022 -0.01368,-0.0475 -0.02339,-0.0702 -0.01373,-0.032 -0.03304,-0.0615 -0.04677,-0.0935 -0.0097,-0.0226 -0.01236,-0.0481 -0.02339,-0.0702 -0.01257,-0.0251 -0.0342,-0.045 -0.04677,-0.0702 -0.01103,-0.022 -0.01236,-0.0481 -0.02339,-0.0702 -0.01257,-0.0251 -0.0357,-0.0443 -0.04677,-0.0702 -0.01266,-0.0295 -0.01073,-0.064 -0.02339,-0.0935 -0.02214,-0.0517 -0.0714,-0.0887 -0.09354,-0.14032 -0.01266,-0.0295 -0.01073,-0.064 -0.02339,-0.0935 -0.01107,-0.0258 -0.03231,-0.0461 -0.04677,-0.0702 -0.009,-0.0149 -0.01442,-0.0318 -0.02339,-0.0468 -0.01446,-0.0241 -0.0342,-0.045 -0.04677,-0.0702 -0.01103,-0.022 -0.01423,-0.0473 -0.02339,-0.0702 -0.0065,-0.0162 -0.01559,-0.0312 -0.02339,-0.0468 -0.0078,-0.0156 -0.01293,-0.0328 -0.02339,-0.0468 -0.01323,-0.0176 -0.03354,-0.0291 -0.04677,-0.0468 -0.01046,-0.0139 -0.01106,-0.0344 -0.02339,-0.0468 -0.01233,-0.0123 -0.03227,-0.0137 -0.04677,-0.0234 -0.01835,-0.0122 -0.03118,-0.0312 -0.04677,-0.0468 -0.03118,-0.0312 -0.06236,-0.0624 -0.09354,-0.0935 -0.01559,-0.0156 -0.02913,-0.0335 -0.04677,-0.0468 -0.01394,-0.0105 -0.03283,-0.0129 -0.04677,-0.0234 -0.01764,-0.0132 -0.02913,-0.0335 -0.04677,-0.0468 -0.01394,-0.0105 -0.03283,-0.0129 -0.04677,-0.0234 -0.01764,-0.0132 -0.02913,-0.0335 -0.04677,-0.0468 -0.01394,-0.0105 -0.03283,-0.0129 -0.04677,-0.0234 -0.01764,-0.0132 -0.02913,-0.0335 -0.04677,-0.0468 -0.01394,-0.0105 -0.03283,-0.0129 -0.04677,-0.0234 -0.01764,-0.0132 -0.02913,-0.0335 -0.04677,-0.0468 -0.01394,-0.0105 -0.03118,-0.0156 -0.04677,-0.0234 -0.02339,-0.0156 -0.04821,-0.0292 -0.07016,-0.0468 -0.01722,-0.0138 -0.02843,-0.0345 -0.04677,-0.0468 -0.02901,-0.0193 -0.06327,-0.0295 -0.09354,-0.0468 -0.125965,-0.072 -0.0209,-0.0167 -0.11693,-0.0935 -0.04389,-0.0351 -0.09642,-0.0584 -0.140317,-0.0935 -0.01722,-0.0138 -0.02913,-0.0335 -0.04677,-0.0468 -0.01394,-0.0105 -0.03283,-0.0129 -0.04677,-0.0234 -0.01764,-0.0132 -0.02956,-0.033 -0.04677,-0.0468 -0.02195,-0.0176 -0.04821,-0.0292 -0.07016,-0.0468 -0.01722,-0.0138 -0.03118,-0.0312 -0.04677,-0.0468 -0.03898,-0.039 -0.07458,-0.0816 -0.11693,-0.11693 -0.02159,-0.018 -0.04857,-0.0288 -0.07016,-0.0468 -0.04235,-0.0353 -0.07389,-0.0825 -0.116931,-0.11693 -0.02195,-0.0176 -0.04821,-0.0292 -0.07016,-0.0468 -0.01722,-0.0138 -0.02787,-0.0354 -0.04677,-0.0468 -0.02114,-0.0127 -0.04902,-0.0107 -0.07016,-0.0234 -0.01891,-0.0113 -0.02956,-0.033 -0.04677,-0.0468 -0.02734,-0.0424 -0.08057,-0.0429 -0.11693,-0.0702 -0.01764,-0.0132 -0.02787,-0.0354 -0.04677,-0.0468 -0.02114,-0.0127 -0.04902,-0.0107 -0.07016,-0.0234 -0.01891,-0.0113 -0.02956,-0.033 -0.04677,-0.0468 -0.02195,-0.0176 -0.04821,-0.0292 -0.07016,-0.0468 -0.01722,-0.0138 -0.02956,-0.033 -0.04677,-0.0468 -0.02195,-0.0175 -0.05028,-0.0269 -0.07016,-0.0468 -0.0478,-0.0478 -0.03569,-0.0822 -0.09355,-0.11693 -0.02114,-0.0127 -0.04902,-0.0107 -0.07016,-0.0234 -0.03781,-0.0227 -0.05911,-0.066 -0.09354,-0.0935 -0.086198,-0.069 -0.044067,-0.0264 -0.1169302,-0.0702 -0.024101,-0.0145 -0.046057,-0.0323 -0.070158,-0.0468 -0.014946,-0.009 -0.031825,-0.0144 -0.046772,-0.0234 -0.024101,-0.0145 -0.045019,-0.0342 -0.070158,-0.0468 -0.022048,-0.011 -0.04727,-0.0142 -0.070158,-0.0234 -0.087508,-0.035 -0.00712,-0.0152 -0.1169304,-0.0702 -0.1338586,-0.0669 -0.014761,0.0145 -0.1169305,-0.0468 -0.024101,-0.0145 -0.045019,-0.0342 -0.070158,-0.0468 -0.022048,-0.011 -0.0475,-0.0137 -0.070158,-0.0234 -0.032043,-0.0137 -0.061501,-0.033 -0.093544,-0.0468 -0.022659,-0.01 -0.04811,-0.0124 -0.070158,-0.0234 -0.025138,-0.0126 -0.044324,-0.0357 -0.070158,-0.0468 -0.029542,-0.0127 -0.064002,-0.0107 -0.093544,-0.0234 -0.025834,-0.0111 -0.044324,-0.0357 -0.070158,-0.0468 -0.104901,-0.045 -0.072684,-0.001 -0.1637025,-0.0468 -0.025141,-0.0126 -0.045019,-0.0342 -0.070158,-0.0468 -0.044097,-0.0221 -0.096219,-0.0247 -0.1403164,-0.0468 -0.025141,-0.0126 -0.045019,-0.0342 -0.070158,-0.0468 -0.044097,-0.022 -0.09804,-0.0214 -0.1403164,-0.0468 -0.018907,-0.0113 -0.029133,-0.0335 -0.046772,-0.0468 -0.013946,-0.0105 -0.031181,-0.0156 -0.046772,-0.0234 -0.015592,-0.008 -0.029862,-0.0192 -0.046772,-0.0234 -0.015126,-0.004 -0.0338,0.009 -0.046772,0 -0.014504,-0.01 -0.00888,-0.0371 -0.023387,-0.0468 -0.012973,-0.009 -0.031981,0.005 -0.046772,0 -0.013645,-0.005 -0.072456,-0.0795 -0.093544,-0.0935 -0.014504,-0.01 -0.031182,-0.0156 -0.046772,-0.0234 -0.015592,-0.0156 -0.029133,-0.0335 -0.046772,-0.0468 -0.013943,-0.0104 -0.032268,-0.0137 -0.046772,-0.0234 -0.027519,-0.0183 -0.0437,-0.0503 -0.070158,-0.0702 -0.013944,-0.0105 -0.032827,-0.0129 -0.046772,-0.0234 -0.01764,-0.0132 -0.029133,-0.0335 -0.046772,-0.0468 -0.013944,-0.0105 -0.031181,-0.0156 -0.046772,-0.0234 -0.015589,-0.008 -0.031181,-0.0156 -0.046772,-0.0234 -0.046064,-0.023 -0.092518,-0.051 -0.1403165,-0.0702 -0.022889,-0.009 -0.04727,-0.0142 -0.070158,-0.0234 -0.016185,-0.006 -0.030588,-0.0169 -0.046772,-0.0234 -0.022889,-0.009 -0.046772,-0.0156 -0.070158,-0.0234 l -0.2104747,-0.0702 c -0.023386,-0.008 -0.046456,-0.0166 -0.070158,-0.0234 -0.030904,-0.009 -0.064002,-0.0107 -0.093545,-0.0234 -0.025834,-0.0111 -0.044324,-0.0357 -0.070158,-0.0468 -0.029542,-0.0127 -0.06264,-0.0146 -0.093544,-0.0234 -0.1730608,-0.0495 0.032744,0.003 -0.1403165,-0.0468 -0.030904,-0.009 -0.061726,-0.0188 -0.093545,-0.0234 -0.023151,-0.003 -0.047972,0.007 -0.070158,0 -0.026664,-0.009 -0.045019,-0.0342 -0.070158,-0.0468 -0.022048,-0.011 -0.046772,-0.0156 -0.070158,-0.0234 l -0.2104747,-0.0702 c -0.046772,-0.0156 -0.094541,-0.0285 -0.1403165,-0.0468 -0.016185,-0.006 -0.02968,-0.02 -0.046772,-0.0234 -0.022931,-0.005 -0.047226,0.005 -0.070158,0 -0.017092,-0.003 -0.031181,-0.0156 -0.046772,-0.0234 -0.015592,-0.008 -0.032269,-0.0137 -0.046772,-0.0234 -0.00917,-0.006 -0.012928,-0.0199 -0.023386,-0.0234 -0.01479,-0.005 -0.031647,0.004 -0.046772,0 -0.033821,-0.008 -0.059723,-0.0383 -0.093544,-0.0468 -0.015126,-0.004 -0.031647,0.004 -0.046772,0 -0.073784,-0.0184 -0.019762,-0.0283 -0.093545,-0.0468 -0.015126,-0.004 -0.031647,0.004 -0.046772,0 -0.016909,-0.004 -0.031181,-0.0156 -0.046772,-0.0234 -0.015592,-0.008 -0.032269,-0.0137 -0.046772,-0.0234 -0.00917,-0.006 -0.014214,-0.0173 -0.023387,-0.0234 -0.029007,-0.0193 -0.064537,-0.0274 -0.093544,-0.0468 -0.00917,-0.006 -0.014213,-0.0173 -0.023387,-0.0234 -0.029007,-0.0193 -0.064537,-0.0274 -0.093544,-0.0468 -0.00917,-0.006 -0.014214,-0.0173 -0.023387,-0.0234 -0.029007,-0.0193 -0.062363,-0.0312 -0.093545,-0.0468 -0.015589,-0.008 -0.031181,-0.0156 -0.046772,-0.0234 -0.015592,-0.008 -0.029861,-0.0192 -0.046772,-0.0234 -0.015126,-0.004 -0.031647,0.004 -0.046772,0 -0.010234,-0.003 -0.1311117,-0.0632 -0.1403165,-0.0702 -0.01764,-0.0132 -0.029133,-0.0335 -0.046772,-0.0468 -0.013943,-0.0105 -0.031181,-0.0156 -0.046772,-0.0234 -0.061688,-0.0308 -0.1279716,-0.0581 -0.1870888,-0.0935 -0.024101,-0.0145 -0.046057,-0.0323 -0.070158,-0.0468 -0.014946,-0.009 -0.032827,-0.0129 -0.046772,-0.0234 -0.01764,-0.0132 -0.029133,-0.0335 -0.046772,-0.0468 -0.013944,-0.0105 -0.032827,-0.0129 -0.046772,-0.0234 -0.01764,-0.0132 -0.029133,-0.0335 -0.046772,-0.0468 -0.013944,-0.0105 -0.031181,-0.0156 -0.046772,-0.0234 -0.015592,-0.008 -0.032827,-0.0129 -0.046772,-0.0234 -0.01764,-0.0132 -0.029133,-0.0335 -0.046772,-0.0468 -0.013944,-0.0104 -0.032269,-0.0137 -0.046772,-0.0234 -0.00917,-0.006 -0.014213,-0.0173 -0.023386,-0.0234 -0.011777,-0.0515 -0.04811,-0.0124 -0.070158,-0.0234 -0.00968,-0.005 -0.06355,-0.0602 -0.070158,-0.0702 -0.00967,-0.0145 -0.013716,-0.0323 -0.023386,-0.0468 -0.022942,-0.0344 -0.070603,-0.0591 -0.093544,-0.0935 -0.00967,-0.0145 -0.013716,-0.0323 -0.023386,-0.0468 -0.017989,-0.027 -0.052169,-0.0432 -0.070158,-0.0702 -0.00967,-0.0145 -0.013719,-0.0323 -0.023386,-0.0468"
       sodipodi:nodetypes="cscccccccccccccccccccccccccccccccccccccccccccccccccccccccccccccccccccccccccccccccccccccccccccccccccccccccccssccccccccccccccccccccccccccccccsccccccccccccccscsccccccscsccccccsscccccccccccccccccccccccccccccsccccscccccccccccccccccccccccccccccccccccccccccccccccccccccccccccccccccccccccccccscccccccccssccccccccccccccccccccccccccccccccccccccccccc"
       transform="matrix(1.0418226,0,0,1.0322849,1.6784721,-9.0384304)" />
    <path
       style="fill:none;stroke:#c87137;stroke-width:0.26458332;stroke-opacity:1"
       d="m 2.1515196,285.51742 c 0.038958,-0.0858 0.023657,-0.24307 0.1169305,-0.25725 0.031442,-0.005 0.063622,-2e-4 0.095471,-1.9e-4 0.02274,1e-5 0.055091,-0.0184 0.068231,1.9e-4 0.00544,0.008 -0.00747,0.0178 0,0.0234 0.014543,0.0109 0.036278,-0.0148 0.046772,0 0.00544,0.008 -0.00747,0.0178 0,0.0234 0.014543,0.0109 0.036278,-0.0148 0.046772,0 0.00544,0.008 -0.00929,0.0225 0,0.0234 0.023228,0.002 0.06581,0.0229 0.070158,0 0.00583,-0.0307 -0.011114,-0.0641 0,-0.0935 0.00802,-0.0212 0.02483,-0.0388 0.025354,-0.0631 7.722e-4,-0.0359 -5.557e-4,-0.0719 -0.00306,-0.10762 0,0 -0.00183,-0.008 -0.00183,-0.008 0,0 0.00292,-0.009 0.00292,-0.009 0.015217,0.003 0.020174,0.0185 0.029235,0.0293 0.012424,0.0149 0.032998,0.0232 0.040923,0.0409 0.00354,0.008 -0.0073,0.0178 0,0.0234 0.00762,0.006 0.018477,-0.008 0.023386,0 0.0057,0.01 -0.00622,0.0208 0.00464,0.0302 0.021309,0.0184 0.03451,0.0458 0.058311,0.0609 0.011885,0.008 0.028363,-0.002 0.02974,-0.0156 0.00419,-0.0405 -0.013125,-0.0837 8.559e-4,-0.12215 0.00833,-0.0229 0.025734,-0.0419 0.025457,-0.0683 -3.982e-4,-0.038 -0.012135,-0.0768 -0.0044,-0.11398 0.00215,-0.0103 0.015983,-0.0115 0.023481,-0.006 0.018855,0.0132 0.034188,0.0306 0.049002,0.0482 0.00909,0.0108 0.017921,0.0256 0.034973,0.0245 0.011625,-7.6e-4 0.02657,-0.0102 0.035185,-0.001 0.00672,0.007 -0.00761,0.0177 0,0.0234 0.0092,0.007 0.019549,-0.006 0.02965,0.006 0.00515,0.006 0.00744,0.0168 0.017123,0.0176 0,0 0.002,-0.009 0.002,-0.009 -0.00812,-0.0186 0.00908,-0.0339 0.016725,-0.0491 0.013274,-0.0265 0.00466,-0.0566 0.00466,-0.0848 0,-0.0927 -0.00448,-0.18558 0,-0.27821 3.874e-4,-0.008 -0.0069,-0.0159 0,-0.0234 0,0 0.00161,0.009 0.00161,0.009 -0.00266,0.007 -0.00322,0.0153 0.00303,0.0211 0.013818,0.013 0.029625,0.0252 0.041005,0.0399 0,0 -0.00103,0.001 -0.00103,0.001 0.00704,0.0196 0.018253,0.0384 0.032212,0.0537 0.019902,0.0219 0.052855,0.0339 0.063494,0.0619 0.00334,0.009 -0.00768,0.0207 0.0052,0.0268 0.00933,0.004 0.02381,-0.003 0.020249,-0.0144 -0.00299,-0.01 -0.00207,-0.0203 -0.00207,-0.0305 0,-0.11091 0.010887,-0.22237 0,-0.33274 -9.41e-4,-0.01 -0.00751,-0.0259 0.00701,-0.0278 0.018524,-0.002 0.025025,0.0221 0.039763,0.0278 0.0079,0.003 0.018586,-0.008 0.023386,0 0.0057,0.01 -0.00568,0.0202 0.00464,0.0302 0.010293,0.01 0.022756,0.018 0.029229,0.0313 0,0 0.0057,0.006 0.0057,0.006 0,0 0.00721,0.003 0.00721,0.003 0,0 0.00292,-0.009 0.00292,-0.009 -0.00506,-0.024 -0.00374,-0.0489 -0.00561,-0.0734 -0.00234,-0.0307 0.011011,-0.0589 0.021386,-0.0871 0.01122,-0.0304 0.00468,-0.0628 0.00468,-0.0944 0,-0.0837 0.00137,-0.16733 0,-0.25098 -2.544e-4,-0.0155 -0.00373,-0.038 0.014085,-0.0454 0,0 0.0093,-0.001 0.0093,-0.001 0,0 8.55e-4,0.01 8.55e-4,0.01 0,0 -0.00208,0.008 -0.00208,0.008 0,0 0.00123,0.006 0.00123,0.006 0.00762,0.006 0.018576,-0.008 0.023386,0 0.00566,0.01 -0.00153,0.0192 0.00256,0.0311 0.00686,0.0199 0.013079,0.0401 0.021044,0.0597 0,0 0.0019,0.001 0.0019,0.001 -1.963e-4,-0.0102 -0.01065,-0.0342 -6.742e-4,-0.0306 0.00927,0.003 0.011544,0.016 0.017261,0.0232 0.00879,0.011 0.00596,0.0251 0.00445,0.0378 -0.00155,0.0131 0.012709,0.0193 0.023614,0.0181 0,0 0.00292,-0.009 0.00292,-0.009 -0.00239,-0.007 -0.00293,-0.0146 -0.00292,-0.022 9.4e-6,-0.0126 -0.00877,-0.0287 -1.254e-4,-0.0379 0.01356,-0.0144 0.025212,-0.0343 0.024549,-0.0538 -3.014e-4,-0.009 -7.823e-4,-0.0177 -0.00104,-0.0267 -2.071e-4,-0.007 6.62e-4,-0.0145 -0.0011,-0.0217 0,0 -0.00183,-0.008 -0.00183,-0.008 0,0 0.00292,-0.009 0.00292,-0.009 0.014976,0.003 0.014717,0.0239 0.031463,0.0262 0.020722,0.003 0.03028,-0.0195 0.043475,-0.031 0.01797,-0.0156 0.0254,-0.0384 0.039428,-0.058 0.00845,-0.0118 -0.00346,-0.0257 0.0072,-0.0377 0.00559,-0.006 0.012821,-0.0107 0.018748,-0.0166"
       id="path72"
       inkscape:connector-curvature="0"
       inkscape:path-effect="#path-effect74"
       inkscape:original-d="m 2.1515196,285.51742 c 0.038977,-0.0858 0.071827,-0.17456 0.1169305,-0.25725 0.00226,-0.004 0.063671,0 0.070158,0 0.00859,0 0.092603,-9.5e-4 0.093544,0 0.00551,0.006 -0.00551,0.0179 0,0.0234 0.011024,0.011 0.035748,-0.011 0.046772,0 0.00551,0.006 -0.00551,0.0179 0,0.0234 0.011024,0.011 0.035748,-0.011 0.046772,0 0.00551,0.006 -0.00551,0.0179 0,0.0234 0.00234,0.002 0.06782,0.002 0.070158,0 0.00628,-0.006 -0.00549,-0.0771 0,-0.0935 0.00551,-0.0165 0.019159,-0.0299 0.023386,-0.0468 0.0053,-0.0212 0,-0.0898 0,-0.11693 0,-0.008 -0.0078,-0.0234 0,-0.0234 0.011024,0 0.015591,0.0156 0.023386,0.0234 0.0078,0.008 0.015591,0.0156 0.023386,0.0234 0.00779,0.008 0.018455,0.0135 0.023386,0.0234 0.00349,0.007 -0.00551,0.0179 0,0.0234 0.00551,0.006 0.017875,-0.006 0.023386,0 0.00551,0.006 -0.00349,0.0164 0,0.0234 0.00493,0.01 0.015592,0.0156 0.023386,0.0234 0.00779,0.008 0.015589,0.0156 0.023386,0.0234 0.00779,0.008 0.012361,0.0234 0.023387,0.0234 0.028899,0 0.023386,-0.0328 0.023386,-0.0468 0,-0.0203 -0.00452,-0.08 0,-0.0935 0.00551,-0.0165 0.017873,-0.0302 0.023386,-0.0468 0.00491,-0.0147 0,-0.0958 0,-0.11693 0,-0.008 -0.00551,-0.0179 0,-0.0234 0.017206,-0.0172 0.042206,0.0188 0.046772,0.0234 0.00779,0.008 0.015592,0.0156 0.023386,0.0234 0.00779,0.008 0.012927,0.0199 0.023386,0.0234 0.01479,0.005 0.032827,-0.007 0.046772,0 0.00697,0.003 -0.00551,0.0179 0,0.0234 0.00551,0.006 0.016415,-0.003 0.023387,0 0.00986,0.005 0.012361,0.0234 0.023386,0.0234 0.00779,0 -0.00246,-0.016 0,-0.0234 0.00551,-0.0165 0.019159,-0.0299 0.023386,-0.0468 0.00567,-0.0227 0,-0.0468 0,-0.0702 0,-0.0702 0,-0.14032 0,-0.21048 0,-0.0234 0,-0.0468 0,-0.0702 0,-0.008 -0.00779,-0.0234 0,-0.0234 0.00779,0 -0.00349,0.0164 0,0.0234 0.00493,0.01 0.015592,0.0156 0.023386,0.0234 0.053621,0.0536 -0.00986,-0.0148 0.046772,0.0702 0.014192,0.0213 0.059794,0.0494 0.070158,0.0702 0.00349,0.007 -0.00551,0.0179 0,0.0234 0.00551,0.006 0.017873,0.006 0.023386,0 0.00551,-0.006 0,-0.0156 0,-0.0234 0,-0.0156 0,-0.0312 0,-0.0468 0,-0.0935 0,-0.18709 0,-0.28064 0,-0.008 0,-0.0156 0,-0.0234 0,-0.008 -0.00551,-0.0179 0,-0.0234 0.018283,-0.0183 0.040683,0.0203 0.046772,0.0234 0.00697,0.003 0.017875,-0.006 0.023386,0 0.00551,0.006 -0.00349,0.0164 0,0.0234 0.00493,0.01 0.015592,0.0156 0.023387,0.0234 0.00779,0.008 0.012361,0.0234 0.023386,0.0234 0.00779,0 0,-0.0156 0,-0.0234 0,-0.0312 -0.00611,-0.063 0,-0.0935 0.00483,-0.0242 0.019333,-0.0458 0.023386,-0.0702 0.00384,-0.0231 0,-0.0468 0,-0.0702 0,-0.0234 0,-0.0468 0,-0.0702 0,-0.0624 0,-0.12473 0,-0.18709 0,-0.014 -0.00551,-0.0468 0.023386,-0.0468 0.00779,0 -0.00551,0.0179 0,0.0234 0.00551,0.006 0.017875,-0.006 0.023386,0 0.00551,0.006 -0.00246,0.016 0,0.0234 0.056465,0.1694 -0.00674,-0.0369 0.046772,0.0702 0.00699,0.014 -0.015394,0.0468 0.023386,0.0468 0.00779,0 0,-0.0156 0,-0.0234 0,-0.008 0,-0.0156 0,-0.0234 0,-0.0528 -0.00349,0.0105 0.023386,-0.0702 0.00246,-0.007 0,-0.0156 0,-0.0234 0,-0.008 0,-0.0156 0,-0.0234 0,-0.008 -0.00779,-0.0234 0,-0.0234 0.011025,0 0.013526,0.0185 0.023387,0.0234 0.022939,0.0115 0.034095,-0.0107 0.046772,-0.0234 0.026757,-0.0268 0.032614,-0.0277 0.046772,-0.0702 0.00246,-0.007 -0.00349,-0.0164 0,-0.0234 0.00493,-0.01 0.015592,-0.0156 0.023386,-0.0234"
       transform="matrix(1.0418226,0,0,1.0322849,1.6784721,-9.0384304)" />
    <path
       style="fill:none;stroke:#28170b;stroke-width:0.26458332;stroke-opacity:1"
       d="m 3.3208229,284.48859 c -0.02047,-0.002 -0.040637,-0.0189 -0.033095,-0.0423 0.00659,-0.0204 0.020295,-0.0451 -3.727e-4,-0.0643 -0.014973,-0.0139 -0.023476,-0.0273 -0.035709,-0.0517 -0.017861,-0.0356 -0.059391,-0.0553 -0.082831,-0.0876 -0.012169,-0.0168 -0.027632,-0.0262 -0.034099,-0.0528 -0.00465,-0.0191 -0.028404,-0.0257 -0.033467,-0.0464 -0.00602,-0.0245 -0.0338,-0.0362 -0.040519,-0.0587 -0.014437,-0.0484 -0.05731,-0.0767 -0.090699,-0.1111 -0.036489,-0.0376 -0.079674,-0.0691 -0.1120485,-0.11025 -0.017305,-0.022 -0.018252,-0.0566 -0.050838,-0.0661 -0.039926,-0.0117 -0.064635,-0.0477 -0.090784,-0.0773 -0.023875,-0.027 -0.08572,-0.0451 -0.074716,-0.0795 0.00897,-0.028 -0.022406,-0.0455 -0.041333,-0.0586 -0.019216,-0.0133 -0.028348,-0.0322 -0.027482,-0.0586 8.762e-4,-0.0268 -0.013787,-0.0498 -0.033673,-0.0712 -0.027892,-0.03 -0.04398,-0.0686 -0.056355,-0.10686 -0.013214,-0.0408 -0.093985,-0.0605 -0.075337,-0.0974 0.00625,-0.0124 -0.00909,-0.0273 -0.016316,-0.0375 -0.021069,-0.0298 -0.039551,-0.0791 -0.075922,-0.0788 -0.00949,7e-5 -0.028294,0.008 -0.024144,-0.0113 0.00771,-0.0352 -0.038557,-0.0369 -0.045033,-0.0766 -0.00485,-0.0298 -0.036828,-0.0343 -0.046772,-0.0702 -0.00387,-0.014 -0.017095,-0.0516 -0.022926,-0.0379 -0.00412,0.01 0.00193,0.0393 -0.00122,0.0295 -0.00957,-0.0297 -0.010387,-0.0619 -0.023603,-0.0908 -0.011115,-0.0243 -0.03742,-0.0311 -0.04579,-0.0646 -0.00765,-0.0306 -0.049501,-0.0357 -0.049829,-0.0749 -2.631e-4,-0.0315 0.020836,-0.0689 0.00208,-0.0945 -0.00924,-0.0126 -0.024724,-0.0192 -0.024681,-0.0388 9.23e-5,-0.0419 0.0073,-0.0844 -2.693e-4,-0.12567 -0.0031,-0.0169 0.010253,-0.0252 0.01991,-0.0396 0.021082,-0.0314 -0.023358,-0.0888 0.010081,-0.10641 0.014809,-0.008 0.025568,-0.0234 0.018345,-0.0403 -0.00723,-0.0169 0.00547,-0.0296 0.018345,-0.0404 0.013614,-0.0114 -0.00443,-0.0318 0.016734,-0.0416 0.031882,-0.0147 -0.00889,-0.0563 0.023386,-0.0702 0.012612,-0.005 0.00845,-0.0179 0.00986,-0.0301 0.00197,-0.0171 0.035003,0.005 0.027054,-0.0102 -0.00786,-0.0154 0.00838,-0.0227 0.016512,-0.0352 0.015383,-0.0235 0.00818,-0.0551 0.00399,-0.0814 -0.00386,-0.0242 0.00271,-0.0464 0.015318,-0.0679 0.00985,-0.0167 0.020491,-0.0458 -0.00258,-0.0561 -0.019184,-0.009 -0.01173,-0.0281 -0.011693,-0.044 9.15e-5,-0.0389 -0.00594,-0.0784 1.575e-4,-0.11685 0.00723,-0.0457 -0.00756,-0.0892 -0.023543,-0.13161 -0.0173,-0.0459 -0.018509,-0.11118 -0.065285,-0.13376 -0.014854,-0.007 0.00441,-0.0409 -0.010077,-0.0317 -0.00865,0.005 -0.026274,0.004 -0.018182,-0.0102 0.00752,-0.013 -0.00754,-0.0121 -0.017565,-0.0111 -0.018968,0.002 -0.020026,-0.027 -0.041012,-0.0231 -0.01927,0.004 -0.033942,-0.004 -0.052299,-0.0183 -0.031554,-0.0241 -0.069828,-0.0386 -0.1047575,-0.0575 -0.023737,-0.0128 -0.048199,-0.0167 -0.076822,-0.0174 -0.031435,-8.2e-4 -0.05227,-0.028 -0.087444,-0.0256 -0.02784,0.002 -0.05579,0.001 -0.083687,0.001 -0.069053,-4e-5 -0.1382989,-0.007 -0.2071512,-0.001 -0.024901,0.002 -0.05068,-0.004 -0.071188,0.0196 -0.011413,0.0134 -0.033119,-0.005 -0.041506,0.0168 -0.00633,0.0163 -0.023566,0.006 -0.035079,0.0117 -0.032137,0.0156 -0.045109,0.0901 -0.075977,0.0706 -0.00881,-0.006 -0.022491,-0.003 -0.017567,0.0115 0.00738,0.0215 -0.023597,0.0142 -0.035079,0.0115 -0.01168,-0.003 -0.043911,-0.009 -0.035079,0.0119 0.00785,0.019 -0.018494,0.016 -0.028752,0.0113 -0.027101,-0.0122 -0.028974,0.0227 -0.059177,0.0227 -0.0177925,3e-5 -0.0213759,0.0343 -0.0412417,0.0231 -0.0120893,-0.007 -0.0336178,0.0226 -0.0141462,0.0243 0,0 0.00966,4e-5 0.00966,4e-5 0,0 0.007864,0.002 0.007864,0.002 -0.0185225,0.0121 -0.0438831,0.006 -0.0612956,0.0211 -0.0163557,0.0145 -0.0453183,0.025 -0.046772,0.0468 -8.5584e-4,0.0128 0.002212,0.025 -0.0100812,0.0362 -0.0151895,0.0139 -0.0303587,0.0247 -0.0348558,0.0524 -0.001523,0.009 -0.0237607,0.0261 -0.0250664,0.008 0,0 -5.072e-5,-0.01 -5.072e-5,-0.01 0,0 -0.002456,-0.008 -0.002456,-0.008 -0.0121403,0.0186 -0.007061,0.0428 -0.021034,0.0613 -0.00964,0.0128 -0.0220588,0.0191 -0.0224056,0.0412 -2.8106e-4,0.0179 -0.0326449,0.0206 -0.0236067,0.0413 0.006494,0.0149 -0.012085,0.003 -0.0197961,0.009 -0.0166261,0.012 -0.005194,0.034 -0.002705,0.0531 0.004396,0.0339 -0.0251763,0.0555 -0.0250303,0.0922 2.5841e-4,0.0648 -0.001915,0.12969 0.001277,0.19443 9.9368e-4,0.0202 -0.001112,0.0373 -0.019622,0.0536 -0.0118875,0.0104 -0.005064,0.0259 -0.005041,0.0395 2.053e-5,0.0119 -0.007671,0.0265 -1.2481e-4,0.0357 0.0169182,0.0206 0.0235544,0.0485 0.0235108,0.0758 -1.0031e-4,0.063 0.0123207,0.12716 -1.5508e-4,0.18886 -0.00549,0.0272 0.008972,0.0498 0.0186981,0.0757 0.0154402,0.0411 0.003623,0.0867 0.004843,0.12969 3.3561e-4,0.0118 -0.001459,0.0239 0.002067,0.0353 0.006394,0.0208 -0.0344316,0.0204 -0.025453,-10e-4 0.007899,-0.019 -0.0191171,-0.0123 -0.029065,-0.0126 -0.027552,-8.4e-4 -0.0511207,0.002 -0.0814381,-0.0173 -0.0233952,-0.0147 -0.0541379,-0.005 -0.080711,-0.005 -0.0124073,-1.2e-4 -0.0249667,0.004 -0.0371471,10e-4 -0.0182125,-0.004 -0.0241155,-0.0359 -0.0459126,-0.0264 -0.0311582,0.0136 -0.0563466,-0.0342 -0.0823104,-0.0221 -0.0254786,0.0119 -0.0282498,-0.0223 -0.0526917,-0.024 -0.0352122,-0.003 -0.11670672,0.0246 -0.10580983,-0.0148 0.004335,-0.0157 -0.0149387,-0.008 -0.0227936,-0.008 -0.0389339,5e-5 -0.08541789,0.023 -0.11693042,0 -0.01276162,-0.009 -0.02072019,-0.0309 -0.04063894,-0.0246 -0.01444849,0.005 -0.03008344,0.004 -0.04099066,-0.011 -0.016872,-0.0233 -0.05011487,-0.0136 -0.07411098,-0.01 -0.0189593,0.003 -0.029694,-0.008 -0.0483094,-0.0195 -0.0235608,-0.0142 -0.054757,-0.006 -0.0814421,-0.006 -0.0451137,-3e-4 -0.0977993,0.0259 -0.13546006,0.001 -0.012639,-0.008 -0.017835,-0.024 -0.0372475,-0.0243 -0.0421367,-5.8e-4 -0.0931404,-0.0249 -0.12645502,9.1e-4 -0.0127095,0.01 -0.0195461,0.0193 -0.0411569,0.0226 -0.0183633,0.003 -0.0211401,0.0234 -0.046772,0.0234 -0.0177924,3e-5 -0.0205031,0.0326 -0.0412415,0.0231 -0.0133283,-0.006 -0.008333,0.01 -0.01045,0.0188 -0.004797,0.021 -0.0274713,0.0315 -0.0416209,0.0468 -0.0271443,0.0293 -0.0666854,0.0499 -0.0823783,0.0874 -0.008228,0.0197 -0.0181124,0.0379 -0.0355244,0.0522 -0.0137098,0.0113 -0.005203,0.0255 -0.010457,0.0418 -0.009413,0.0292 -0.029347,0.0527 -0.0548272,0.0687 -0.013965,0.009 -0.00197,0.0262 -0.009748,0.0365 -0.00964,0.0128 -0.0192635,0.0193 -0.0224056,0.0412 -0.002659,0.0185 -0.0350054,0.0238 -0.025592,0.0462 0.007652,0.0182 -0.004017,0.0308 -0.0171197,0.0466 -0.013491,0.0162 -0.00729,0.039 -0.00605,0.0589 0.00193,0.031 -0.021123,0.0778 0.00588,0.0944 0.0442039,0.0272 0.0341446,0.0854 0.0592453,0.12417 0.0139286,0.0215 0.0352716,0.0362 0.0437119,0.0624 0.008379,0.026 0.0364357,0.037 0.0441781,0.0642 0.008779,0.0308 0.0378153,0.0457 0.0506009,0.0755 0.01375,0.032 0.0372137,0.0566 0.0546362,0.0882 0.0136349,0.0248 0.0313669,0.0443 0.046772,0.0702 0.009776,0.0164 0.0263202,0.0299 0.0467721,0.0234 0.0162661,-0.005 0.0283218,0.005 0.0407191,0.0176 0.0202961,0.0203 0.0472969,0.0262 0.0699774,0.0472 0.0209677,0.0194 0.0476148,0.0258 0.0701582,0.0468 0.021014,0.0196 0.0461007,0.0271 0.0696157,0.0479 0.018994,0.0168 0.0526196,-0.0124 0.0652415,0.0158 0.0140001,0.0312 0.0563041,-0.007 0.0701583,0.0234 0.0140001,0.0312 0.0514755,-0.005 0.0701583,0.0234 0.0215689,0.0326 0.0648244,-0.004 0.0938104,0.0173 0.01912584,0.0138 0.04054365,0.0183 0.06438757,0.018 0.0397765325,-4.8e-4 0.08001841,-0.004 0.11927144,0.002 0.02927981,0.005 0.05367253,-0.0109 0.07893571,-0.0233 0.0137649,-0.007 0.0295963,0.004 0.0414161,-0.0136 0.0184523,-0.0269 0.0519334,-0.0289 0.0750696,-0.054 0.01188,-0.0129 0.0306653,0.003 0.0429581,-0.0147 0.0173129,-0.0247 0.0409059,-0.0417 0.069109,-0.054 0.0368998,-0.0162 0.0478492,-0.084 0.0871009,-0.0775 0.022596,0.004 0.0625803,0.002 0.0646348,-0.0197 0.001808,-0.0193 0.018917,-0.0236 0.0288456,-0.0415 0.0171924,-0.031 0.0627686,0.0151 0.0763595,-0.0198 0.006329,-0.0163 0.0247146,-0.004 0.0350792,-0.0117 0.0127946,-0.009 0.0214029,-0.0328 0.0406363,-0.0246 0.0182664,0.008 0.0289452,-0.007 0.0464806,-0.0172 0.0235607,-0.0141 0.0548262,-0.008 0.0814419,-0.006 0.0451147,0.003 0.095342,-0.0197 0.13546007,0.001 0.0242236,0.0125 0.040704,0.0722 0.0640535,0.05 0.016511,-0.0157 0.036138,0.0151 0.030188,0.0261 -0.00448,0.008 -0.00265,0.0255 0.010139,0.0198 0.017852,-0.008 0.03465,0.0124 0.039211,0.0268 0.00756,0.0239 0.019559,0.0473 0.046243,0.0551 0.026261,0.008 0.042418,0.028 0.050772,0.0561 0.0022,0.007 4.846e-4,0.0111 -0.00793,0.023 -0.00668,0.009 0.00825,0.0217 0.013458,0.0304 0.023236,0.0388 0.056945,0.07 0.091713,0.0981 0.024954,0.0201 0.039665,0.0469 0.056074,0.0749 0.015102,0.0257 0.023239,0.0544 0.056835,0.0681 0.034584,0.0141 0.042519,0.0564 0.056672,0.0873 0.014164,0.0309 0.039006,0.0539 0.053837,0.0859 0.013107,0.0283 0.026749,0.0561 0.053034,0.0757 0.030722,0.0229 0.034105,0.0626 0.062415,0.0894 0.032817,0.031 0.073003,0.0575 0.092284,0.0994 0.018951,0.0412 0.053525,0.0698 0.084571,0.10118 0.030976,0.0313 0.040579,0.0744 0.063674,0.11085 0.015434,0.0243 0.059628,0.0987 0.045667,0.0735 -0.00292,-0.005 -0.00961,-0.0271 0.00296,-0.0142 0.026954,0.0278 0.040211,0.0646 0.063113,0.0958 0.00811,0.011 0.027024,0.0462 0.025517,0.0323 -0.00104,-0.01 -0.014597,-0.0347 -0.011777,-0.0296 0.020358,0.0373 0.018806,0.0952 0.056417,0.11425 0.01023,0.005 0.018871,9.5e-4 0.032296,0.005 0.00758,0.002 0.021928,0.0299 0.00863,0.0195 -0.0076,-0.006 -0.01826,-0.0311 -0.017466,-0.0235 0.015567,0.14789 0.031133,0.29577 0.0467,0.44366"
       id="path88"
       inkscape:connector-curvature="0"
       inkscape:path-effect="#path-effect90"
       inkscape:original-d="m 3.3208229,284.48859 c -0.071467,-0.0166 -0.00899,-0.0649 -0.023386,-0.0937 -0.00986,-0.0197 -0.036912,-0.027 -0.046772,-0.0468 -0.00349,-0.007 0.00349,-0.0164 0,-0.0234 -0.00624,-0.0125 -0.057846,-0.0578 -0.070158,-0.0702 -0.00779,-0.008 -0.015592,-0.0156 -0.023386,-0.0234 -0.00779,-0.008 -0.018457,-0.0135 -0.023386,-0.0234 -0.00349,-0.007 0.00349,-0.0164 0,-0.0234 -0.00493,-0.01 -0.017269,-0.0142 -0.023386,-0.0234 -0.00967,-0.0145 -0.013716,-0.0323 -0.023386,-0.0468 -0.00611,-0.009 -0.015592,-0.0156 -0.023387,-0.0234 -0.00779,-0.0156 -0.013716,-0.0323 -0.023386,-0.0468 -0.012229,-0.0183 -0.031181,-0.0312 -0.046772,-0.0468 -0.031181,-0.0312 -0.062363,-0.0624 -0.093544,-0.0935 -0.015592,-0.0156 -0.034542,-0.0284 -0.046772,-0.0468 -0.00967,-0.0145 -0.01106,-0.0345 -0.023386,-0.0468 -0.012327,-0.0123 -0.032269,-0.0137 -0.046772,-0.0234 -0.02018,-0.0134 -0.051892,-0.0519 -0.070158,-0.0702 -0.012311,-0.0123 -0.063913,-0.0577 -0.070158,-0.0702 -0.00349,-0.007 0.00349,-0.0164 0,-0.0234 -0.00893,-0.0179 -0.06488,-0.0543 -0.070158,-0.0702 -0.00493,-0.0148 0.00378,-0.0317 0,-0.0468 -0.016952,-0.0678 -0.018241,-0.0274 -0.046768,-0.0702 -0.025962,-0.0389 -0.043064,-0.10419 -0.070158,-0.14031 -0.1011516,-0.10115 -0.00367,0.006 -0.070158,-0.0936 -0.00661,-0.01 -0.060482,-0.0653 -0.070158,-0.0701 -0.00697,-0.003 -0.017874,0.006 -0.023386,0 -0.00551,-0.006 0.00349,-0.0164 0,-0.0234 -0.00986,-0.0197 -0.036912,-0.0271 -0.046772,-0.0468 -0.00349,-0.007 0.00349,-0.0164 0,-0.0234 -0.00986,-0.0197 -0.036912,-0.0271 -0.046772,-0.0468 -0.00349,-0.007 0.00349,-0.0164 0,-0.0234 -0.053514,-0.10703 0.00969,0.0992 -0.046772,-0.0702 -0.00247,-0.007 0.00349,-0.0164 0,-0.0234 -0.00986,-0.0197 -0.036912,-0.0271 -0.046772,-0.0468 -0.00349,-0.007 0.00349,-0.0164 0,-0.0234 -0.00986,-0.0197 -0.036912,-0.027 -0.046772,-0.0468 -0.00738,-0.0148 0.00738,-0.10218 0,-0.11693 -0.00493,-0.01 -0.018456,-0.0135 -0.023386,-0.0234 -0.00307,-0.006 0,-0.0813 0,-0.0935 0,-0.0105 -0.00356,-0.063 0,-0.0702 0.00493,-0.01 0.018456,-0.0135 0.023386,-0.0234 0.00735,-0.0147 -0.00735,-0.0788 0,-0.0935 0.00493,-0.01 0.018456,-0.0135 0.023386,-0.0234 0.00697,-0.0139 -0.00697,-0.0328 0,-0.0468 0.00493,-0.01 0.018456,-0.0135 0.023386,-0.0234 0.00349,-0.007 -0.00349,-0.0164 0,-0.0234 0.00493,-0.01 0.018456,-0.0135 0.023386,-0.0234 0.00697,-0.0139 -0.00697,-0.0328 0,-0.0468 0.00493,-0.01 0.018456,-0.0135 0.023386,-0.0234 0.00349,-0.007 -0.00551,-0.0179 0,-0.0234 0.00551,-0.006 0.017874,0.006 0.023386,0 0.00551,-0.006 -0.00349,-0.0164 0,-0.0234 0.00493,-0.01 0.018456,-0.0135 0.023386,-0.0234 0.00696,-0.0139 -0.00656,-0.0972 0,-0.11693 0.00324,-0.01 0.033953,-0.049 0.023386,-0.0702 -0.00493,-0.01 -0.018456,-0.0135 -0.023386,-0.0234 -0.00349,-0.007 0,-0.0156 0,-0.0234 0,-0.0156 0,-0.0312 0,-0.0468 0,-0.0234 0,-0.0468 0,-0.0702 0,-0.0234 0.00384,-0.0471 0,-0.0702 -0.00405,-0.0243 -0.01559,-0.0468 -0.023386,-0.0702 -0.012677,-0.038 -0.023832,-0.0825 -0.046772,-0.11693 -0.00612,-0.009 -0.018456,-0.0135 -0.023386,-0.0234 -0.00349,-0.007 0.00551,-0.0179 0,-0.0234 -0.00551,-0.006 -0.017874,0.006 -0.023386,0 -0.00551,-0.006 0.00551,-0.0179 0,-0.0234 -0.00551,-0.006 -0.016414,0.003 -0.023386,0 -0.00986,-0.005 -0.015591,-0.0156 -0.023386,-0.0234 -0.015591,0 -0.031982,0.005 -0.046772,0 -0.010459,-0.003 -0.014213,-0.0173 -0.023386,-0.0234 -0.014903,-0.01 -0.1251473,-0.0664 -0.1403165,-0.0702 -0.015125,-0.004 -0.031647,0.004 -0.046772,0 -0.016911,-0.004 -0.029862,-0.0192 -0.046772,-0.0234 -0.015125,-0.004 -0.031181,0 -0.046772,0 -0.015591,0 -0.031181,0 -0.046772,0 -0.046772,0 -0.093544,0 -0.1403165,0 -0.016576,0 -0.13427,-0.003 -0.1403165,0 -0.00986,0.005 -0.013526,0.0185 -0.023386,0.0234 -0.00697,0.003 -0.016414,-0.003 -0.023386,0 -0.00986,0.005 -0.013526,0.0185 -0.023386,0.0234 -0.00697,0.003 -0.016414,-0.003 -0.023386,0 -0.028063,0.014 -0.042095,0.0561 -0.070158,0.0702 -0.00697,0.003 -0.017874,-0.006 -0.023386,0 -0.00551,0.006 0.00551,0.0179 0,0.0234 -0.011693,0.0117 -0.058465,-0.0117 -0.070158,0 -0.00551,0.006 0.00551,0.0179 0,0.0234 -0.011024,0.011 -0.032827,-0.007 -0.046772,0 -0.00986,0.005 -0.013526,0.0184 -0.023386,0.0234 -0.00697,0.003 -0.016414,-0.003 -0.023386,0 -0.00986,0.005 -0.0135258,0.0185 -0.023386,0.0234 -0.006972,0.003 -0.0178739,-0.006 -0.023386,0 -0.0483866,0.0484 0.0739412,-0.002 -0.023386,0.0468 -0.006972,0.003 -0.0164137,-0.003 -0.023386,0 -0.00986,0.005 -0.0155906,0.0156 -0.023386,0.0234 -0.007795,0.008 -0.0184557,0.0135 -0.023386,0.0234 -0.003486,0.007 0.003486,0.0164 0,0.0234 -0.00986,0.0197 -0.0369117,0.027 -0.0467722,0.0468 -0.003486,0.007 0.005512,0.0179 0,0.0234 -0.0483866,0.0484 0.001892,-0.074 -0.0467722,0.0234 -0.003486,0.007 0.003486,0.0164 0,0.0234 -0.00493,0.01 -0.0184557,0.0135 -0.023386,0.0234 -0.003486,0.007 0.003486,0.0164 0,0.0234 -0.00493,0.01 -0.0184557,0.0135 -0.023386,0.0234 -0.003486,0.007 0.005512,0.0179 0,0.0234 -0.005512,0.006 -0.0198998,-0.007 -0.023386,0 -0.023386,0.0468 0.011693,0.0351 0,0.0702 -0.005512,0.0165 -0.0178739,0.0302 -0.023386,0.0468 -0.002466,0.007 0,0.0156 0,0.0234 0,0.0156 0,0.0312 0,0.0468 0,0.0312 0,0.0624 0,0.0935 0,0.0122 0.003074,0.0874 0,0.0935 -0.00493,0.01 -0.018456,0.0135 -0.023386,0.0234 -0.003486,0.007 0,0.0156 0,0.0234 0,0.008 0,0.0156 0,0.0234 0,0.0528 -0.003486,-0.0105 0.023386,0.0702 0.002466,0.007 0,0.0156 0,0.0234 0,0.0156 0,0.0312 0,0.0468 0,0.0468 0,0.0935 0,0.14032 0,0.0156 -0.003781,0.0317 0,0.0468 0.004228,0.0169 0.0191585,0.0299 0.023386,0.0468 0.0053,0.0212 0,0.0898 0,0.11693 0,0.008 0,0.0156 0,0.0234 0,0.008 0.005512,0.0179 0,0.0234 -0.005512,0.006 -0.0178739,0.006 -0.023386,0 -0.005512,-0.006 0.005512,-0.0179 0,-0.0234 -0.006399,-0.006 -0.0808577,0.006 -0.0935443,0 -0.00986,-0.005 -0.0135258,-0.0184 -0.023386,-0.0234 -0.007117,-0.004 -0.0596261,0 -0.0701582,0 -0.007795,0 -0.0155908,0 -0.023386,0 -0.007795,0 -0.0164137,0.003 -0.023386,0 -0.00986,-0.005 -0.0135258,-0.0184 -0.023386,-0.0234 -0.0139449,-0.007 -0.0319815,0.005 -0.0467721,0 -0.0165365,-0.006 -0.0302357,-0.0179 -0.0467722,-0.0234 -0.007395,-0.002 -0.0164137,0.003 -0.023386,0 -0.00986,-0.005 -0.0129275,-0.0199 -0.023386,-0.0234 -0.0106966,-0.004 -0.0831381,0.005 -0.0935443,0 -0.0577965,-0.0289 0.008072,-0.0234 -0.0467722,-0.0234 -0.013475,0 -0.10840676,0.004 -0.11693042,0 -0.009863,-0.005 -0.01352826,-0.0185 -0.0233887,-0.0234 -0.01394477,-0.007 -0.0328274,0.007 -0.04677217,0 -0.0098604,-0.005 -0.01292751,-0.0199 -0.02338609,-0.0234 -0.0106965,-0.004 -0.08313806,0.005 -0.09354434,0 -0.00986,-0.005 -0.0135256,-0.0185 -0.0233861,-0.0234 -0.008457,-0.004 -0.10066447,0 -0.11693041,0 -0.0161486,0 -0.0864341,0.004 -0.0935443,0 -0.00986,-0.005 -0.0135258,-0.0184 -0.023386,-0.0234 -0.003194,-0.002 -0.13712259,-0.002 -0.14031651,0 -0.00986,0.005 -0.0135258,0.0184 -0.023386,0.0234 -0.006972,0.003 -0.0164137,-0.003 -0.023386,0 -0.00986,0.005 -0.0135258,0.0185 -0.023386,0.0234 -0.006972,0.003 -0.0164137,-0.003 -0.023386,0 -0.00986,0.005 -0.0135258,0.0185 -0.023386,0.0234 -0.006972,0.003 -0.0178739,-0.006 -0.023386,0 -0.005512,0.006 0.003486,0.0164 0,0.0234 -0.00493,0.01 -0.0155908,0.0156 -0.023386,0.0234 -0.007795,0.008 -0.0155906,0.0156 -0.023386,0.0234 -0.0182666,0.0183 -0.056705,0.05 -0.0701582,0.0702 -0.009669,0.0145 -0.0137171,0.0323 -0.023386,0.0468 -0.006115,0.009 -0.0184557,0.0135 -0.023386,0.0234 -0.003486,0.007 0,0.0156 0,0.0234 -0.007795,0.0156 -0.0137171,0.0323 -0.023386,0.0468 -0.0122304,0.0183 -0.0369117,0.027 -0.0467722,0.0468 -0.003486,0.007 0.003486,0.0164 0,0.0234 -0.00493,0.01 -0.0184557,0.0135 -0.023386,0.0234 -0.003486,0.007 0.003486,0.0164 0,0.0234 -0.00493,0.01 -0.018456,0.0135 -0.023386,0.0234 -0.006972,0.0139 0.006972,0.0328 0,0.0468 -0.00493,0.01 -0.0184558,0.0135 -0.023386,0.0234 -0.00349,0.007 0,0.0156 0,0.0234 0,0.009 -0.00499,0.10695 0,0.11693 0.00493,0.01 0.0172709,0.0142 0.023386,0.0234 0.0358478,0.0538 0.0109244,0.0632 0.0467722,0.11693 0.006115,0.009 0.0172709,0.0142 0.023386,0.0234 0.009669,0.0145 0.0137171,0.0323 0.023386,0.0468 0.006115,0.009 0.0172709,0.0142 0.023386,0.0234 0.009669,0.0145 0.0137171,0.0323 0.023386,0.0468 0.006115,0.009 0.0172709,0.0142 0.023386,0.0234 0.0193379,0.029 0.0274342,0.0645 0.0467722,0.0935 0.006115,0.009 0.0172709,0.0142 0.023386,0.0234 0.009669,0.0145 0.0137171,0.0323 0.023386,0.0468 0.006115,0.009 0.0155908,0.0156 0.023386,0.0234 0.007795,0.008 0.0129275,0.0199 0.023386,0.0234 0.0147907,0.005 0.0319815,-0.005 0.0467722,0 0.0104587,0.003 0.0142134,0.0173 0.023386,0.0234 0.0145034,0.01 0.0322687,0.0137 0.0467722,0.0234 0.009173,0.006 0.0142134,0.0173 0.023386,0.0234 0.0145034,0.01 0.0322687,0.0137 0.0467722,0.0234 0.009173,0.006 0.0142134,0.0173 0.023386,0.0234 0.0145034,0.01 0.0322687,0.0137 0.0467722,0.0234 0.009173,0.006 0.0129276,0.0199 0.023386,0.0234 0.0147907,0.005 0.0319815,-0.005 0.0467722,0 0.0104585,0.003 0.0129275,0.0199 0.023386,0.0234 0.0147907,0.005 0.0319815,-0.005 0.0467722,0 0.0104587,0.003 0.0129275,0.0199 0.0233861,0.0234 0.0147907,0.005 0.0319815,-0.005 0.0467722,0 0.0104586,0.003 0.0129275,0.0199 0.0233861,0.0234 0.0210475,0.007 0.0491108,-0.007 0.0701583,0 0.0165365,0.006 0.03023571,0.0179 0.04677217,0.0234 0.0073953,0.002 0.01559073,0 0.02338609,0 0.01559073,0 0.03118145,0 0.04677216,0 0.01866109,0 0.1029001,0.005 0.11693042,0 0.0165365,-0.006 0.0302357,-0.0179 0.0467722,-0.0234 0.007395,-0.002 0.0164137,0.003 0.0233861,0 0.00986,-0.005 0.0142133,-0.0173 0.0233861,-0.0234 0.0145034,-0.01 0.0322687,-0.0137 0.0467722,-0.0234 0.009173,-0.006 0.0135256,-0.0184 0.0233861,-0.0234 0.006972,-0.003 0.0164137,0.003 0.023386,0 0.019721,-0.01 0.0284266,-0.0346 0.0467722,-0.0468 0.0145034,-0.01 0.0322687,-0.0137 0.0467722,-0.0234 0.0212886,-0.0142 0.0494303,-0.0598 0.0701582,-0.0702 0.006972,-0.003 0.0159906,0.002 0.023386,0 0.0847813,-0.0283 0.0166439,-0.0111 0.0701582,-0.0468 0.0117771,-0.0515 0.0481096,-0.0124 0.0701583,-0.0234 0.00986,-0.005 0.0135255,-0.0185 0.023386,-0.0234 0.006972,-0.003 0.0164137,0.003 0.023386,0 0.00986,-0.005 0.0135255,-0.0184 0.023386,-0.0234 0.0139449,-0.007 0.0328274,0.007 0.0467722,0 0.00986,-0.005 0.0135258,-0.0185 0.023386,-0.0234 0.008457,-0.004 0.10066448,0 0.11693043,0 0.012229,0 0.0873952,-0.003 0.0935443,0 0.019721,0.01 0.0270513,0.0369 0.0467722,0.0468 0.032258,0.0161 0.020918,-0.0283 0.046772,0.0234 0.00349,0.007 -0.00551,0.0179 0,0.0234 0.00551,0.006 0.015591,0 0.023386,0 0.0078,0.008 0.017271,0.0142 0.023386,0.0234 0.00967,0.0145 0.011061,0.0345 0.023386,0.0468 0.014326,0.0143 0.061204,0.0199 0.070158,0.0468 0.033751,0.10125 -0.044707,-0.009 0.023386,0.0935 0.01459,0.0219 0.078567,0.0786 0.093544,0.0935 0.0078,0.008 0.017271,0.0142 0.023386,0.0234 0.0029,0.004 0.045273,0.092 0.046772,0.0935 0.012326,0.0123 0.034447,0.0111 0.046772,0.0234 0.016117,0.0161 0.05301,0.1146 0.070158,0.14032 0.00612,0.009 0.017271,0.0142 0.023386,0.0234 0.00967,0.0145 0.012928,0.0328 0.023386,0.0468 0.013229,0.0176 0.033543,0.0291 0.046772,0.0468 0.010459,0.0139 0.012927,0.0328 0.023386,0.0468 0.026458,0.0353 0.065997,0.0591 0.093544,0.0935 0.017558,0.0219 0.029214,0.0482 0.046772,0.0702 0.013774,0.0172 0.032999,0.0296 0.046772,0.0468 0.068958,0.0862 0.02644,0.0441 0.070158,0.11693 0.1144592,0.19076 -0.016606,-0.0299 0.093544,0.11693 0.010459,0.0139 0.013717,0.0323 0.023386,0.0468 0.071423,0.10713 -0.038009,-0.0994 0.046772,0.0702 0.0078,0.0156 0.011061,0.0344 0.023386,0.0468 0.00551,0.006 0.016414,-0.003 0.023386,0 0.00986,0.005 0.031181,0.0156 0.023386,0.0234 -0.0078,0.008 -0.015591,-0.0156 -0.023386,-0.0234 0.015591,0.14811 0.031181,0.29623 0.046772,0.44434"
       transform="matrix(1.0418226,0,0,1.0322849,1.8246567,-9.4488565)" />
    <path
       style="fill:none;stroke:#28170b;stroke-width:0.26458332;stroke-opacity:1"
       d="m 3.624843,281.49501 c -0.017344,0.001 -0.035701,0.003 -0.052169,-0.004 0,0 -0.00709,-0.005 -0.00709,-0.005 0,0 -0.00306,-0.007 -0.00306,-0.007 -9.43e-4,-0.0163 0.00978,-0.0299 0.017949,-0.043 0.00891,-0.0142 0.020055,-0.0277 0.024264,-0.0442 0,0 5.89e-5,-0.008 5.89e-5,-0.008 0,0 -0.00334,-0.006 -0.00334,-0.006 0,0 -0.0052,-0.002 -0.0052,-0.002 0,0 -0.00649,0.002 -0.00649,0.002 0,0 -0.00649,0.002 -0.00649,0.002 0,0 -0.0052,-0.002 -0.0052,-0.002 0,0 -0.00183,-0.005 -0.00183,-0.005 6.69e-5,-0.006 0.00618,-0.0131 0.00183,-0.0182 -0.020141,-0.0237 -0.0428,-0.0452 -0.065488,-0.0665 0,0 -0.00467,-0.004 -0.00467,-0.004 -0.00778,-0.003 -0.01602,0.004 -0.023387,0 -0.010213,-0.005 -0.012869,-0.0186 -0.023386,-0.0234 -0.015275,-0.007 -0.031921,0.008 -0.046772,0 -0.010213,-0.005 -0.011913,-0.022 -0.023386,-0.0234 -0.02472,-0.003 -0.049821,-0.002 -0.074634,-4.2e-4 -0.037454,0.002 -0.079255,-0.0171 -0.1124545,4.2e-4 -0.010213,0.005 -0.01259,0.0193 -0.023387,0.0234 -0.00778,0.003 -0.016019,-0.004 -0.023386,0 -0.010213,0.005 -0.012752,0.0189 -0.023386,0.0234 -0.014079,0.006 -0.027929,-0.007 -0.042169,-0.003 0,0 -0.0046,0.003 -0.0046,0.003 0,0 -0.00155,0.005 -0.00155,0.005 1.334e-4,0.006 0.00692,0.0132 0.00155,0.018 -0.00823,0.007 -0.019801,0.002 -0.028752,-1.8e-4 -0.00826,-0.002 -0.017853,-0.002 -0.024447,0.005 -0.00567,0.006 -0.00885,0.0151 -0.016959,0.0183 -0.00969,0.004 -0.019537,-5e-4 -0.029698,8.4e-4 -0.00539,7.1e-4 -0.013131,0.005 -0.017075,-8.4e-4 -0.049217,-0.0702 -0.087535,-0.14705 -0.1312966,-0.22054"
       id="path92"
       inkscape:connector-curvature="0"
       inkscape:path-effect="#path-effect94"
       inkscape:original-d="m 3.624843,281.49501 c -0.1411632,0.012 0.00472,-0.0888 -0.023387,-0.11693 -0.00551,-0.006 -0.017875,0.006 -0.023386,0 -0.00551,-0.006 0.00349,-0.0164 0,-0.0234 -0.0031,-0.006 -0.063949,-0.067 -0.070158,-0.0702 -0.00697,-0.003 -0.016415,0.003 -0.023387,0 -0.00986,-0.005 -0.013525,-0.0185 -0.023386,-0.0234 -0.013943,-0.007 -0.032827,0.007 -0.046772,0 -0.00986,-0.005 -0.013526,-0.0185 -0.023386,-0.0234 -0.00615,-0.003 -0.081315,0 -0.093544,0 -0.012229,0 -0.087395,-0.003 -0.093544,0 -0.00986,0.005 -0.013525,0.0185 -0.023387,0.0234 -0.00697,0.003 -0.016415,-0.003 -0.023386,0 -0.00986,0.005 -0.013526,0.0185 -0.023386,0.0234 -0.013943,0.007 -0.035748,-0.011 -0.046772,0 -0.00551,0.006 0.00551,0.0179 0,0.0234 -0.011025,0.011 -0.032827,-0.007 -0.046772,0 -0.00986,0.005 -0.013525,0.0185 -0.023386,0.0234 -0.00697,0.003 -0.015592,0 -0.023387,0 -0.00779,0 -0.01891,0.006 -0.023386,0 -0.049124,-0.07 -0.08753,-0.14703 -0.1312966,-0.22054"
       transform="translate(0.30401908)" />
  </g>
</svg>
