<?xml version="1.0" encoding="UTF-8" standalone="no"?>
<!-- Created with Inkscape (http://www.inkscape.org/) -->

<svg
   xmlns:dc="http://purl.org/dc/elements/1.1/"
   xmlns:cc="http://creativecommons.org/ns#"
   xmlns:rdf="http://www.w3.org/1999/02/22-rdf-syntax-ns#"
   xmlns:svg="http://www.w3.org/2000/svg"
   xmlns="http://www.w3.org/2000/svg"
   xmlns:sodipodi="http://sodipodi.sourceforge.net/DTD/sodipodi-0.dtd"
   xmlns:inkscape="http://www.inkscape.org/namespaces/inkscape"
   width="64"
   height="64"
   viewBox="0 0 16.933333 16.933334"
   version="1.1"
   id="svg8"
   inkscape:version="0.92.4 (fd57863, 2020-04-02)"
   sodipodi:docname="PlantSun.svg">
  <defs
     id="defs2">
    <inkscape:path-effect
       effect="simplify"
       id="path-effect5209"
       is_visible="true"
       steps="1"
       threshold="0.000408163"
       smooth_angles="360"
       helper_size="0"
       simplify_individual_paths="false"
       simplify_just_coalesce="false"
       simplifyindividualpaths="false"
       simplifyJustCoalesce="false" />
    <inkscape:path-effect
       effect="simplify"
       id="path-effect5189"
       is_visible="true"
       steps="1"
       threshold="0.000408163"
       smooth_angles="360"
       helper_size="0"
       simplify_individual_paths="false"
       simplify_just_coalesce="false"
       simplifyindividualpaths="false"
       simplifyJustCoalesce="false" />
    <inkscape:path-effect
       effect="simplify"
       id="path-effect5177"
       is_visible="true"
       steps="1"
       threshold="0.000408163"
       smooth_angles="360"
       helper_size="0"
       simplify_individual_paths="false"
       simplify_just_coalesce="false"
       simplifyindividualpaths="false"
       simplifyJustCoalesce="false" />
    <inkscape:path-effect
       effect="simplify"
       id="path-effect5169"
       is_visible="true"
       steps="1"
       threshold="0.000408163"
       smooth_angles="360"
       helper_size="0"
       simplify_individual_paths="false"
       simplify_just_coalesce="false"
       simplifyindividualpaths="false"
       simplifyJustCoalesce="false" />
    <inkscape:path-effect
       effect="simplify"
       id="path-effect5157"
       is_visible="true"
       steps="1"
       threshold="0.000408163"
       smooth_angles="360"
       helper_size="0"
       simplify_individual_paths="false"
       simplify_just_coalesce="false"
       simplifyindividualpaths="false"
       simplifyJustCoalesce="false" />
    <inkscape:path-effect
       effect="simplify"
       id="path-effect5145"
       is_visible="true"
       steps="1"
       threshold="0.000408163"
       smooth_angles="360"
       helper_size="0"
       simplify_individual_paths="false"
       simplify_just_coalesce="false"
       simplifyindividualpaths="false"
       simplifyJustCoalesce="false" />
    <inkscape:path-effect
       effect="simplify"
       id="path-effect5141"
       is_visible="true"
       steps="1"
       threshold="0.000408163"
       smooth_angles="360"
       helper_size="0"
       simplify_individual_paths="false"
       simplify_just_coalesce="false"
       simplifyindividualpaths="false"
       simplifyJustCoalesce="false" />
    <inkscape:path-effect
       effect="simplify"
       id="path-effect5137"
       is_visible="true"
       steps="1"
       threshold="0.000408163"
       smooth_angles="360"
       helper_size="0"
       simplify_individual_paths="false"
       simplify_just_coalesce="false"
       simplifyindividualpaths="false"
       simplifyJustCoalesce="false" />
    <inkscape:path-effect
       effect="simplify"
       id="path-effect5133"
       is_visible="true"
       steps="1"
       threshold="0.000408163"
       smooth_angles="360"
       helper_size="0"
       simplify_individual_paths="false"
       simplify_just_coalesce="false"
       simplifyindividualpaths="false"
       simplifyJustCoalesce="false" />
    <inkscape:path-effect
       effect="simplify"
       id="path-effect5129"
       is_visible="true"
       steps="1"
       threshold="0.000408163"
       smooth_angles="360"
       helper_size="0"
       simplify_individual_paths="false"
       simplify_just_coalesce="false"
       simplifyindividualpaths="false"
       simplifyJustCoalesce="false" />
    <inkscape:path-effect
       effect="simplify"
       id="path-effect5125"
       is_visible="true"
       steps="1"
       threshold="0.000408163"
       smooth_angles="360"
       helper_size="0"
       simplify_individual_paths="false"
       simplify_just_coalesce="false"
       simplifyindividualpaths="false"
       simplifyJustCoalesce="false" />
    <inkscape:path-effect
       effect="simplify"
       id="path-effect5121"
       is_visible="true"
       steps="1"
       threshold="0.000408163"
       smooth_angles="360"
       helper_size="0"
       simplify_individual_paths="false"
       simplify_just_coalesce="false"
       simplifyindividualpaths="false"
       simplifyJustCoalesce="false" />
    <inkscape:path-effect
       effect="simplify"
       id="path-effect5117"
       is_visible="true"
       steps="1"
       threshold="0.000408163"
       smooth_angles="360"
       helper_size="0"
       simplify_individual_paths="false"
       simplify_just_coalesce="false"
       simplifyindividualpaths="false"
       simplifyJustCoalesce="false" />
    <inkscape:path-effect
       effect="simplify"
       id="path-effect5113"
       is_visible="true"
       steps="1"
       threshold="0.000408163"
       smooth_angles="360"
       helper_size="0"
       simplify_individual_paths="false"
       simplify_just_coalesce="false"
       simplifyindividualpaths="false"
       simplifyJustCoalesce="false" />
    <inkscape:path-effect
       effect="simplify"
       id="path-effect5109"
       is_visible="true"
       steps="1"
       threshold="0.000408163"
       smooth_angles="360"
       helper_size="0"
       simplify_individual_paths="false"
       simplify_just_coalesce="false"
       simplifyindividualpaths="false"
       simplifyJustCoalesce="false" />
    <inkscape:path-effect
       effect="simplify"
       id="path-effect5105"
       is_visible="true"
       steps="1"
       threshold="0.000408163"
       smooth_angles="360"
       helper_size="0"
       simplify_individual_paths="false"
       simplify_just_coalesce="false"
       simplifyindividualpaths="false"
       simplifyJustCoalesce="false" />
    <inkscape:path-effect
       effect="simplify"
       id="path-effect5101"
       is_visible="true"
       steps="1"
       threshold="0.000408163"
       smooth_angles="360"
       helper_size="0"
       simplify_individual_paths="false"
       simplify_just_coalesce="false"
       simplifyindividualpaths="false"
       simplifyJustCoalesce="false" />
    <inkscape:path-effect
       effect="simplify"
       id="path-effect5089"
       is_visible="true"
       steps="1"
       threshold="0.000408163"
       smooth_angles="360"
       helper_size="0"
       simplify_individual_paths="false"
       simplify_just_coalesce="false"
       simplifyindividualpaths="false"
       simplifyJustCoalesce="false" />
    <inkscape:path-effect
       effect="simplify"
       id="path-effect5085"
       is_visible="true"
       steps="1"
       threshold="0.000408163"
       smooth_angles="360"
       helper_size="0"
       simplify_individual_paths="false"
       simplify_just_coalesce="false"
       simplifyindividualpaths="false"
       simplifyJustCoalesce="false" />
    <inkscape:path-effect
       effect="simplify"
       id="path-effect5081"
       is_visible="true"
       steps="1"
       threshold="0.000408163"
       smooth_angles="360"
       helper_size="0"
       simplify_individual_paths="false"
       simplify_just_coalesce="false"
       simplifyindividualpaths="false"
       simplifyJustCoalesce="false" />
    <inkscape:path-effect
       effect="simplify"
       id="path-effect5077"
       is_visible="true"
       steps="1"
       threshold="0.000408163"
       smooth_angles="360"
       helper_size="0"
       simplify_individual_paths="false"
       simplify_just_coalesce="false"
       simplifyindividualpaths="false"
       simplifyJustCoalesce="false" />
    <inkscape:path-effect
       effect="simplify"
       id="path-effect5073"
       is_visible="true"
       steps="1"
       threshold="0.000408163"
       smooth_angles="360"
       helper_size="0"
       simplify_individual_paths="false"
       simplify_just_coalesce="false"
       simplifyindividualpaths="false"
       simplifyJustCoalesce="false" />
    <inkscape:path-effect
       effect="simplify"
       id="path-effect5057"
       is_visible="true"
       steps="1"
       threshold="0.000408163"
       smooth_angles="360"
       helper_size="0"
       simplify_individual_paths="false"
       simplify_just_coalesce="false"
       simplifyindividualpaths="false"
       simplifyJustCoalesce="false" />
    <inkscape:path-effect
       effect="simplify"
       id="path-effect5053"
       is_visible="true"
       steps="1"
       threshold="0.000408163"
       smooth_angles="360"
       helper_size="0"
       simplify_individual_paths="false"
       simplify_just_coalesce="false"
       simplifyindividualpaths="false"
       simplifyJustCoalesce="false" />
    <inkscape:path-effect
       effect="simplify"
       id="path-effect5045"
       is_visible="true"
       steps="1"
       threshold="0.000408163"
       smooth_angles="360"
       helper_size="0"
       simplify_individual_paths="false"
       simplify_just_coalesce="false"
       simplifyindividualpaths="false"
       simplifyJustCoalesce="false" />
    <inkscape:path-effect
       effect="simplify"
       id="path-effect5037"
       is_visible="true"
       steps="1"
       threshold="0.000408163"
       smooth_angles="360"
       helper_size="0"
       simplify_individual_paths="false"
       simplify_just_coalesce="false"
       simplifyindividualpaths="false"
       simplifyJustCoalesce="false" />
    <inkscape:path-effect
       effect="simplify"
       id="path-effect5016"
       is_visible="true"
       steps="1"
       threshold="0.000408163"
       smooth_angles="360"
       helper_size="0"
       simplify_individual_paths="false"
       simplify_just_coalesce="false"
       simplifyindividualpaths="false"
       simplifyJustCoalesce="false" />
  </defs>
  <sodipodi:namedview
     id="base"
     pagecolor="#ffffff"
     bordercolor="#666666"
     borderopacity="1.0"
     inkscape:pageopacity="0.0"
     inkscape:pageshadow="2"
     inkscape:zoom="11.313709"
     inkscape:cx="21.245876"
     inkscape:cy="31.142821"
     inkscape:document-units="mm"
     inkscape:current-layer="layer1"
     showgrid="false"
     units="px"
     inkscape:window-width="1853"
     inkscape:window-height="1025"
     inkscape:window-x="67"
     inkscape:window-y="27"
     inkscape:window-maximized="1" />
  <metadata
     id="metadata5">
    <rdf:RDF>
      <cc:Work
         rdf:about="">
        <dc:format>image/svg+xml</dc:format>
        <dc:type
           rdf:resource="http://purl.org/dc/dcmitype/StillImage" />
        <dc:title></dc:title>
      </cc:Work>
    </rdf:RDF>
  </metadata>
  <g
     inkscape:label="Layer 1"
     inkscape:groupmode="layer"
     id="layer1"
     transform="translate(0,-280.06665)">
    <path
       style="fill:none;stroke:#ffd42a;stroke-width:0.26458332;stroke-opacity:1"
       inkscape:path-effect="#path-effect5016"
       inkscape:original-d="m 7.1795282,283.0618 c -0.7513488,0.0643 -1.4110235,0.53764 -1.9983805,0.96805 -1.3559182,1.60594 -2.2270181,3.77789 -1.7537816,5.89175 0.1301888,1.26617 0.8366118,2.3932 1.7483935,3.24929 0.4605458,0.61132 1.2518165,0.68921 1.9584616,0.66924 1.3430114,0.0805 2.7189679,-0.23512 3.8132248,-1.04012 0.708413,-0.45078 1.420008,-0.93745 1.994846,-1.54811 0.452267,-0.87618 0.905773,-1.81036 0.862551,-2.82321 0.152533,-0.95896 -0.08875,-1.9066 -0.482844,-2.77918 -0.217743,-0.73367 -0.810113,-1.25903 -1.194206,-1.89957 -0.664371,-0.61749 -1.651792,-0.67785 -2.5054257,-0.82228 -0.8293463,-0.0353 -1.8164391,-0.42154 -2.5431666,0.11965 l -0.08672,0.0376"
       id="path5014"
       d="m 7.1795282,283.0618 c -0.3806511,0.0321 -0.7435715,0.17287 -1.0762467,0.35521 -0.3241904,0.17769 -0.6842904,0.33061 -0.9221338,0.61284 -0.6680251,0.7927 -1.2066415,1.7009 -1.5393782,2.68464 -0.2801145,0.82816 -0.4054107,1.71465 -0.3153856,2.58673 0.021526,0.20853 0.079803,0.41182 0.1009822,0.62038 0.068518,0.67475 0.3078693,1.32527 0.6547847,1.90569 0.2973658,0.49752 0.7477644,0.87918 1.0936088,1.3436 0.1632338,0.2192 0.391429,0.3852 0.6433626,0.48884 0.3255503,0.13392 0.6806696,0.17247 1.03004,0.18216 0.1002577,0.003 0.2007738,-0.007 0.3007989,-8.3e-4 0.9209148,0.053 1.8580795,-0.0807 2.7132101,-0.43287 0.3871778,-0.15947 0.7394508,-0.38846 1.0925768,-0.61346 0.611415,-0.38958 1.216081,-0.7987 1.743459,-1.29909 0.08325,-0.079 0.190486,-0.14174 0.243085,-0.24374 0.281284,-0.54544 0.557006,-1.09978 0.721745,-1.69344 0.1018,-0.36685 0.08024,-0.75308 0.140806,-1.12977 0.08937,-0.55587 0.04303,-1.12726 -0.09167,-1.67201 -0.09413,-0.38064 -0.2804,-0.73134 -0.39117,-1.10717 -0.101572,-0.34462 -0.293788,-0.65343 -0.503462,-0.942 -0.231309,-0.31834 -0.402612,-0.68826 -0.690744,-0.95757 -0.264538,-0.24726 -0.596074,-0.4112 -0.93902,-0.51971 -0.508887,-0.16102 -1.035432,-0.27745 -1.5664057,-0.30257 -0.481323,-0.0228 -0.9522379,-0.14263 -1.4337947,-0.1637 -0.2920953,-0.0128 -0.5924074,0.0168 -0.8621173,0.13738 -0.088621,0.0396 -0.1615243,0.10881 -0.2503626,0.14732 -0.027871,0.0121 -0.055741,0.0242 -0.083612,0.0362"
       inkscape:connector-curvature="0"
       transform="translate(-0.09354433,0.16370259)" />
    <path
       style="fill:none;stroke:#66ff00;stroke-width:0.26458332;stroke-opacity:1"
       inkscape:path-effect="#path-effect5037"
       inkscape:original-d="m 8.3488317,284.97954 c 0.3719103,-0.0905 0.2043762,0.54143 0.2806365,0.7703 -0.085595,0.54515 0.097806,1.06597 0.070161,1.61557 0.066257,0.52212 -0.065274,1.03792 -0.023387,1.56714 -0.037622,0.59594 -0.040269,1.20859 -0.420956,1.68433 -0.081045,0.13987 -0.3820479,0.22158 -0.561271,0.351 -0.259504,0.0522 -0.5254874,0.22491 -0.7951245,0.1638 0.00457,-0.0247 -0.014257,-0.0592 0.023386,-0.0702"
       id="path5035"
       d="m 8.3488317,284.97954 c 0.051884,-0.013 0.1122258,-0.015 0.157468,0.0179 0.047044,0.0341 0.068548,0.092 0.079709,0.14683 0.02289,0.1124 0.018009,0.22784 0.019544,0.34188 0.00111,0.0825 -0.00466,0.16736 0.018946,0.24698 0.010174,0.0343 -0.00297,0.0708 -0.00674,0.10597 -0.02695,0.25149 -7.599e-4,0.50454 0.029556,0.75444 0.031053,0.25598 0.019577,0.51518 0.052313,0.7719 0.034618,0.27147 0.015203,0.54577 -0.00529,0.81753 -0.018797,0.24923 -0.00211,0.49953 -0.018094,0.74961 -0.020092,0.3144 -0.029347,0.63121 -0.092272,0.94089 -0.044594,0.21946 -0.1203133,0.43481 -0.242403,0.62368 -0.026722,0.0413 -0.060782,0.0777 -0.086281,0.11976 -0.035407,0.0585 -0.094227,0.0971 -0.1521859,0.13055 -0.132767,0.0765 -0.258942,0.16872 -0.4048624,0.21743 -0.036788,0.0123 -0.076357,0.0198 -0.1140775,0.0312 -0.1589078,0.048 -0.3118032,0.11978 -0.4774992,0.14232 -0.068946,0.009 -0.2161221,0.0626 -0.2077705,-0.007 0.00293,-0.0243 -0.01124,-0.0629 0.023386,-0.0702"
       inkscape:connector-curvature="0"
       transform="translate(-0.09354433,0.16370259)" />
    <path
       style="fill:none;stroke:#66ff00;stroke-width:0.26458332;stroke-opacity:1"
       inkscape:path-effect="#path-effect5045"
       inkscape:original-d="m 8.5359205,289.37612 c 0.1780716,0.30058 0.046146,0.68208 0.046772,1.02911 0.040832,0.27581 0.061266,0.56795 0.257251,0.72513 0.1435468,0.0811 0.3848629,0.24056 0.53788,-0.0468 0.060564,-0.0423 0.1002862,-0.0912 0.187092,-0.1404"
       id="path5043"
       d="m 8.5359205,289.37612 c 0.050349,0.0843 0.077263,0.1809 0.087403,0.27816 0.013389,0.12842 0.00133,0.25768 -0.012264,0.38554 -0.012911,0.12147 -0.04644,0.24439 -0.028367,0.36541 0.019727,0.13209 0.033319,0.26561 0.067245,0.39509 0.023398,0.0893 0.057252,0.17768 0.1136946,0.25162 0.022182,0.0291 0.044529,0.0603 0.076311,0.0784 0.073241,0.0417 0.1467108,0.0858 0.2289647,0.10746 0.056265,0.0148 0.1181348,0.0149 0.1717768,-0.01 0.05275,-0.0245 0.092758,-0.0697 0.1225401,-0.1186 0.00512,-0.008 0.00655,-0.02 0.014598,-0.0257 0.047536,-0.0333 0.088641,-0.0748 0.1361738,-0.10822 0.016436,-0.0115 0.033442,-0.0223 0.050918,-0.0322"
       inkscape:connector-curvature="0"
       transform="translate(-0.09354433,0.16370259)" />
    <path
       style="fill:none;stroke:#66ff00;stroke-width:0.26458332;stroke-opacity:1"
       inkscape:path-effect="#path-effect5053"
       inkscape:original-d="m 8.7463952,287.50523 c 0.1701467,0.23909 -0.1001432,0.42969 -0.1336606,0.51448 -0.2198395,0.144 -0.4413276,0.3203 -0.7082504,0.39795 -0.2523589,0.089 -0.6441157,0.19899 -0.865284,0.0936 -0.1884995,-0.0776 -0.1654219,-0.17302 -0.257248,-0.3042 -0.071087,-0.1495 -0.2768856,-0.27054 0.07017,-0.16393 0.1862963,0.19489 0.514802,0.10231 0.7249665,-0.0234 0.3494587,-0.0623 0.6560562,0.18883 0.9354409,0.0702 0.3239914,-0.21205 -0.071961,0.13278 -0.11693,0.3041 -0.09878,0.14874 -0.1508775,0.24411 -0.280632,0.3042 -0.2753457,0.35952 -0.657776,0.6814 -1.0757586,0.49111 -0.1908327,-0.0146 -0.3202743,-0.17452 -0.420948,-0.3276 -0.1404662,-0.15903 -0.2052479,-0.20101 -0.35079,-0.3978 -0.07374,-0.19548 -0.1935284,-0.46713 -0.210474,-0.6785 -0.1747575,-0.4816 -0.00141,-0.47567 0.23386,-0.0702 0.2737632,0.25278 0.4422033,0.37804 0.7700194,0.35097 0.1840262,-0.0316 0.5045155,0.0572 0.5863709,-0.117"
       id="path5051"
       d="m 8.7463952,287.50523 c 0.035325,0.0488 0.057821,0.10841 0.05561,0.16933 -0.00269,0.0742 -0.039913,0.14147 -0.081971,0.20077 -0.029986,0.0423 -0.062797,0.0823 -0.095431,0.1226 -0.0078,0.01 -0.010664,0.021 -0.022175,0.0285 -0.1640665,0.10838 -0.3223478,0.22738 -0.4998053,0.3137 -0.063832,0.0311 -0.1311119,0.054 -0.1981387,0.0775 -0.1541634,0.054 -0.311637,0.1017 -0.4737452,0.12418 -0.097585,0.0135 -0.197656,0.0187 -0.2951161,5.7e-4 -0.039483,-0.007 -0.076845,-0.0224 -0.1134846,-0.0385 -0.053117,-0.0234 -0.1034127,-0.0574 -0.1361917,-0.10625 -0.032542,-0.0485 -0.048843,-0.10598 -0.080929,-0.15465 -0.026504,-0.0402 -0.050199,-0.0817 -0.077296,-0.12188 -0.023401,-0.0347 -0.071149,-0.0615 -0.071227,-0.1039 -3.26e-5,-0.0176 0.022275,-0.0155 0.03386,-0.0141 0.047194,0.005 0.093516,0.0174 0.1382679,0.0329 0.011585,0.004 0.022777,0.007 0.032336,0.0161 0.053676,0.0531 0.1253228,0.0857 0.1995285,0.0973 0.1002868,0.0157 0.2030264,-5.9e-4 0.2989101,-0.0312 0.076052,-0.0242 0.1391713,-0.0842 0.2176921,-0.0985 0.1097787,-0.0199 0.2223993,-0.007 0.3307071,0.0158 0.118808,0.0253 0.2345459,0.065 0.3552555,0.0811 0.081238,0.0109 0.1702435,0.0157 0.2429252,-0.024 0.038776,-0.0212 0.074068,-0.0495 0.115245,-0.0664 0.00591,-0.002 0.023237,-0.007 0.016811,0.006 -0.019027,0.0382 -0.048622,0.0698 -0.075018,0.10304 -0.050396,0.0634 -0.098785,0.12841 -0.1414643,0.19751 -0.013236,0.0214 -0.016769,0.0479 -0.030547,0.0684 -0.045967,0.0683 -0.088106,0.14001 -0.1439427,0.20102 -0.037045,0.0405 -0.098647,0.0527 -0.1320927,0.0962 -0.1007501,0.1311 -0.2122037,0.25556 -0.3430827,0.35732 -0.104518,0.0813 -0.2231503,0.1479 -0.3534159,0.17662 -0.104334,0.023 -0.2125975,0.01 -0.3158674,-0.0177 -0.024804,-0.007 -0.047017,-0.0235 -0.072293,-0.0259 -0.082626,-0.008 -0.1594318,-0.047 -0.2223504,-0.0999 -0.075963,-0.0639 -0.1248606,-0.15256 -0.1896972,-0.22695 -0.063397,-0.0727 -0.1325613,-0.14011 -0.1979625,-0.21098 -0.054604,-0.0592 -0.1242699,-0.11157 -0.1528275,-0.18682 -0.064731,-0.17057 -0.1380663,-0.33876 -0.1821804,-0.51626 -0.013247,-0.0533 -0.00977,-0.11046 -0.028294,-0.16224 -0.028033,-0.0784 -0.058569,-0.15748 -0.066808,-0.24051 -0.00389,-0.0392 -0.019229,-0.0918 0.013363,-0.11901 0.024831,-0.0207 0.057571,1.8e-4 0.078259,0.0164 0.047104,0.0369 0.084619,0.0844 0.1192535,0.13272 0.032349,0.0451 0.048872,0.1027 0.089793,0.14021 0.091609,0.084 0.1839408,0.16836 0.2883805,0.23637 0.079348,0.0517 0.1680242,0.0899 0.2615239,0.10673 0.072538,0.0131 0.1474657,0.0194 0.220115,0.008 0.073743,-0.0117 0.148633,-0.007 0.2229161,-0.005 0.076185,0.002 0.1534247,0.003 0.2282501,-0.0136 0.052705,-0.012 0.10553,-0.0403 0.1311944,-0.09 0,0 0.00401,-0.008 0.00401,-0.008"
       inkscape:connector-curvature="0"
       transform="translate(-0.09354433,0.16370259)" />
    <path
       style="fill:none;stroke:#66ff00;stroke-width:0.26458332;stroke-opacity:1"
       inkscape:path-effect="#path-effect5057"
       inkscape:original-d="m 8.7463952,287.50523 c -0.3528446,-0.36221 0.021199,-0.96444 0.2572452,-1.26313 0.08482,-0.10929 0.4718289,-0.0958 0.6080402,-0.0234 0.2302995,0.0334 0.4326054,0.1728 0.6548244,0.2106 0.264335,0.0548 0.472745,0.10793 0.743222,0.117 0.03783,0.0804 0.204086,-0.17701 0.215631,0"
       id="path5055"
       d="m 8.7463952,287.50523 c -0.062517,-0.0635 -0.1075705,-0.1439 -0.1287833,-0.23056 -0.025763,-0.10525 -0.018082,-0.21606 0.00665,-0.32069 0.032059,-0.13563 0.089725,-0.26395 0.1581298,-0.38487 0.064874,-0.11468 0.1369638,-0.2258 0.2212476,-0.32701 0.032304,-0.0388 0.083411,-0.0547 0.1309753,-0.0645 0.081142,-0.0168 0.1648516,-0.019 0.2471833,-0.0121 0.068346,0.006 0.1380685,0.0136 0.201538,0.0404 0.016344,0.007 0.031968,0.0132 0.049854,0.0163 0.1251249,0.0218 0.2420786,0.0733 0.3591037,0.12066 0.088879,0.0359 0.1799527,0.067 0.2742107,0.0865 0.196006,0.0405 0.391364,0.0873 0.590963,0.10696 0.05063,0.005 0.135055,-0.0378 0.152259,0.01 0.0073,0.0204 0.03205,0.017 0.04803,0.009 0.0395,-0.0196 0.07207,-0.0504 0.112354,-0.0689 0.01527,-0.007 0.03544,-0.004 0.04422,0.0124 0.0079,0.0145 0.0098,0.0313 0.01103,0.0475"
       inkscape:connector-curvature="0"
       transform="translate(-0.09354433,0.16370259)" />
    <path
       style="fill:none;stroke:#66ff00;stroke-width:0.26458332;stroke-opacity:1"
       inkscape:path-effect="#path-effect5073"
       inkscape:original-d="m 9.3310473,286.03191 c 0.2089235,0.0919 0.2437386,-0.25786 0.4209523,-0.3276 0.2064851,-0.12914 0.5969594,-0.29083 0.8887074,-0.1638 0.108901,0.0728 0.319935,0.22108 0.444355,0.3042 0.155392,0.0789 0.370945,0.21028 0.608075,0.2574 0.142975,0.1165 0.698646,-0.16079 0.584651,-0.0702 -0.118282,0.0874 -0.328086,0.21724 -0.46777,0.3744 -0.07868,0.12811 -0.186215,0.36827 -0.306549,0.48091 -0.159815,0.18052 -0.307376,0.24449 -0.512021,0.31459 -0.335494,0.1127 -0.70551,0.0107 -0.982256,-0.1638 -0.1620814,-0.0873 -0.342289,-0.16228 -0.4370271,-0.37033 -0.09939,-0.055 -0.1440858,-0.41334 -0.1710153,-0.33147"
       id="path5071"
       d="m 9.3310473,286.03191 c 0.04495,0.0222 0.101119,0.0197 0.1420039,-0.0112 0.045953,-0.0348 0.076124,-0.0852 0.1069292,-0.1328 0.036383,-0.0563 0.070691,-0.11717 0.1256717,-0.15719 0.027327,-0.0199 0.057808,-0.0341 0.087151,-0.0509 0.1232431,-0.0706 0.2556113,-0.12673 0.3941293,-0.15895 0.118183,-0.0275 0.243372,-0.0398 0.362124,-0.0104 0.04398,0.0109 0.08671,0.0266 0.124817,0.0525 0.137449,0.0934 0.263475,0.20573 0.411189,0.28185 0.113478,0.0585 0.224918,0.12133 0.342365,0.17176 0.08561,0.0368 0.192004,0.0284 0.26571,0.0856 0.03466,0.0269 0.08077,0.0306 0.122939,0.0289 0.08134,-0.003 0.160783,-0.0238 0.238681,-0.0462 0.06954,-0.0199 0.136387,-0.0491 0.206761,-0.0658 0.0097,-0.002 0.02782,-0.0154 0.02974,-0.005 0.0021,0.0111 -0.01169,0.017 -0.01908,0.0223 -0.0989,0.0714 -0.200847,0.13867 -0.29586,0.2153 -0.05902,0.0476 -0.127171,0.0899 -0.166299,0.15497 -0.05519,0.0917 -0.102069,0.18819 -0.157305,0.27991 -0.04174,0.0693 -0.08743,0.13684 -0.143613,0.19563 -0.024,0.0251 -0.04745,0.0508 -0.07252,0.075 -0.0733,0.0705 -0.159141,0.12745 -0.251512,0.16991 -0.06796,0.0312 -0.138115,0.0577 -0.209372,0.0802 -0.16028,0.0508 -0.333225,0.0532 -0.497408,0.0207 -0.166473,-0.033 -0.319754,-0.10948 -0.469097,-0.1896 -0.1033819,-0.0555 -0.2111407,-0.10635 -0.2998523,-0.18475 -0.058085,-0.0513 -0.071608,-0.14419 -0.1371748,-0.18558 -0.038779,-0.0245 -0.058079,-0.0691 -0.075024,-0.10973 -0.02752,-0.066 -0.040999,-0.13694 -0.068232,-0.2029 -0.0044,-0.0107 -0.00513,-0.0274 -0.016756,-0.0304 -0.00757,-0.002 -0.00884,0.007 -0.011003,0.0115"
       inkscape:connector-curvature="0"
       transform="translate(-0.09354433,0.16370259)" />
    <path
       style="fill:none;stroke:#ccff00;stroke-width:0.26458332;stroke-opacity:1"
       inkscape:path-effect="#path-effect5077"
       inkscape:original-d="m 14.382441,280.86359 c -0.08409,0.42788 -0.595459,0.76239 -0.941316,1.05261 -0.449526,0.2529 -0.850425,0.54122 -1.280358,0.81886"
       id="path5075"
       d="m 14.382441,280.86359 c -0.02291,0.11698 -0.07785,0.22544 -0.146341,0.32212 -0.08769,0.12379 -0.195908,0.23138 -0.308937,0.3319 -0.155336,0.13814 -0.307266,0.28276 -0.481977,0.39519 -0.03176,0.0204 -0.06544,0.0382 -0.09819,0.0573 -0.407116,0.23646 -0.791002,0.50978 -1.18623,0.765"
       inkscape:connector-curvature="0"
       transform="translate(-0.09354433,0.16370259)" />
    <path
       style="fill:none;stroke:#ccff00;stroke-width:0.26458332;stroke-opacity:1"
       inkscape:path-effect="#path-effect5081"
       inkscape:original-d="m 15.785606,284.06748 c 0.06312,0.0273 -0.855821,0.11625 -1.122529,0.234 -0.305738,0.0632 -0.632756,0.0808 -0.935429,0.117"
       id="path5079"
       d="m 15.785606,284.06748 c 0,0 7.25e-4,0.006 7.25e-4,0.006 -0.03811,0.0152 -0.07946,0.0203 -0.119725,0.027 -0.140482,0.0234 -0.281479,0.0435 -0.421957,0.0669 -0.133877,0.0223 -0.267944,0.0448 -0.399716,0.0775 -0.06163,0.0153 -0.119519,0.0439 -0.181856,0.0567 -0.308306,0.0634 -0.6235,0.0799 -0.935429,0.117"
       inkscape:connector-curvature="0"
       transform="translate(-0.09354433,0.16370259)" />
    <path
       style="fill:none;stroke:#ccff00;stroke-width:0.26458332;stroke-opacity:1"
       inkscape:path-effect="#path-effect5085"
       inkscape:original-d="m 15.785606,288.27697 c -0.35313,-0.24134 -0.92443,-0.27711 -1.095517,-0.65434 l -0.02704,-8.6e-4"
       id="path5083"
       d="m 15.785606,288.27697 c -0.09038,-0.0616 -0.190221,-0.10759 -0.291131,-0.14898 -0.138219,-0.0567 -0.280365,-0.10389 -0.415918,-0.16699 -0.08785,-0.0409 -0.173481,-0.0887 -0.247028,-0.15234 -0.05929,-0.0513 -0.06282,-0.1835 -0.14144,-0.18603 -0.009,-2.9e-4 -0.01803,-5.7e-4 -0.02704,-8.6e-4"
       inkscape:connector-curvature="0"
       transform="translate(-0.09354433,0.16370259)" />
    <path
       style="fill:none;stroke:#ccff00;stroke-width:0.26458332;stroke-opacity:1"
       inkscape:path-effect="#path-effect5089"
       inkscape:original-d="m 15.832378,290.84944 c -0.415914,-0.20116 -0.909612,-0.41922 -1.336844,-0.72988 -0.162991,-0.0812 -0.342718,-0.40848 -0.230045,-0.62703"
       id="path5087"
       d="m 15.832378,290.84944 c -0.241815,-0.11669 -0.485714,-0.22929 -0.72319,-0.35474 -0.212084,-0.11204 -0.399852,-0.266 -0.613654,-0.37514 -0.05064,-0.0258 -0.09252,-0.066 -0.127632,-0.11014 -0.05576,-0.07 -0.09777,-0.15139 -0.120604,-0.238 -0.01934,-0.0734 -0.02468,-0.15237 -0.003,-0.22585 0.0054,-0.0183 0.01246,-0.0361 0.0212,-0.053"
       inkscape:connector-curvature="0"
       transform="translate(-0.09354433,0.16370259)" />
    <path
       style="fill:none;stroke:#ccff00;stroke-width:0.26458332;stroke-opacity:1"
       inkscape:path-effect="#path-effect5101"
       inkscape:original-d="m 15.715448,286.219 c -0.474284,-0.004 -0.948168,0.10272 -1.426541,-0.0234"
       id="path5099"
       d="m 15.715448,286.219 c -0.248905,-0.002 -0.496652,0.026 -0.745146,0.0355 -0.165687,0.006 -0.332376,0.004 -0.496612,-0.021 -0.06221,-0.009 -0.123953,-0.0219 -0.184783,-0.0379"
       inkscape:connector-curvature="0"
       transform="translate(-0.09354433,0.16370259)" />
    <path
       style="fill:none;stroke:#ccff00;stroke-width:0.26458332;stroke-opacity:1"
       inkscape:path-effect="#path-effect5105"
       inkscape:original-d="m 15.317885,292.46308 c -0.507201,0.0345 -1.001374,-0.14285 -1.449938,-0.3509 -0.159228,-0.1119 -0.24121,-0.29395 -0.397556,-0.39763"
       id="path5103"
       d="m 15.317885,292.46308 c -0.206235,0.0142 -0.413806,-0.007 -0.615272,-0.052 -0.238078,-0.0528 -0.468035,-0.13704 -0.691254,-0.23434 -0.04806,-0.0209 -0.100468,-0.0345 -0.143412,-0.0646 -0.07573,-0.053 -0.135732,-0.12438 -0.194238,-0.1951 -0.0573,-0.0693 -0.115137,-0.13996 -0.188874,-0.19258 0,0 -0.0072,-0.005 -0.0072,-0.005 0,0 -0.0073,-0.005 -0.0073,-0.005"
       inkscape:connector-curvature="0"
       transform="translate(-0.09354433,0.16370259)" />
    <path
       style="fill:none;stroke:#ccff00;stroke-width:0.26458332;stroke-opacity:1"
       inkscape:path-effect="#path-effect5109"
       inkscape:original-d="m 13.563928,295.22264 c -0.384705,-0.402 -0.484029,-1.04378 -0.58468,-1.61352 -0.05216,-0.17955 0.0331,-0.60257 -0.280646,-0.53795"
       id="path5107"
       d="m 13.563928,295.22264 c -0.119791,-0.125 -0.211927,-0.27423 -0.283048,-0.4315 -0.08605,-0.19028 -0.143712,-0.392 -0.189774,-0.59526 -0.04402,-0.19424 -0.05893,-0.39482 -0.111858,-0.58676 -0.01409,-0.0511 -0.0172,-0.10433 -0.02093,-0.15696 -0.0055,-0.0774 -0.0078,-0.15578 -0.02765,-0.23113 -0.01143,-0.0435 -0.0296,-0.0871 -0.06318,-0.11832 -0.03226,-0.03 -0.07786,-0.0401 -0.120896,-0.0379 -0.01613,8.1e-4 -0.03217,0.003 -0.04798,0.006"
       inkscape:connector-curvature="0"
       transform="translate(-0.09354433,0.16370259)" />
    <path
       style="fill:none;stroke:#ccff00;stroke-width:0.26458332;stroke-opacity:1"
       inkscape:path-effect="#path-effect5113"
       inkscape:original-d="m 11.178548,296.4621 c -0.458286,-0.42646 -0.303293,-1.10649 -0.374187,-1.66026 -0.06083,-0.24428 -0.09856,-0.40841 -0.16372,-0.6315"
       id="path5111"
       d="m 11.178548,296.4621 c -0.09111,-0.0843 -0.164264,-0.18739 -0.216022,-0.30015 -0.0618,-0.13465 -0.09365,-0.28101 -0.110613,-0.42759 -0.02842,-0.24567 -0.01789,-0.49347 -0.03093,-0.74002 -0.0034,-0.0643 -0.001,-0.12998 -0.01662,-0.1925 -0.05084,-0.20402 -0.09927,-0.40872 -0.15769,-0.61075 -0.002,-0.007 -0.004,-0.0138 -0.006,-0.0207"
       inkscape:connector-curvature="0"
       transform="translate(-0.09354433,0.16370259)" />
    <path
       style="fill:none;stroke:#ccff00;stroke-width:0.26458332;stroke-opacity:1"
       inkscape:path-effect="#path-effect5117"
       inkscape:original-d="m 8.7463952,296.55565 c 0.096926,-0.69593 0.098554,-1.42619 0.1914228,-2.1202 l -0.027717,-0.008"
       id="path5115"
       d="m 8.7463952,296.55565 c 0.05772,-0.4155 0.081251,-0.83463 0.1103273,-1.25282 0.020143,-0.2897 0.3601658,-0.78673 0.081095,-0.86738 -0.00924,-0.003 -0.018478,-0.005 -0.027717,-0.008"
       inkscape:connector-curvature="0"
       transform="translate(-0.09354433,0.16370259)" />
    <path
       style="fill:none;stroke:#ccff00;stroke-width:0.26458332;stroke-opacity:1"
       inkscape:path-effect="#path-effect5121"
       inkscape:original-d="m 6.1271538,296.57903 c 0.1139813,-0.53776 0.4595719,-1.04173 0.654812,-1.56706 0.073646,-0.11633 -0.02309,-0.24716 0.093545,-0.32751"
       id="path5119"
       d="m 6.1271538,296.57903 c 0.041777,-0.19678 0.1134413,-0.38579 0.1948953,-0.56924 0.1326247,-0.2987 0.2866354,-0.58723 0.4166361,-0.88731 0.016558,-0.0382 0.02529,-0.0804 0.046609,-0.11597 0.021012,-0.0351 0.026938,-0.0767 0.027807,-0.11701 9.099e-4,-0.0422 -0.00392,-0.0851 0.00609,-0.12671 0.00778,-0.0323 0.028854,-0.0601 0.056314,-0.0783"
       inkscape:connector-curvature="0"
       transform="translate(-0.09354433,0.16370259)" />
    <path
       style="fill:none;stroke:#ccff00;stroke-width:0.26458332;stroke-opacity:1"
       inkscape:path-effect="#path-effect5125"
       inkscape:original-d="m 3.1571213,292.83726 c 0.4104182,-0.17589 -0.5640813,0.0439 -0.8167915,-0.0234 -0.3935139,0.0236 -0.8044351,-0.0869 -1.1476363,0.0468 H 1.052377 l -0.023386,0.0234"
       id="path5123"
       d="m 3.1571213,292.83726 c 0.031812,-0.0145 0.065293,-0.0271 0.093103,-0.0487 0,0 0.00588,-0.007 0.00588,-0.007 0,0 -3.039e-4,-0.006 -3.039e-4,-0.006 -0.015896,-0.0111 -0.036963,-0.009 -0.055361,-0.008 -0.066187,0.002 -0.1320314,0.01 -0.1978111,0.0168 -0.1470868,0.016 -0.294059,0.0353 -0.4419852,0.041 -0.062489,0.002 -0.1252171,0.002 -0.1875233,-0.005 -0.017226,-0.002 -0.033368,-0.006 -0.051251,-0.006 -0.2280325,0.0112 -0.4552127,-0.0203 -0.6830796,-0.0216 -0.1337498,-7.9e-4 -0.2669192,0.0177 -0.397398,0.0502 -0.017389,0.004 -0.033395,0.0172 -0.05111,0.0172 -0.045969,0 -0.1054114,-0.0325 -0.1379065,0 -0.0078,0.008 -0.015591,0.0156 -0.023386,0.0234"
       inkscape:connector-curvature="0"
       transform="translate(-0.09354433,0.16370259)" />
    <path
       style="fill:none;stroke:#ccff00;stroke-width:0.26458332;stroke-opacity:1"
       inkscape:path-effect="#path-effect5129"
       inkscape:original-d="m 4.3965836,294.31058 c -0.1611821,0.52464 -0.7768382,0.89471 -1.1459169,1.33299 -0.1744849,0.0878 -0.6026539,0.30748 -0.7483539,0.1638"
       id="path5127"
       d="m 4.3965836,294.31058 c -0.042993,0.1402 -0.118509,0.26833 -0.2073754,0.38416 -0.1130448,0.14734 -0.246336,0.27752 -0.3818153,0.40397 -0.1600647,0.1494 -0.3260911,0.29294 -0.4754602,0.45334 -0.027806,0.0299 -0.044848,0.0731 -0.081266,0.0915 -0.1314777,0.0664 -0.2642759,0.13252 -0.4056217,0.17525 -0.06692,0.0202 -0.1361157,0.0372 -0.2064391,0.036 -0.048709,-8e-4 -0.1005408,-0.012 -0.1362931,-0.0475"
       inkscape:connector-curvature="0"
       transform="translate(-0.09354433,0.16370259)" />
    <path
       style="fill:none;stroke:#ccff00;stroke-width:0.26458332;stroke-opacity:1"
       inkscape:path-effect="#path-effect5133"
       inkscape:original-d="m 2.8764883,289.98416 c -0.2079783,0.38281 -0.7613595,0.10337 -1.0994514,0.0893 -0.1824358,-0.0432 -0.3597808,-0.0685 -0.514187,-0.13605"
       id="path5131"
       d="m 2.8764883,289.98416 c -0.03138,0.0585 -0.077576,0.1095 -0.1350026,0.14341 -0.064839,0.0383 -0.1405762,0.0538 -0.2151221,0.0568 -0.098457,0.004 -0.1964751,-0.0108 -0.2929241,-0.0292 -0.1160443,-0.0221 -0.2305291,-0.0521 -0.3473155,-0.0702 -0.036144,-0.006 -0.073493,-0.003 -0.1090871,-0.0115 -0.1313157,-0.0313 -0.2650496,-0.053 -0.3943602,-0.0924 -0.040686,-0.0124 -0.080848,-0.0266 -0.1198268,-0.0437"
       inkscape:connector-curvature="0"
       transform="translate(-0.09354433,0.16370259)" />
    <path
       style="fill:none;stroke:#ccff00;stroke-width:0.26458332;stroke-opacity:1"
       inkscape:path-effect="#path-effect5137"
       inkscape:original-d="m 2.5724692,288.13666 c 0.3074825,0.14596 -0.4074355,-0.23426 -0.5239661,-0.28642 -0.4507725,-0.35395 -1.11881587,-0.56874 -1.3469177,-1.11715 -0.007124,-0.0347 0.0158149,-0.0981 0.046772,-0.0936"
       id="path5135"
       d="m 2.5724692,288.13666 c 0.025218,0.0106 0.098335,0.0477 0.075811,0.0322 -0.035203,-0.0242 -0.073349,-0.0439 -0.1108536,-0.0643 -0.1390658,-0.0756 -0.2813954,-0.14519 -0.4203412,-0.22107 -0.024207,-0.0132 -0.05221,-0.0206 -0.073875,-0.0374 -0.152689,-0.1187 -0.3199414,-0.21658 -0.4853969,-0.31603 -0.1692675,-0.10174 -0.3391414,-0.20442 -0.4917378,-0.33049 -0.11821079,-0.0977 -0.22537385,-0.21105 -0.30328705,-0.34384 -0.0231415,-0.0394 -0.0552922,-0.0773 -0.0612035,-0.12265 -0.004137,-0.0317 0.002782,-0.0714 0.0303496,-0.0896 0.00478,-0.003 0.0106816,-0.005 0.0164224,-0.004"
       inkscape:connector-curvature="0"
       transform="translate(-0.09354433,0.16370259)" />
    <path
       style="fill:none;stroke:#ccff00;stroke-width:0.26458332;stroke-opacity:1"
       inkscape:path-effect="#path-effect5141"
       inkscape:original-d="M 3.6950012,285.77466 C 3.1315297,285.89972 2.5139828,285.5427 2.1047489,285.16653 1.9307241,284.95871 1.5633375,284.82781 1.4967115,284.58168"
       id="path5139"
       d="m 3.6950012,285.77466 c -0.1583223,0.0353 -0.3236162,0.0319 -0.482424,0.001 -0.1903928,-0.0366 -0.3724336,-0.10928 -0.5423003,-0.20169 -0.1951425,-0.10616 -0.3718292,-0.24246 -0.541313,-0.38584 -0.031632,-0.0268 -0.056939,-0.0597 -0.08761,-0.0877 -0.0922,-0.084 -0.1984837,-0.15025 -0.2979496,-0.22499 -0.068787,-0.0517 -0.1369197,-0.10669 -0.1881934,-0.17651 -0.026042,-0.0355 -0.047026,-0.075 -0.058499,-0.11767"
       inkscape:connector-curvature="0"
       transform="translate(-0.09354433,0.16370259)" />
    <path
       style="fill:none;stroke:#ccff00;stroke-width:0.26458332;stroke-opacity:1"
       inkscape:path-effect="#path-effect5145"
       inkscape:original-d="m 4.2094951,283.5296 c -0.4699777,-0.34227 -1.0067264,-0.959 -1.356391,-1.52005 -0.070381,-0.15484 -0.4038796,-0.5672 -0.5378783,-0.42108"
       id="path5143"
       d="m 4.2094951,283.5296 c -0.1720061,-0.12572 -0.3308502,-0.26867 -0.480933,-0.41962 -0.2115029,-0.21273 -0.4072006,-0.44105 -0.5871,-0.68102 -0.1017893,-0.13578 -0.2157474,-0.26601 -0.288358,-0.41941 -0.026559,-0.0561 -0.061593,-0.10778 -0.098974,-0.15713 -0.057037,-0.0753 -0.1192678,-0.1476 -0.192371,-0.20771 -0.037981,-0.0312 -0.079206,-0.0595 -0.1253949,-0.0774 -0.040358,-0.0157 -0.091266,-0.0141 -0.1211384,0.0212"
       inkscape:connector-curvature="0"
       transform="translate(-0.09354433,0.16370259)" />
    <path
       style="fill:none;stroke:#ccff00;stroke-width:0.26458332;stroke-opacity:1"
       inkscape:path-effect="#path-effect5157"
       inkscape:original-d="m 5.6126599,282.57077 c -0.3820681,-0.35842 -0.4571693,-1.03051 -0.9120555,-1.37988 -0.1403461,-0.10997 -0.3266878,-0.2557 -0.327404,-0.4211"
       id="path5155"
       d="m 5.6126599,282.57077 c -0.098912,-0.0928 -0.1764458,-0.20572 -0.2429008,-0.32326 -0.1096038,-0.19386 -0.1934316,-0.40087 -0.3003713,-0.59614 -0.072692,-0.13273 -0.1572009,-0.26044 -0.2641265,-0.36834 -0.036714,-0.0371 -0.076987,-0.0703 -0.117942,-0.10255 -0.080116,-0.0631 -0.1612083,-0.12688 -0.2259853,-0.20624 -0.039464,-0.0484 -0.073799,-0.10373 -0.084677,-0.16605 -0.00221,-0.0127 -0.0034,-0.0255 -0.00346,-0.0384"
       inkscape:connector-curvature="0"
       transform="translate(-0.09354433,0.16370259)" />
    <path
       style="fill:none;stroke:#ccff00;stroke-width:0.26458332;stroke-opacity:1"
       inkscape:path-effect="#path-effect5177"
       inkscape:original-d="m 7.1561414,282.10305 c 0.00595,-0.32922 -0.3263647,-0.59878 -0.514494,-0.8656 -0.2202937,-0.22976 -0.584243,-0.32244 -0.724964,-0.6083 -0.042933,-0.048 -0.1136363,-0.0841 -0.093544,-0.16372"
       id="path5175"
       d="m 7.1561414,282.10305 c 0.00188,-0.0894 -0.022776,-0.17764 -0.06113,-0.25784 -0.050596,-0.1058 -0.1218542,-0.19993 -0.1956535,-0.29043 -0.084496,-0.10362 -0.1669337,-0.20879 -0.2532751,-0.31108 -0.030573,-0.0362 -0.067554,-0.0669 -0.1048742,-0.096 -0.1375288,-0.10725 -0.2959585,-0.18408 -0.4326488,-0.29249 -0.072085,-0.0572 -0.1408429,-0.1232 -0.1816189,-0.2063 -0.006,-0.0122 -0.013089,-0.0232 -0.022967,-0.033 -0.027318,-0.0271 -0.060514,-0.0508 -0.076689,-0.0869 -0.00891,-0.0199 -0.00966,-0.0427 -0.00415,-0.0636"
       inkscape:connector-curvature="0" />
    <path
       style="fill:none;stroke:#ccff00;stroke-width:0.26458332;stroke-opacity:1"
       inkscape:path-effect="#path-effect5189"
       inkscape:original-d="m 11.786586,280.72327 c 0.103406,0.3089 -0.197717,0.50074 -0.3508,0.60825 -0.36693,0.31111 -0.79243,0.58113 -1.099133,0.98264 -0.164898,0.0493 -0.297623,0.2715 -0.467727,0.234"
       id="path5187"
       d="m 11.786586,280.72327 c 0.02297,0.0672 0.0279,0.14103 0.01034,0.21024 -0.02042,0.0805 -0.06884,0.15079 -0.125644,0.21012 -0.06975,0.0729 -0.158857,0.12301 -0.235495,0.18789 -0.243818,0.20642 -0.505894,0.39057 -0.743629,0.6043 -0.128815,0.11581 -0.189697,0.32757 -0.355504,0.37834 -0.0633,0.0194 -0.116871,0.0601 -0.168543,0.10006 -0.05442,0.0421 -0.107271,0.0879 -0.1702409,0.11696 -0.039933,0.0184 -0.08556,0.027 -0.1289431,0.017"
       inkscape:connector-curvature="0" />
    <path
       style="fill:none;stroke:#ccff00;stroke-width:0.26458332;stroke-opacity:1"
       inkscape:path-effect="#path-effect5209"
       inkscape:original-d="m 8.4891482,282.19659 c 0.2217784,-0.13666 0.1452266,-0.66417 0.1653196,-0.93689 0.062774,-0.22103 0.00536,-0.42589 0.045158,-0.58349 0.011024,-0.0643 -0.020143,0.0266 -0.046773,0"
       id="path5207"
       d="m 8.4891482,282.19659 c 0.043216,-0.0264 0.074619,-0.0685 0.095889,-0.11384 0.029915,-0.0637 0.044477,-0.13347 0.053177,-0.20294 0.014989,-0.11968 0.014073,-0.24057 0.013296,-0.36096 -5.435e-4,-0.0842 -0.00752,-0.16901 0.0025,-0.25271 0.00214,-0.0179 0.00816,-0.0352 0.011988,-0.0528 0.01981,-0.0913 0.020753,-0.18532 0.019509,-0.27838 -9.844e-4,-0.0736 -0.00235,-0.14752 0.00646,-0.22095 0.00223,-0.0186 0.00874,-0.0364 0.0099,-0.0552 0,0 -0.00116,-0.006 -0.00116,-0.006 -0.00976,0.005 -0.015152,0.0148 -0.022991,0.0222 -0.00665,0.006 -0.018142,0.009 -0.024869,0.001"
       inkscape:connector-curvature="0" />
  </g>
</svg>
