<?xml version="1.0" encoding="UTF-8" standalone="no"?>
<!-- Created with Inkscape (http://www.inkscape.org/) -->

<svg
   xmlns:dc="http://purl.org/dc/elements/1.1/"
   xmlns:cc="http://creativecommons.org/ns#"
   xmlns:rdf="http://www.w3.org/1999/02/22-rdf-syntax-ns#"
   xmlns:svg="http://www.w3.org/2000/svg"
   xmlns="http://www.w3.org/2000/svg"
   xmlns:sodipodi="http://sodipodi.sourceforge.net/DTD/sodipodi-0.dtd"
   xmlns:inkscape="http://www.inkscape.org/namespaces/inkscape"
   width="64"
   height="64"
   viewBox="0 0 16.933333 16.933334"
   version="1.1"
   id="svg8"
   sodipodi:docname="PlantWater.svg"
   inkscape:version="0.92.4 (fd57863, 2020-04-02)">
  <defs
     id="defs2">
    <inkscape:path-effect
       effect="simplify"
       id="path-effect4911"
       is_visible="true"
       steps="1"
       threshold="0.000408163"
       smooth_angles="360"
       helper_size="0"
       simplify_individual_paths="false"
       simplify_just_coalesce="false"
       simplifyindividualpaths="false"
       simplifyJustCoalesce="false" />
  </defs>
  <sodipodi:namedview
     id="base"
     pagecolor="#ffffff"
     bordercolor="#666666"
     borderopacity="1.0"
     inkscape:pageopacity="0.0"
     inkscape:pageshadow="2"
     inkscape:zoom="10.683544"
     inkscape:cx="39.907492"
     inkscape:cy="30.667744"
     inkscape:document-units="mm"
     inkscape:current-layer="layer1"
     showgrid="false"
     units="px"
     inkscape:window-width="1853"
     inkscape:window-height="1025"
     inkscape:window-x="67"
     inkscape:window-y="27"
     inkscape:window-maximized="1" />
  <metadata
     id="metadata5">
    <rdf:RDF>
      <cc:Work
         rdf:about="">
        <dc:format>image/svg+xml</dc:format>
        <dc:type
           rdf:resource="http://purl.org/dc/dcmitype/StillImage" />
        <dc:title></dc:title>
      </cc:Work>
    </rdf:RDF>
  </metadata>
  <g
     inkscape:label="Layer 1"
     inkscape:groupmode="layer"
     id="layer1"
     transform="translate(0,-280.06665)">
    <path
       style="fill:none;stroke:#0066ff;stroke-width:0.2909098;stroke-opacity:1"
       d="m 8.3745036,280.78956 c -0.16392,0.80486 -0.040584,1.62922 -0.03305,2.44253 0.055878,1.18162 0.2697716,2.35543 0.7221887,3.45355 0.3821432,1.16126 0.9923997,2.22032 1.6557127,3.23974 0.616371,0.9002 1.365018,1.77288 1.570707,2.88076 0.168829,0.7007 0.301094,1.53107 -0.210765,2.12449 -0.372567,0.54803 -1.044008,0.80244 -1.605931,1.10849 -0.7936315,0.22282 -1.6014991,0.43179 -2.4219858,0.5267 -1.3135858,0.0336 -2.6646319,0.0875 -3.9365545,-0.29354 -1.0246846,-0.34287 -1.54555,-1.47876 -1.5021445,-2.50461 -0.03427,-1.22782 0.5285423,-2.38574 1.1565126,-3.4069 0.8447366,-1.06473 1.8076685,-2.04707 2.4637358,-3.25033 0.4830442,-0.75745 0.8193715,-1.58996 1.1656244,-2.41355 0.2418768,-0.80208 0.5364046,-1.59136 0.6232798,-2.42868 0.1256176,-0.73325 0.2820274,-1.46108 0.2390676,-2.21003"
       id="path4860"
       inkscape:connector-curvature="0" />
    <path
       style="fill:none;stroke:#37c837;stroke-width:0.26458332;stroke-opacity:1"
       d="m 5.5165153,295.11162 c 0.8188726,0.39675 1.7845005,-0.0607 1.8729103,-0.99304 0.3219649,-0.79827 -0.5783198,0.68049 0.00203,0.86793 0.4108729,0.24658 1.1449103,0.15566 1.4931571,0.0753"
       id="path4868"
       inkscape:connector-curvature="0" />
    <path
       style="fill:none;stroke:#37c837;stroke-width:0.26458332;stroke-opacity:1"
       d="m 7.3986831,293.99642 c 0.034827,-0.68718 0.2287542,-1.33794 0.4840322,-1.97237 0.3824571,-0.96442 0.3962355,-2.04498 0.1256741,-3.03868 -0.021039,-0.28571 -0.2125291,-0.6319 -0.064865,-0.88322"
       id="path4870"
       inkscape:connector-curvature="0" />
    <path
       style="fill:none;stroke:#37c837;stroke-width:0.26458332;stroke-opacity:1"
       d="m 8.1292757,291.27916 c -0.4622579,0.85029 0.7071933,1.25972 1.3776989,1.18655 0.131988,0.002 0.287246,0.0225 0.405373,0.003"
       id="path4872"
       inkscape:connector-curvature="0" />
    <path
       style="fill:none;stroke:#37c837;stroke-width:0.26458332;stroke-opacity:1"
       d="m 8.2902516,290.50523 c -0.6004467,0.30382 -1.4178143,0.71971 -2.058219,0.13905 -0.1685454,-0.12072 -0.3861608,-0.22418 -0.455458,-0.43645"
       id="path4876"
       inkscape:connector-curvature="0" />
    <path
       style="fill:none;stroke:#37c837;stroke-width:0.26458332;stroke-opacity:1"
       d="m 7.6587404,290.81523 c -0.5150697,-0.51355 -1.1724112,-0.75849 -1.869788,-0.8928 -0.2304961,-0.18343 -0.4389018,-0.64735 -0.4314634,-0.0711 -0.2214617,0.72085 0.2846606,1.54046 1.0651845,1.53193 0.5691668,0.15978 1.0008144,-0.44114 1.236067,-0.56927"
       id="path4880"
       inkscape:connector-curvature="0" />
    <path
       style="fill:none;stroke:#37c837;stroke-width:0.26458332;stroke-opacity:1"
       inkscape:path-effect="#path-effect4911"
       inkscape:original-d="m 8.633344,292.42939 c 0.1272265,0.004 0.1872766,-0.12703 0.3054777,-0.16381 0.098895,-0.0553 0.2022962,-0.10116 0.2980287,-0.16153 0.1151615,-0.0565 0.2392435,-0.0816 0.3649856,-0.10618 0.1285833,-0.0117 0.2603024,-0.0222 0.3731726,0.0418 0.1490794,0.0451 0.2807744,0.13487 0.4007594,0.23223 0.121927,0.0652 0.226209,0.15705 0.352452,0.21429 0.09109,0.0499 0.176092,0.0897 0.287783,0.0941 0.136058,0.0335 0.271937,0.0581 0.412353,0.0593 -0.0051,0.0519 -0.159753,0.0981 -0.225972,0.14002 -0.120289,0.0434 -0.241355,0.094 -0.367532,0.12563 -0.12479,0.0413 -0.254837,0.0684 -0.381112,0.1019 -0.11295,-0.003 -0.214019,0.0555 -0.324811,0.0583 -0.1321878,0.0111 -0.2599031,0.0596 -0.3935311,0.0457 -0.1061845,0.0306 -0.218873,0.0146 -0.3293315,0.0183 -0.093577,-0.0254 -0.1976836,-0.012 -0.2961962,-0.0375 -0.1038713,-0.0187 -0.2349546,-0.0335 -0.3000031,-0.12294 -0.077027,-0.0709 -0.1265923,-0.22356 -0.1239891,-0.34896 -0.017873,-0.0615 0.04556,-0.18934 -0.052534,-0.1907 z"
       id="path4909"
       d="m 8.633344,292.42939 c 0.041974,0.002 0.082562,-0.0142 0.1169554,-0.0374 0.056635,-0.0381 0.1013991,-0.0963 0.1670105,-0.11851 0.032441,-0.011 0.061331,-0.0298 0.091633,-0.0456 0.076704,-0.0399 0.1502291,-0.0857 0.2279073,-0.12389 0.1108819,-0.0545 0.2320683,-0.084 0.3532024,-0.10387 0.037791,-0.006 0.076259,-0.008 0.1144997,-0.01 0.080358,-0.004 0.1668872,-0.006 0.2382325,0.0334 0.03828,0.0211 0.080907,0.0314 0.120965,0.0488 0.113822,0.0495 0.203004,0.14127 0.312018,0.19953 0.121439,0.0649 0.231542,0.14735 0.352452,0.21429 0.07409,0.041 0.152625,0.0772 0.237258,0.0895 0.0276,0.004 0.05497,0.006 0.08241,0.0122 0.124702,0.0294 0.408254,-0.0737 0.380465,0.0516 -0.0068,0.0309 -0.03906,0.0467 -0.06431,0.0605 -0.05273,0.0288 -0.105068,0.059 -0.161666,0.0795 -0.121748,0.044 -0.244372,0.0849 -0.367532,0.12563 -0.124972,0.0413 -0.249675,0.1056 -0.381112,0.1019 -0.07319,-0.002 -0.143157,0.0225 -0.213126,0.0404 -0.03655,0.009 -0.07397,0.0147 -0.111685,0.0179 -0.117478,0.01 -0.2313421,0.0445 -0.349883,0.0481 -0.02145,6.6e-4 -0.041979,-0.002 -0.063632,0.003 -0.087828,0.0204 -0.1786486,0.0167 -0.2678384,0.0125 -0.019825,-9.3e-4 -0.039271,5.5e-4 -0.059174,-0.004 -0.091743,-0.0198 -0.1858664,-0.0164 -0.2785311,-0.0332 -0.072106,-0.013 -0.1463901,-0.0223 -0.2133006,-0.054 -0.03364,-0.0159 -0.059409,-0.0433 -0.086702,-0.069 -0.042674,-0.0402 -0.070468,-0.0936 -0.089793,-0.14818 -0.022745,-0.0643 -0.019061,-0.1342 -0.034196,-0.20078 -0.010491,-0.0462 0.00336,-0.0926 0.00332,-0.13935 -1.9e-5,-0.0261 -0.019947,-0.0507 -0.047128,-0.0509 0,0 -0.00873,-4.9e-4 -0.00873,-4.9e-4 0,0 0,5e-5 0,5e-5 z"
       inkscape:connector-curvature="0" />
  </g>
</svg>
