<?xml version="1.0" encoding="UTF-8" standalone="no"?>
<!-- Created with Inkscape (http://www.inkscape.org/) -->

<svg
   xmlns:dc="http://purl.org/dc/elements/1.1/"
   xmlns:cc="http://creativecommons.org/ns#"
   xmlns:rdf="http://www.w3.org/1999/02/22-rdf-syntax-ns#"
   xmlns:svg="http://www.w3.org/2000/svg"
   xmlns="http://www.w3.org/2000/svg"
   xmlns:sodipodi="http://sodipodi.sourceforge.net/DTD/sodipodi-0.dtd"
   xmlns:inkscape="http://www.inkscape.org/namespaces/inkscape"
   width="64"
   height="64"
   viewBox="0 0 16.933333 16.933334"
   version="1.1"
   id="svg8"
   inkscape:version="0.92.4 (fd57863, 2020-04-02)"
   sodipodi:docname="Shower.svg">
  <defs
     id="defs2">
    <inkscape:path-effect
       effect="simplify"
       id="path-effect58"
       is_visible="true"
       steps="1"
       threshold="0.000408163"
       smooth_angles="360"
       helper_size="0"
       simplify_individual_paths="false"
       simplify_just_coalesce="false"
       simplifyindividualpaths="false"
       simplifyJustCoalesce="false" />
    <inkscape:path-effect
       effect="simplify"
       id="path-effect46"
       is_visible="true"
       steps="1"
       threshold="0.000408163"
       smooth_angles="360"
       helper_size="0"
       simplify_individual_paths="false"
       simplify_just_coalesce="false"
       simplifyindividualpaths="false"
       simplifyJustCoalesce="false" />
    <inkscape:path-effect
       effect="simplify"
       id="path-effect42"
       is_visible="true"
       steps="1"
       threshold="0.000408163"
       smooth_angles="360"
       helper_size="0"
       simplify_individual_paths="false"
       simplify_just_coalesce="false"
       simplifyindividualpaths="false"
       simplifyJustCoalesce="false" />
    <inkscape:path-effect
       effect="simplify"
       id="path-effect38"
       is_visible="true"
       steps="1"
       threshold="0.000408163"
       smooth_angles="360"
       helper_size="0"
       simplify_individual_paths="false"
       simplify_just_coalesce="false"
       simplifyindividualpaths="false"
       simplifyJustCoalesce="false" />
    <inkscape:path-effect
       effect="simplify"
       id="path-effect34"
       is_visible="true"
       steps="1"
       threshold="0.000408163"
       smooth_angles="360"
       helper_size="0"
       simplify_individual_paths="false"
       simplify_just_coalesce="false"
       simplifyindividualpaths="false"
       simplifyJustCoalesce="false" />
    <inkscape:path-effect
       effect="simplify"
       id="path-effect30"
       is_visible="true"
       steps="1"
       threshold="0.000408163"
       smooth_angles="360"
       helper_size="0"
       simplify_individual_paths="false"
       simplify_just_coalesce="false"
       simplifyindividualpaths="false"
       simplifyJustCoalesce="false" />
    <inkscape:path-effect
       effect="simplify"
       id="path-effect18"
       is_visible="true"
       steps="1"
       threshold="0.000408163"
       smooth_angles="360"
       helper_size="0"
       simplify_individual_paths="false"
       simplify_just_coalesce="false"
       simplifyindividualpaths="false"
       simplifyJustCoalesce="false" />
    <inkscape:path-effect
       effect="simplify"
       id="path-effect94"
       is_visible="true"
       steps="1"
       threshold="0.000408163"
       smooth_angles="360"
       helper_size="0"
       simplify_individual_paths="false"
       simplify_just_coalesce="false"
       simplifyindividualpaths="false"
       simplifyJustCoalesce="false" />
    <inkscape:path-effect
       effect="simplify"
       id="path-effect90"
       is_visible="true"
       steps="1"
       threshold="0.000408163"
       smooth_angles="360"
       helper_size="0"
       simplify_individual_paths="false"
       simplify_just_coalesce="false"
       simplifyindividualpaths="false"
       simplifyJustCoalesce="false" />
    <inkscape:path-effect
       effect="simplify"
       id="path-effect74"
       is_visible="true"
       steps="1"
       threshold="0.000408163"
       smooth_angles="360"
       helper_size="0"
       simplify_individual_paths="false"
       simplify_just_coalesce="false"
       simplifyindividualpaths="false"
       simplifyJustCoalesce="false" />
    <inkscape:path-effect
       effect="simplify"
       id="path-effect60"
       is_visible="true"
       steps="1"
       threshold="0.000408163"
       smooth_angles="360"
       helper_size="0"
       simplify_individual_paths="false"
       simplify_just_coalesce="false"
       simplifyindividualpaths="false"
       simplifyJustCoalesce="false" />
  </defs>
  <sodipodi:namedview
     id="base"
     pagecolor="#ffffff"
     bordercolor="#666666"
     borderopacity="1.0"
     inkscape:pageopacity="0.0"
     inkscape:pageshadow="2"
     inkscape:zoom="8"
     inkscape:cx="57.258797"
     inkscape:cy="41.265702"
     inkscape:document-units="mm"
     inkscape:current-layer="layer1"
     showgrid="false"
     units="px"
     inkscape:window-width="1853"
     inkscape:window-height="1025"
     inkscape:window-x="67"
     inkscape:window-y="27"
     inkscape:window-maximized="1"
     showguides="true"
     inkscape:guide-bbox="true">
    <sodipodi:guide
       position="-15.364657,8.1149713"
       orientation="1,0"
       id="guide70"
       inkscape:locked="false" />
  </sodipodi:namedview>
  <metadata
     id="metadata5">
    <rdf:RDF>
      <cc:Work
         rdf:about="">
        <dc:format>image/svg+xml</dc:format>
        <dc:type
           rdf:resource="http://purl.org/dc/dcmitype/StillImage" />
        <dc:title />
      </cc:Work>
    </rdf:RDF>
  </metadata>
  <g
     inkscape:label="Layer 1"
     inkscape:groupmode="layer"
     id="layer1"
     transform="translate(0,-280.06665)">
    <path
       style="fill:none;stroke:#28170b;stroke-width:0.26458332;stroke-opacity:1"
       inkscape:path-effect="#path-effect18"
       inkscape:original-d="m 8.8867114,284.67552 c 0.2280397,0.0625 0.2482843,-0.31162 0.233863,-0.51463 -0.086668,-0.55939 -0.2849449,-1.05093 -0.561268,-1.49694 -0.2332415,-0.51475 -0.6086461,-0.84025 -0.9120559,-1.33292 -0.1983633,-0.32589 -0.5861899,-0.31787 -0.9214726,-0.30413 -0.5057516,0.006 -0.9391318,0.35039 -1.1832713,0.77202 -0.4067376,0.46124 -0.672655,1.05418 -0.7717408,1.66027 -0.038638,0.72112 -0.110962,1.45015 -0.046773,2.17491 0.058149,0.62779 0.2637799,1.23169 0.3267845,1.85554 0.049613,0.23235 0.00227,0.64849 0.047392,0.95079 0.031089,0.30823 0.1052449,0.63909 0.093546,0.98227 0.011311,0.50058 0.1111028,0.98856 0.210475,1.47327 -0.012368,0.28607 0.050963,0.56195 0,0.84204 0.011634,0.31787 -0.015067,0.61065 -0.023386,0.91212 -0.058968,0.29958 -0.1308975,0.58121 -0.210476,0.8421 -0.078554,0.20038 -0.072982,0.53027 -0.210477,0.70161 -0.032696,0.26818 -0.115351,0.54418 -0.163704,0.81864 0.020338,0.0739 -0.036183,-0.11044 -0.023386,-0.1169"
       id="path16"
       d="m 8.8867114,284.67552 c 0.051039,0.0161 0.1111355,0.004 0.1469494,-0.0374 0.056442,-0.0657 0.0745,-0.1542 0.083147,-0.23778 0.00867,-0.0838 0.014717,-0.16932 0.00171,-0.25259 -0.072339,-0.46324 -0.2363303,-0.90929 -0.4623262,-1.31977 -0.031696,-0.0576 -0.072613,-0.11029 -0.09963,-0.17009 -0.1204816,-0.2667 -0.2960502,-0.50307 -0.4762526,-0.73184 -0.1554611,-0.19736 -0.3085949,-0.39704 -0.4424996,-0.61009 -0.075288,-0.11979 -0.1976162,-0.20476 -0.3320098,-0.24615 -0.2010008,-0.0619 -0.4141499,-0.0511 -0.6213494,-0.0417 -0.2657527,0.012 -0.5201456,0.12309 -0.7271696,0.28717 -0.1674954,0.13275 -0.2737765,0.32328 -0.414779,0.4836 -0.3849614,0.43769 -0.6422678,0.98295 -0.7526103,1.55389 -0.010581,0.0548 -0.019242,0.10964 -0.022372,0.16555 -0.037994,0.67873 -0.098934,1.35931 -0.049803,2.03929 0.045854,0.63462 0.2739497,1.24087 0.32674,1.87356 0.0054,0.0647 0.019858,0.12809 0.024267,0.19301 0.018782,0.27655 8.636e-4,0.55418 0.030929,0.83067 0.035018,0.32203 0.084797,0.64216 0.092058,0.96781 0.011096,0.49765 0.2327437,0.9777 0.210475,1.47327 -0.012417,0.27633 0.029453,0.55123 0.00231,0.82891 -0.00448,0.0458 2.46e-5,0.0924 4.338e-4,0.13853 0.00233,0.26253 0.02478,0.52932 -0.026126,0.78672 -0.05648,0.28558 -0.1130802,0.57313 -0.2123018,0.84682 -0.052253,0.14413 -0.063967,0.29849 -0.1008988,0.44657 -0.02201,0.0883 -0.0964,0.15882 -0.1077524,0.25032 -0.034327,0.27666 -0.2357826,0.54978 -0.163704,0.81864 0.0099,0.0369 -0.00653,-0.0165 -0.00887,-0.0283 -0.00571,-0.0289 -0.019051,-0.0593 -0.014521,-0.0886"
       inkscape:connector-curvature="0" />
    <path
       style="fill:none;stroke:#28170b;stroke-width:0.26458332;stroke-opacity:1"
       inkscape:path-effect="#path-effect30"
       inkscape:original-d="m 9.6116798,284.88599 c -0.2395459,-0.13193 -0.1381556,0.38746 -0.011003,-0.005 -0.313625,-0.11517 -0.5708919,-0.13515 -0.9010556,-0.18228 -0.1838689,-0.002 -0.4179489,-0.20631 -0.49111,-0.0702 -0.078739,0.25914 0.037681,0.42479 0.023386,0.67247 0.030972,0.21187 -0.076319,0.35958 -0.233863,0.38003 -0.2269415,0.0921 0.2195429,0.0673 0.304021,0.1404 0.3134924,-0.0141 0.5996468,0.0502 0.9120573,0.0468 0.2625887,0.0447 0.5585241,0.0734 0.7951285,0.1638 0.270218,0.10278 0.0328,-0.0558 -0.072571,-0.16215 -0.067603,-0.17298 -0.2231277,-0.23804 -0.2782355,-0.39945 -0.1604979,-0.12035 -0.1806715,-0.26015 -0.187092,-0.46909 -0.022436,-0.14179 0.1403372,-0.11533 0.1293342,-0.12033"
       id="path28"
       d="m 9.6116798,284.88599 c -0.03437,-0.0194 -0.084267,-0.0365 -0.1163039,-0.006 -0.029389,0.0284 -0.033232,0.0743 -0.024064,0.11238 0.00464,0.0193 0.021665,0.0472 0.043755,0.036 0.034875,-0.0177 0.050897,-0.0572 0.065031,-0.0913 0.00767,-0.0185 0.039371,-0.0495 0.020578,-0.0565 -0.1438817,-0.0532 -0.2932877,-0.0904 -0.4443258,-0.11665 -0.1515714,-0.0264 -0.302958,-0.0625 -0.4567298,-0.0656 -0.066004,-0.001 -0.1288729,-0.0247 -0.1897553,-0.0481 -0.05862,-0.0226 -0.1160444,-0.0493 -0.1774387,-0.0638 -0.038168,-0.009 -0.08527,-0.008 -0.1125887,0.0248 -0.018881,0.0228 -0.021905,0.0538 -0.02751,0.0818 -0.014893,0.0745 -0.01388,0.15133 -0.00374,0.22639 0.013407,0.0992 0.034487,0.19721 0.043471,0.29725 0.00339,0.0378 -1.599e-4,0.0755 0.00329,0.11334 0.00728,0.0799 -0.00612,0.16381 -0.049691,0.23244 -0.035717,0.0563 -0.093569,0.0984 -0.1586959,0.11292 -0.016439,0.004 -0.033106,0.005 -0.048264,0.0136 -0.01579,0.009 -0.044499,0.0133 -0.04412,0.0326 3.06e-4,0.0156 0.019576,0.0199 0.031645,0.0231 0.053194,0.014 0.1083306,0.018 0.1624423,0.027 0.053814,0.009 0.1059642,0.0251 0.1592289,0.0397 0.00783,0.002 0.011415,0.01 0.021502,0.009 0.1853539,-0.008 0.3701622,0.0128 0.5544674,0.0295 0.1164372,0.0105 0.2349098,-0.002 0.3502474,0.0177 0.2089618,0.0356 0.42046,0.0587 0.6262528,0.11095 0.06347,0.0161 0.1248789,0.0391 0.1870467,0.0597 0.03238,0.0107 0.06474,0.0257 0.09931,0.0262 0,0 0.0067,-0.004 0.0067,-0.004 -2.22e-4,-0.0172 -0.01594,-0.029 -0.02736,-0.0398 -0.05491,-0.0523 -0.1422229,-0.0808 -0.169335,-0.15168 -0.025621,-0.067 -0.070316,-0.12426 -0.1183632,-0.17664 -0.051561,-0.0562 -0.107436,-0.11067 -0.1418807,-0.17979 -0.00694,-0.0139 -0.00549,-0.0338 -0.017992,-0.043 -0.058398,-0.0432 -0.1081428,-0.0995 -0.1377096,-0.16643 -0.035372,-0.08 -0.049041,-0.16845 -0.047565,-0.25493 5.046e-4,-0.0296 -0.00507,-0.059 -0.003,-0.0885 0.00297,-0.0424 0.042968,-0.0672 0.081958,-0.0757 0.015987,-0.003 0.03253,-0.002 0.048561,-0.004"
       inkscape:connector-curvature="0"
       sodipodi:nodetypes="ccccccccccccc" />
    <path
       style="fill:none;stroke:#0000ff;stroke-width:0.26458332;stroke-opacity:1"
       inkscape:path-effect="#path-effect34"
       inkscape:original-d="m 7.9980403,286.45286 c -0.088066,0.53492 -0.3568686,1.03787 -0.4414928,1.58393 -0.038631,0.29052 -0.1652075,0.7451 -0.1197722,1.10547 v 0.0234 -0.0234"
       id="path32"
       d="m 7.9980403,286.45286 c -0.038525,0.23374 -0.1110786,0.46 -0.1867451,0.6839 -0.084717,0.25068 -0.1741306,0.50079 -0.2290815,0.76016 -0.01275,0.0602 -0.02221,0.12098 -0.031652,0.18178 -0.022815,0.14692 -0.053814,0.29241 -0.078031,0.4391 -0.026961,0.1633 -0.048349,0.32845 -0.04506,0.4943 8.73e-4,0.044 0.0093,0.0877 0.0093,0.1317 0,0.007 0,0.0292 0,0.0219 0,-0.008 0,-0.0156 0,-0.0234"
       inkscape:connector-curvature="0" />
    <path
       style="fill:none;stroke:#0000ff;stroke-width:0.26458332;stroke-opacity:1"
       inkscape:path-effect="#path-effect42"
       inkscape:original-d="m 9.635066,286.85042 c 0.3191862,0.0602 0.097698,0.61181 0.1169302,0.88859 -3.058e-4,0.36928 -0.019275,0.75787 0.070161,1.09916 0,-0.0312 0,-0.0624 0,-0.0936"
       id="path40"
       d="m 9.635066,286.85042 c 0.042846,0.008 0.084179,0.028 0.1129991,0.0613 0.032923,0.038 0.048436,0.0877 0.055253,0.1367 0.010392,0.0747 0.00522,0.15041 -0.00281,0.225 -0.012617,0.11716 -0.033183,0.23325 -0.045966,0.35042 -0.00512,0.0469 -0.00247,0.0941 -0.0026,0.14118 -6.459e-4,0.24143 -0.00844,0.48343 0.012699,0.72428 0.010311,0.1175 0.057513,0.46694 0.057513,0.34888 0,-0.0312 0,-0.0624 0,-0.0936"
       inkscape:connector-curvature="0" />
    <path
       style="fill:none;stroke:#0000ff;stroke-width:0.26458332;stroke-opacity:1"
       inkscape:path-effect="#path-effect46"
       inkscape:original-d="m 10.243104,286.59318 c 0.239328,0.39172 0.15977,0.93596 0.433149,1.34343 0.147118,0.28723 0.400732,0.53076 0.666021,0.71469"
       id="path44"
       d="m 10.243104,286.59318 c 0.06775,0.11073 0.110137,0.23483 0.141206,0.36027 0.05296,0.21382 0.07689,0.4341 0.139365,0.64569 0.03505,0.11871 0.0959,0.22703 0.152578,0.33747 0.08684,0.1692 0.207448,0.31928 0.343618,0.45127 0.09977,0.0967 0.208275,0.18424 0.322403,0.26342"
       inkscape:connector-curvature="0" />
    <path
       style="fill:none;stroke:#0000ff;stroke-width:0.26458332;stroke-opacity:1"
       inkscape:path-effect="#path-effect58"
       inkscape:original-d="m 8.8750187,286.59318 c 0.054264,0.0733 -1.4e-4,0.14937 9.034e-4,0.2223 -0.023055,0.078 -0.038179,0.15698 -0.056972,0.23739 -0.015585,0.0182 -0.036562,0.14536 -0.043927,0.17981 -0.033522,0.0704 -0.033659,0.1476 -0.05201,0.1794 -0.00658,0.0938 -0.062851,0.17375 -0.105238,0.2573 -0.013617,0.0894 -0.068353,0.16792 -0.082423,0.25747 -0.020933,0.0676 -0.029179,0.1726 -0.049553,0.21888 0.00979,2.7e-4 -0.024407,0.13102 -0.032783,0.17871 -0.00561,0.0892 -0.032531,0.17561 -0.022321,0.26914 -0.025429,0.0528 -0.00595,0.11516 -0.011692,0.17251 0,0.11402 0,0.22805 0,0.34208 2.757e-4,0.0131 0.021858,0.018 0.023387,0"
       id="path56"
       d="m 8.8750187,286.59318 c 0.029838,0.0374 0.026004,0.0881 0.016081,0.13226 -0.00667,0.0297 -0.00648,0.0606 -0.015178,0.09 -0.023091,0.0781 -0.020072,0.16487 -0.056972,0.23739 -0.018826,0.037 -0.022995,0.0795 -0.032278,0.11961 -0.00622,0.0269 -0.00991,0.0541 -0.020239,0.0801 -0.016315,0.0411 -0.028123,0.0842 -0.032265,0.12791 -0.00135,0.0143 -0.010455,0.0261 -0.011915,0.0403 -0.00694,0.0672 -0.039161,0.12798 -0.071077,0.18629 -0.011309,0.0207 -0.029826,0.039 -0.0334,0.0623 -0.01381,0.0899 -0.056144,0.17038 -0.082423,0.25747 -0.019637,0.0651 -0.03756,0.13123 -0.042433,0.19896 -6.353e-4,0.009 -0.00441,0.0159 -0.00537,0.0257 -0.00438,0.0447 -0.014838,0.0886 -0.026056,0.13193 -0.01192,0.0461 -0.013499,0.0937 -0.020693,0.14068 -0.00857,0.0559 0.014667,0.11812 -0.010101,0.16944 -0.016825,0.0349 -0.014395,0.0747 -0.011863,0.11218 0.00141,0.0209 1.706e-4,0.0418 1.706e-4,0.0628 0,0.11321 0,0.22642 0,0.33963 0,0 0.00356,0.008 0.00356,0.008 0,0 0.00767,0.004 0.00767,0.004 0,0 0.0079,-0.002 0.0079,-0.002 0,0 0.00283,-0.004 0.00283,-0.004 0,0 0.00143,-0.006 0.00143,-0.006"
       inkscape:connector-curvature="0" />
  </g>
</svg>
