<?xml version="1.0" encoding="UTF-8" standalone="no"?>
<!-- Created with Inkscape (http://www.inkscape.org/) -->

<svg
   xmlns:dc="http://purl.org/dc/elements/1.1/"
   xmlns:cc="http://creativecommons.org/ns#"
   xmlns:rdf="http://www.w3.org/1999/02/22-rdf-syntax-ns#"
   xmlns:svg="http://www.w3.org/2000/svg"
   xmlns="http://www.w3.org/2000/svg"
   xmlns:sodipodi="http://sodipodi.sourceforge.net/DTD/sodipodi-0.dtd"
   xmlns:inkscape="http://www.inkscape.org/namespaces/inkscape"
   width="64"
   height="64"
   viewBox="0 0 16.933333 16.933334"
   version="1.1"
   id="svg8"
   inkscape:version="0.92.4 (fd57863, 2020-04-02)"
   sodipodi:docname="Sleep.svg">
  <defs
     id="defs2">
    <inkscape:path-effect
       effect="simplify"
       id="path-effect96"
       is_visible="true"
       steps="1"
       threshold="0.000408163"
       smooth_angles="360"
       helper_size="0"
       simplify_individual_paths="false"
       simplify_just_coalesce="false"
       simplifyindividualpaths="false"
       simplifyJustCoalesce="false" />
    <inkscape:path-effect
       effect="simplify"
       id="path-effect64"
       is_visible="true"
       steps="1"
       threshold="0.000408163"
       smooth_angles="360"
       helper_size="0"
       simplify_individual_paths="false"
       simplify_just_coalesce="false"
       simplifyindividualpaths="false"
       simplifyJustCoalesce="false" />
    <inkscape:path-effect
       effect="simplify"
       id="path-effect48"
       is_visible="true"
       steps="1"
       threshold="0.000408163"
       smooth_angles="360"
       helper_size="0"
       simplify_individual_paths="false"
       simplify_just_coalesce="false"
       simplifyindividualpaths="false"
       simplifyJustCoalesce="false" />
  </defs>
  <sodipodi:namedview
     id="base"
     pagecolor="#ffffff"
     bordercolor="#666666"
     borderopacity="1.0"
     inkscape:pageopacity="0.0"
     inkscape:pageshadow="2"
     inkscape:zoom="11.313709"
     inkscape:cx="17.359723"
     inkscape:cy="26.287927"
     inkscape:document-units="mm"
     inkscape:current-layer="layer1"
     showgrid="false"
     units="px"
     inkscape:window-width="1853"
     inkscape:window-height="1025"
     inkscape:window-x="67"
     inkscape:window-y="27"
     inkscape:window-maximized="1" />
  <metadata
     id="metadata5">
    <rdf:RDF>
      <cc:Work
         rdf:about="">
        <dc:format>image/svg+xml</dc:format>
        <dc:type
           rdf:resource="http://purl.org/dc/dcmitype/StillImage" />
        <dc:title />
      </cc:Work>
    </rdf:RDF>
  </metadata>
  <g
     inkscape:label="Layer 1"
     inkscape:groupmode="layer"
     id="layer1"
     transform="translate(0,-280.06665)">
    <path
       style="fill:none;stroke:#2b0000;stroke-width:0.26458332;stroke-opacity:1"
       inkscape:path-effect="#path-effect48"
       inkscape:original-d="m 1.122532,292.86065 c 0.5094228,0.41324 1.1402364,-0.59414 1.7065575,-0.6795 0.4877183,-0.24762 0.978142,-0.45783 1.3570162,-0.81736 0.497866,-0.60679 -0.1251856,0.59621 -0.1773558,0.82313 -0.1798158,0.61191 -0.5696306,1.16151 -1.0043577,1.64341 -0.3526128,0.49086 -0.6793444,0.99786 -1.066843,1.44693 -0.4555262,0.61065 0.6520661,0.008 0.9155505,-0.0313 0.6012047,-0.26985 1.2027736,-0.52173 1.8475004,-0.65502 0.3763603,-0.11909 0.7177976,-0.35246 1.052372,-0.5148 0.071245,-0.002 0.1443357,-0.099 0.23386,-0.117"
       id="path46"
       d="m 1.122532,292.86065 c 0.071026,0.0588 0.1606109,0.096 0.2533392,0.0989 0.1155175,0.004 0.2271254,-0.038 0.3275794,-0.0915 0.161311,-0.0859 0.30515,-0.19981 0.4504335,-0.30967 0.1429834,-0.10812 0.2854281,-0.21983 0.4465845,-0.2999 0.072194,-0.0359 0.1564855,-0.0406 0.2286209,-0.0773 0.3201035,-0.16291 0.6489498,-0.31107 0.952068,-0.50508 0.1437255,-0.092 0.2949719,-0.1816 0.4049482,-0.31228 0.044838,-0.0533 0.092398,-0.10426 0.1430157,-0.15252 0.012606,-0.012 0.04723,-0.0291 0.048164,-1.5e-4 0.00152,0.0473 -0.015406,0.0929 -0.030836,0.13689 -0.051524,0.14675 -0.115094,0.28886 -0.1760236,0.43184 -0.049986,0.1173 -0.1047952,0.23289 -0.145617,0.35376 -0.014712,0.0436 -0.02613,0.0881 -0.040388,0.13184 -0.1180687,0.36221 -0.3065519,0.69792 -0.5274881,1.00692 -0.1393776,0.19493 -0.3127038,0.36344 -0.4525401,0.55796 -0.329492,0.45834 -0.6432597,0.92845 -0.9993365,1.36741 -0.032488,0.0401 -0.06818,0.0775 -0.096991,0.12048 -0.031179,0.0465 -0.057947,0.0961 -0.076651,0.14962 -0.012592,0.036 0.012242,0.0735 0.050743,0.079 0.055276,0.008 0.1109834,-0.005 0.164178,-0.0187 0.1408685,-0.0373 0.2762041,-0.0922 0.4118989,-0.14471 0.111361,-0.0431 0.219114,-0.0997 0.336159,-0.12393 0.042633,-0.009 0.082193,-0.0241 0.122119,-0.0419 0.4757243,-0.21243 0.9587217,-0.41398 1.4626571,-0.5499 0.1063684,-0.0287 0.2164218,-0.0434 0.3214318,-0.0767 0.2713699,-0.0861 0.5196204,-0.22845 0.767822,-0.36509 0.09389,-0.0517 0.1776436,-0.14177 0.28455,-0.14971 0.051179,-0.004 0.091327,-0.0401 0.1319107,-0.0676 0.031285,-0.0212 0.064428,-0.0417 0.1019493,-0.0494"
       inkscape:connector-curvature="0" />
    <path
       style="fill:none;stroke:#2b0000;stroke-width:0.26458332;stroke-opacity:1"
       inkscape:path-effect="#path-effect64"
       inkscape:original-d="m 5.7997486,287.0609 c 0.2739425,-0.0261 0.5122524,0.12508 0.7483532,-0.0702 0.6523126,-0.19249 1.3424209,-0.10995 2.0112037,-0.1638 0.2788856,-0.0587 0.7365472,-0.24637 0.2532355,0.14612 -0.5113683,0.78037 -1.0914163,1.50825 -1.7499461,2.16904 -0.3055535,0.47247 -0.5887836,1.0329 -0.8652824,1.42644 -0.5468355,0.38961 0.2370757,0.25363 0.5107274,0.1878 0.4963183,-0.20358 1.332479,-0.10796 1.9214256,-0.3516 0.2828486,-0.014 0.3937523,-0.1631 0.678199,-0.1872 0.024218,-0.052 0.5620987,-0.11156 0.304021,-0.1404"
       id="path62"
       d="m 5.7997486,287.0609 c 0.1224694,-0.0122 0.2439198,0.0133 0.3651859,0.0262 0.089193,0.009 0.1821739,0.008 0.2666355,-0.026 0.04233,-0.017 0.072855,-0.0575 0.1165318,-0.0704 0.2959506,-0.0875 0.6050837,-0.1185 0.9124218,-0.13085 0.3661454,-0.0147 0.7399423,0.0427 1.0987819,-0.0329 0.1206567,-0.0254 0.236566,-0.0732 0.3588893,-0.0889 0.032648,-0.004 0.080713,-0.0282 0.100148,8.4e-4 0.016591,0.0248 -0.00997,0.052 -0.025801,0.0699 -0.053896,0.061 -0.1355109,0.0963 -0.1800007,0.16426 -0.509791,0.77833 -1.2448134,1.38724 -1.7499461,2.16904 -0.2460724,0.38085 -0.4566696,0.78307 -0.6958271,1.1681 -0.054343,0.0875 -0.086163,0.19774 -0.1694553,0.25834 -0.057726,0.042 -0.1155019,0.0856 -0.1615701,0.1407 -0.020802,0.0249 -0.044725,0.07 -0.011931,0.0941 0.034641,0.0255 0.079788,0.0287 0.1211825,0.0299 0.1105453,0.003 0.2207334,-0.0116 0.3294831,-0.0299 0.078337,-0.0131 0.1599489,-0.0172 0.2335633,-0.047 0.1527947,-0.0619 0.3161425,-0.0922 0.4788501,-0.11396 0.3546666,-0.0473 0.7143851,-0.0564 1.0657951,-0.12737 0.1283888,-0.0259 0.2457415,-0.10479 0.3767804,-0.11027 0.094049,-0.004 0.1862525,-0.0277 0.2733458,-0.0627 0.093278,-0.0376 0.1845805,-0.0815 0.2829115,-0.10499 0.040078,-0.01 0.091763,0.009 0.1219417,-0.0195 0.032745,-0.0304 0.081057,-0.0366 0.1231175,-0.0473 0.072584,-0.0184 0.1508057,-0.021 0.2180805,-0.054 0.010199,-0.005 0.044123,-0.0155 0.030495,-0.0235 -0.020205,-0.0117 -0.045017,-0.0122 -0.067672,-0.0156"
       inkscape:connector-curvature="0" />
    <path
       style="fill:none;stroke:#2b0000;stroke-width:0.26458332;stroke-opacity:1"
       inkscape:path-effect="#path-effect96"
       inkscape:original-d="m 10.278184,281.74057 c 0.571854,-0.16195 1.124838,-0.40919 1.720904,-0.40937 0.673681,0.0356 1.314451,-0.12036 1.985783,-0.0936 -0.342692,0.36008 -0.511079,0.895 -0.77175,1.33314 -0.256417,0.45451 -0.498544,0.97058 -0.865278,1.35643 -0.186266,0.18418 -0.572048,0.46399 -0.72496,0.79523 -0.0929,0.16437 -0.153905,0.29261 -0.23389,0.5148 -0.212729,0.36897 -0.244106,0.50155 0.304394,0.35315 0.614823,-0.13914 1.253141,-0.16285 1.847099,-0.32985 0.309739,-0.11795 0.64105,-0.14458 0.93542,-0.3276 0.371463,-0.0901 0.785183,-0.0635 1.082809,-0.3253 l 0.03973,-0.0724"
       id="path94"
       d="m 10.278184,281.74057 c 0.401106,-0.11345 0.790517,-0.26886 1.199803,-0.35258 0.171396,-0.0351 0.346232,-0.0662 0.521101,-0.0568 0.378381,0.0203 0.75608,-0.0214 1.132287,-0.0566 0.28357,-0.0265 1.04994,-0.24381 0.853496,-0.037 -0.161868,0.17039 -0.281949,0.3749 -0.388886,0.58276 -0.13032,0.25331 -0.249161,0.51236 -0.388871,0.76104 -0.195713,0.34837 -0.372177,0.7093 -0.605414,1.03496 -0.08032,0.11215 -0.162968,0.2241 -0.262733,0.31951 -0.112845,0.10792 -0.233853,0.20691 -0.346565,0.31499 -0.130063,0.12472 -0.261903,0.25521 -0.342413,0.41766 -0.02406,0.0485 -0.05062,0.0957 -0.07633,0.14339 -0.07346,0.13625 -0.108648,0.2906 -0.184662,0.42529 -0.04657,0.0825 -0.09846,0.16369 -0.127588,0.25423 -0.01294,0.0402 -0.03068,0.0933 0.0018,0.12698 0.03101,0.0321 0.07975,0.0335 0.121257,0.0312 0.09851,-0.005 0.194504,-0.0304 0.28983,-0.0542 0.08756,-0.0219 0.176332,-0.0388 0.265098,-0.055 0.480991,-0.088 0.971701,-0.12189 1.446976,-0.23987 0.05398,-0.0134 0.109278,-0.0232 0.161333,-0.0428 0.255736,-0.0961 0.530788,-0.133 0.780547,-0.2463 0.05079,-0.023 0.09341,-0.0654 0.14761,-0.0786 0.250303,-0.0608 0.511869,-0.0669 0.757929,-0.14643 0.118431,-0.0383 0.265145,-0.07 0.325254,-0.17955 0.01312,-0.0239 0.02624,-0.0478 0.03936,-0.0717"
       inkscape:connector-curvature="0" />
  </g>
</svg>
